<?xml version="1.0" encoding="utf-8"?>
<!-- Generator: Adobe Illustrator 18.1.1, SVG Export Plug-In . SVG Version: 6.00 Build 0)  -->
<!DOCTYPE svg PUBLIC "-//W3C//DTD SVG 1.1//EN" "http://www.w3.org/Graphics/SVG/1.1/DTD/svg11.dtd" [
	<!ENTITY ns_extend "http://ns.adobe.com/Extensibility/1.0/">
	<!ENTITY ns_ai "http://ns.adobe.com/AdobeIllustrator/10.0/">
	<!ENTITY ns_graphs "http://ns.adobe.com/Graphs/1.0/">
	<!ENTITY ns_vars "http://ns.adobe.com/Variables/1.0/">
	<!ENTITY ns_imrep "http://ns.adobe.com/ImageReplacement/1.0/">
	<!ENTITY ns_sfw "http://ns.adobe.com/SaveForWeb/1.0/">
	<!ENTITY ns_custom "http://ns.adobe.com/GenericCustomNamespace/1.0/">
	<!ENTITY ns_adobe_xpath "http://ns.adobe.com/XPath/1.0/">
]>
<svg version="1.1" id="Layer_1" xmlns:x="&ns_extend;" xmlns:i="&ns_ai;" xmlns:graph="&ns_graphs;"
	 xmlns="http://www.w3.org/2000/svg" xmlns:xlink="http://www.w3.org/1999/xlink" x="0px" y="0px" viewBox="0 0 179 238.3"
	 enable-background="new 0 0 179 238.3" xml:space="preserve">
<metadata>
	<sfw  xmlns="&ns_sfw;">
		<slices></slices>
		<sliceSourceBounds  width="179" height="240.2" y="-660.1" x="871" bottomLeftOrigin="true"></sliceSourceBounds>
	</sfw>
</metadata>
<g>
	<path fill="#FFFFFF" stroke="#A3A3A3" stroke-width="2" stroke-miterlimit="10" d="M178,89.5C178,165,89.5,237,89.5,237
		S3,165,1,89.5C-0.3,40.6,40.7,1,89.5,1S178,40.6,178,89.5z"/>
	<ellipse id="XMLID_335_" fill="#A3A3A3" stroke="#A3A3A3" stroke-miterlimit="10" cx="89.5" cy="86.6" rx="63.7" ry="63.7"/>
	<g>
		<defs>
			<ellipse id="XMLID_298_" cx="89.5" cy="78.6" rx="63.7" ry="63.7"/>
		</defs>
		<use xlink:href="#XMLID_298_"  overflow="visible" fill="#FFFFFF"/>
		<clipPath id="XMLID_2_">
			<use xlink:href="#XMLID_298_"  overflow="visible"/>
		</clipPath>
		<g clip-path="url(#XMLID_2_)">
			
				<ellipse fill="none" stroke="#A3A3A3" stroke-linecap="round" stroke-linejoin="round" stroke-miterlimit="10" cx="77.2" cy="133.5" rx="54" ry="50.8"/>
			
				<ellipse fill="none" stroke="#B0BA50" stroke-linecap="round" stroke-linejoin="round" stroke-miterlimit="10" cx="77.2" cy="134.1" rx="33.7" ry="31.3"/>
			
				<ellipse fill="none" stroke="#A3A3A3" stroke-linecap="round" stroke-linejoin="round" stroke-miterlimit="10" cx="77.2" cy="134.1" rx="33.7" ry="31.3"/>
			
				<ellipse fill="none" stroke="#A3A3A3" stroke-linecap="round" stroke-linejoin="round" stroke-miterlimit="10" cx="77.2" cy="134.1" rx="37" ry="34.4"/>
			
				<ellipse fill="none" stroke="#A3A3A3" stroke-linecap="round" stroke-linejoin="round" stroke-miterlimit="10" cx="77.2" cy="134.1" rx="51.5" ry="48.1"/>
			
				<ellipse fill="none" stroke="#A3A3A3" stroke-linecap="round" stroke-linejoin="round" stroke-miterlimit="10" cx="77.2" cy="134.1" rx="26.7" ry="24.8"/>
			
				<ellipse fill="none" stroke="#A3A3A3" stroke-linecap="round" stroke-linejoin="round" stroke-miterlimit="10" cx="77.2" cy="134.1" rx="30.5" ry="28.4"/>
			
				<ellipse fill="none" stroke="#A3A3A3" stroke-linecap="round" stroke-linejoin="round" stroke-miterlimit="10" cx="77.2" cy="134.1" rx="19.9" ry="18.5"/>
			
				<ellipse fill="none" stroke="#A3A3A3" stroke-width="0.75" stroke-linecap="round" stroke-linejoin="round" stroke-miterlimit="10" cx="128.8" cy="42.9" rx="17.5" ry="16.9"/>
			
				<ellipse fill="none" stroke="#9CA04B" stroke-linecap="round" stroke-linejoin="round" stroke-miterlimit="10" cx="128.8" cy="43" rx="15" ry="14.4"/>
			
				<ellipse fill="none" stroke="#A3A3A3" stroke-width="0.75" stroke-linecap="round" stroke-linejoin="round" stroke-miterlimit="10" cx="128.8" cy="43" rx="15" ry="14.4"/>
		</g>
		<g clip-path="url(#XMLID_2_)">
			
				<ellipse fill="#A3A3A3" stroke="#A3A3A3" stroke-width="0.75" stroke-linecap="round" stroke-linejoin="round" stroke-miterlimit="10" cx="62.9" cy="38.2" rx="42.8" ry="39.7"/>
		</g>
		<g clip-path="url(#XMLID_2_)">
			
				<path fill="#A3A3A3" stroke="#FFFFFF" stroke-width="0.75" stroke-linecap="round" stroke-linejoin="round" stroke-miterlimit="10" d="
				M63.2-0.9C63.2-0.9,63.2-0.9,63.2-0.9l-0.3,0C41.7-0.5,24.4,17.5,24.5,39.2c0,21.4,17,38.7,37.9,38.7c0.2,0,0.5,0,0.7,0
				c21.2-0.4,38.5-18.4,38.5-40.1C101.5,16.3,84.3-1.2,63.2-0.9z M94,54l-12.4,0.2c1-4.4,1.6-9.3,1.7-14.4l14.4-0.2
				C97.4,44.7,96.1,49.6,94,54z M28.3,40.8l14.4-0.2c0.1,5.1,0.7,10,1.7,14.4l-12.4,0.2C29.9,50.8,28.6,46,28.3,40.8z M32,23.1
				c0.1,0,0.1,0,0.2,0c0,0,0,0,0,0l12.2-0.2c-0.9,4.3-1.5,9-1.6,14l-14.4,0.3C28.6,32.1,29.9,27.4,32,23.1z M97.7,35.8l-14.4,0.3
				c-0.1-5-0.7-9.7-1.7-13.9L94,21.9C96.1,26.1,97.4,30.8,97.7,35.8z M79.4,36.2l-13.7,0.3l0-14l11.9-0.2
				C78.6,26.5,79.2,31.2,79.4,36.2z M65.7,18.6l0-15.2c4.4,1.6,8.3,7.2,10.8,15L65.7,18.6z M61.8,3l0,15.6l-12.3,0.2
				C52.3,10.1,56.8,4,61.8,3z M61.8,22.5l0,14l-15.2,0.3c0.1-5,0.8-9.7,1.8-14L61.8,22.5z M46.6,40.5l15.2-0.3l0,14.4l-13.4,0.3
				C47.4,50.5,46.8,45.6,46.6,40.5z M61.9,58.6l0,15.4c-5-0.7-9.5-6.6-12.3-15.1L61.9,58.6z M65.7,73.5l0-14.9l10.7-0.2
				C74,66.1,70.1,71.7,65.7,73.5z M65.7,54.5l0-14.4l13.7-0.2c-0.1,5.1-0.8,10-1.8,14.4L65.7,54.5z M91.7,18.1l-11.2,0.2
				c-1.7-5.8-4.2-10.6-7.2-13.9C80.9,6.7,87.4,11.6,91.7,18.1z M52.5,4.8c-2.9,3.5-5.4,8.3-7.1,14.2l-11.2,0.2
				C38.5,12.5,45,7.4,52.5,4.8z M73.5,72.2c2.9-3.4,5.3-8.2,7-14L91.7,58C87.3,64.6,81,69.6,73.5,72.2z"/>
			
				<path fill="#A3A3A3" stroke="#FFFFFF" stroke-width="0.75" stroke-linecap="round" stroke-linejoin="round" stroke-miterlimit="10" d="
				M66.8-0.9C66.7-0.9,66.7-0.9,66.8-0.9l-0.3,0C45.2-0.5,28,17.5,28,39.2c0,21.4,17,38.7,37.9,38.7c0.2,0,0.5,0,0.7,0
				c21.2-0.4,38.5-18.4,38.5-40.1C105.1,16.3,87.8-1.2,66.8-0.9z M97.5,54l-12.4,0.2c1-4.4,1.6-9.3,1.7-14.4l14.4-0.2
				C101,44.7,99.7,49.6,97.5,54z M31.9,40.8l14.4-0.2c0.1,5.1,0.7,10,1.7,14.4l-12.4,0.2C33.5,50.8,32.1,46,31.9,40.8z M35.6,23.1
				c0.1,0,0.1,0,0.2,0c0,0,0,0,0,0L48,22.9c-0.9,4.3-1.5,9-1.6,14l-14.4,0.3C32.2,32.1,33.5,27.4,35.6,23.1z M101.2,35.8l-14.4,0.3
				c-0.1-5-0.7-9.7-1.7-13.9l12.4-0.2C99.6,26.1,100.9,30.8,101.2,35.8z M82.9,36.2l-13.7,0.3l0-14l11.9-0.2
				C82.1,26.5,82.8,31.2,82.9,36.2z M69.2,18.6l0-15.2c4.4,1.6,8.3,7.2,10.8,15L69.2,18.6z M65.4,3l0,15.6L53,18.9
				C55.8,10.1,60.3,4,65.4,3z M65.4,22.5l0,14l-15.2,0.3c0.1-5,0.8-9.7,1.8-14L65.4,22.5z M50.2,40.5l15.2-0.3l0,14.4L52,54.8
				C50.9,50.5,50.3,45.6,50.2,40.5z M69.3,73.5l0-14.9L80,58.3C77.5,66.1,73.7,71.7,69.3,73.5z M69.3,54.5l0-14.4l13.7-0.2
				c-0.1,5.1-0.8,10-1.8,14.4L69.3,54.5z M95.3,18.1l-11.2,0.2c-1.7-5.8-4.2-10.6-7.2-13.9C84.5,6.7,90.9,11.6,95.3,18.1z M56,4.8
				C53.1,8.3,50.6,13.1,49,19l-11.2,0.2C42.1,12.5,48.5,7.4,56,4.8z M77.1,72.2c2.9-3.4,5.3-8.2,7-14L95.2,58
				C90.9,64.6,84.5,69.6,77.1,72.2z"/>
		</g>
		<g clip-path="url(#XMLID_2_)">
			<defs>
				<polygon id="XMLID_334_" points="165.3,95.7 142.8,24.4 116.4,103.7 41.5,139 83.1,152.7 145.8,128.7 				"/>
			</defs>
			<use xlink:href="#XMLID_334_"  overflow="visible" fill="#FFFFFF"/>
			<clipPath id="XMLID_3_">
				<use xlink:href="#XMLID_334_"  overflow="visible"/>
			</clipPath>
			
				<polyline clip-path="url(#XMLID_3_)" fill="none" stroke="#A3A3A3" stroke-width="0.75" stroke-linecap="round" stroke-linejoin="round" stroke-miterlimit="10" points="
				157.4,86.6 45.1,140.2 48.4,143.4 159.4,89.5 			"/>
			
				<use xlink:href="#XMLID_334_"  overflow="visible" fill="none" stroke="#A3A3A3" stroke-width="0.75" stroke-linecap="round" stroke-linejoin="round" stroke-miterlimit="10"/>
		</g>
		<g clip-path="url(#XMLID_2_)">
			<g>
				<path fill="#FFFFFF" d="M125.6,38.5C115.9,29,103,24,89.2,24.4c-8.4,0.3-11.9,0.9-19.3,5l-3.1-3.7l-7.2,13.4l14.5-2.8L72,32.8
					c6.8-3.8,9.6-4.1,17.3-4.4c12.7-0.4,24.6,4.2,33.5,12.9c9.2,9,14.1,21.2,13.9,34.5c-0.1,5.1-0.9,10-2.4,14.8
					c0,0.7,3.6,0.2,3.6,0.2c1.7-5.3,2.8-10.5,2.8-14.9C140.9,61.6,135.6,48.3,125.6,38.5z"/>
				<g>
					<linearGradient id="SVGID_1_" gradientUnits="userSpaceOnUse" x1="58.6055" y1="57.7168" x2="141.7382" y2="57.7168">
						<stop  offset="0.4946" style="stop-color:#A3A3A3"/>
						<stop  offset="0.9952" style="stop-color:#A3A3A3;stop-opacity:0.5048"/>
						<stop  offset="1" style="stop-color:#A3A3A3;stop-opacity:0.5"/>
					</linearGradient>
					<path fill="url(#SVGID_1_)" d="M90.9,24.4c13.2,0,25.4,5,34.8,14.1c9.9,9.8,15.3,23.1,15.1,37.4c-0.1,4.4-1.1,9.7-2.8,14.9
						c0,0-1.3,0.2-2.4,0.2c-0.7,0-1.2-0.1-1.2-0.3c1.5-4.8,2.4-9.8,2.4-14.8c0.2-13.3-4.7-25.5-13.9-34.5
						C114.3,33,103,28.4,90.9,28.4c-0.5,0-1.1,0-1.6,0c-7.7,0.3-10.5,0.6-17.3,4.4l2.1,3.5l-14.5,2.8l7.2-13.4l3.1,3.7
						c7.4-4.2,11-4.8,19.3-5C89.7,24.4,90.3,24.4,90.9,24.4 M90.9,23.4c-0.6,0-1.1,0-1.7,0c-8.4,0.3-12.1,1-19.1,4.8l-2.6-3
						c-0.2-0.2-0.5-0.4-0.8-0.4c0,0-0.1,0-0.1,0c-0.3,0-0.6,0.2-0.8,0.5l-7.2,13.4c-0.2,0.3-0.2,0.8,0.1,1.1
						c0.2,0.3,0.5,0.4,0.8,0.4c0.1,0,0.1,0,0.2,0l14.5-2.8c0.3-0.1,0.6-0.3,0.7-0.6c0.1-0.3,0.1-0.6-0.1-0.9l-1.6-2.6
						c6.2-3.3,8.9-3.5,15.9-3.8c0.5,0,1,0,1.6,0c11.8,0,22.9,4.5,31.2,12.7c9,8.8,13.8,20.8,13.6,33.8c-0.1,4.9-0.9,9.8-2.4,14.5
						c0,0.1,0,0.2,0,0.3c0,1.3,1.7,1.3,2.2,1.3c1.1,0,2.4-0.2,2.5-0.2c0.4-0.1,0.7-0.3,0.8-0.7c1.8-5.7,2.8-10.9,2.9-15.2
						c0.2-14.7-5.3-28.2-15.4-38.2C116.9,28.5,104.3,23.4,90.9,23.4L90.9,23.4z"/>
				</g>
			</g>
			<g>
				<path fill="#A3A3A3" d="M106.5,121.3l1.9,2.9c-6.6,3.5-11.4,4.2-18.7,4.5c-12.7,0.4-24.6-4.2-33.5-12.9
					c-9.2-9-14.1-21.2-13.9-34.5c0.1-4.6,0.8-9.2,2.1-13.6c0-2-2.2-3.6-3.4-2.4c-1.7,5.2-2.6,10.5-2.6,16
					c-0.2,14.4,5.2,27.7,15.1,37.4c9.3,9.1,21.6,14.1,34.7,14.1c0.6,0,1.2,0,1.7,0c8-0.3,13.2-1.1,20.4-4.9l2.6,3.1l6.2-11
					L106.5,121.3z"/>
				<g>
					<linearGradient id="SVGID_2_" gradientUnits="userSpaceOnUse" x1="37.5416" y1="98.7651" x2="119.7984" y2="98.7651">
						<stop  offset="0.4946" style="stop-color:#FFFFFF"/>
						<stop  offset="0.6013" style="stop-color:#FBFBFB"/>
						<stop  offset="0.7064" style="stop-color:#EFEFEF"/>
						<stop  offset="0.8107" style="stop-color:#DBDBDB"/>
						<stop  offset="0.9141" style="stop-color:#C0C0C0"/>
						<stop  offset="1" style="stop-color:#A3A3A3"/>
					</linearGradient>
					<path fill="url(#SVGID_2_)" d="M42,64.8c1.2,0,2.4,1.3,2.4,2.8c-1.3,4.4-2,9-2.1,13.6c-0.2,13.3,4.7,25.5,13.9,34.5
						c8.5,8.4,19.8,12.9,31.9,12.9c0.5,0,1.1,0,1.6,0c7.3-0.2,12.1-1,18.7-4.5l-1.9-2.9l12.5-1.4l-6.2,11l-2.6-3.1
						c-7.2,3.8-12.4,4.6-20.4,4.9c-0.6,0-1.2,0-1.7,0c0,0,0,0,0,0c-13.1,0-25.4-5-34.7-14.1c-9.9-9.8-15.3-23.1-15.1-37.4
						c0.1-5.4,1-10.8,2.6-16C41.2,64.9,41.6,64.8,42,64.8 M119,119.9L119,119.9 M42,64.1L42,64.1c-0.6,0-1.1,0.2-1.6,0.7
						c-0.1,0.1-0.1,0.2-0.2,0.3c-1.7,5.3-2.6,10.7-2.7,16.2c-0.2,14.6,5.2,28.1,15.3,38c9.4,9.2,21.9,14.3,35.2,14.3
						c0.6,0,1.2,0,1.8,0c8-0.3,13.2-1,20.2-4.7l2.2,2.6c0.1,0.2,0.4,0.3,0.6,0.3c0,0,0,0,0.1,0c0.2,0,0.5-0.2,0.6-0.4l6.1-10.9
						c0.1-0.1,0.1-0.3,0.1-0.4c0-0.4-0.3-0.7-0.7-0.8c0,0,0,0,0,0c0,0,0,0,0,0c0,0,0,0-0.1,0l-12.5,1.4c-0.3,0-0.5,0.2-0.6,0.4
						s-0.1,0.5,0.1,0.7l1.5,2.2c-6.1,3.1-10.6,3.8-17.7,4c-0.5,0-1.1,0-1.6,0c-11.8,0-23-4.5-31.4-12.7c-9-8.8-13.9-20.9-13.7-34
						c0.1-4.5,0.8-9,2.1-13.4c0-0.1,0-0.1,0-0.2C45.1,65.8,43.6,64.1,42,64.1L42,64.1z"/>
				</g>
			</g>
		</g>
		<use xlink:href="#XMLID_298_"  overflow="visible" fill="none" stroke="#A3A3A3" stroke-miterlimit="10"/>
	</g>
	<g>
		
			<rect x="56.5" y="57" fill="#A3A3A3" stroke="#FFFFFF" stroke-linecap="round" stroke-linejoin="round" stroke-miterlimit="10" width="59.7" height="41.8"/>
		<polygon fill="#A3A3A3" stroke="#FFFFFF" stroke-linecap="round" stroke-linejoin="round" stroke-miterlimit="10" points="
			56.5,98.8 85.3,70.8 116.2,98.8 		"/>
		<polygon fill="#A3A3A3" stroke="#FFFFFF" stroke-linecap="round" stroke-linejoin="round" stroke-miterlimit="10" points="
			56.5,57 86.3,83 116.2,57 		"/>
	</g>
	<g>
		<g>
			<defs>
				<polygon id="XMLID_297_" points="128.8,116.1 90.1,116.1 90.1,67.1 121.8,67.1 128.8,74.2 				"/>
			</defs>
			<use xlink:href="#XMLID_297_"  overflow="visible" fill="#FFFFFF"/>
			<clipPath id="XMLID_4_">
				<use xlink:href="#XMLID_297_"  overflow="visible"/>
			</clipPath>
			
				<polyline clip-path="url(#XMLID_4_)" fill="none" stroke="#A3A3A3" stroke-width="0.75" stroke-linecap="round" stroke-linejoin="round" stroke-miterlimit="10" points="
				117.6,68.9 92.3,68.9 92.3,113.6 98.3,113.6 			"/>
			
				<polyline clip-path="url(#XMLID_4_)" fill="none" stroke="#A3A3A3" stroke-width="0.75" stroke-linecap="round" stroke-linejoin="round" stroke-miterlimit="10" points="
				111.2,113.6 126.6,113.6 126.6,96.8 			"/>
			
				<path clip-path="url(#XMLID_4_)" fill="#FFFFFF" stroke="#A3A3A3" stroke-width="0.75" stroke-linecap="round" stroke-linejoin="round" stroke-miterlimit="10" d="
				M118.1,59.6c1.7,3.4-0.2,9.2-1.6,12.3c-2.8,6.2-8,10.4-11.6,15.9c-4.9,7.5-6,16.2-6.5,25c-0.1,1.4-0.7,5.8,0.4,6.7
				c0.9,0.8,5-0.1,6.3-0.1c1.9-0.1,4.1-0.3,6,0.2c0.1-1.7-0.2-3.4,0.1-5c0.4-2.3,2.2-4.4,3.6-6.2c3.4-4.4,8.2-8,12.6-11.4
				c3.7-2.8,7.9-4.9,11-8.4c2.7-2.9,3.5-6.5,3.6-10.4c0.3-6.8-3.8-11-8.2-15.8"/>
			
				<use xlink:href="#XMLID_297_"  overflow="visible" fill="none" stroke="#A3A3A3" stroke-width="0.75" stroke-linecap="round" stroke-linejoin="round" stroke-miterlimit="10"/>
		</g>
		
			<polygon fill="#FFFFFF" stroke="#A3A3A3" stroke-width="0.75" stroke-linecap="round" stroke-linejoin="round" stroke-miterlimit="10" points="
			121.8,67.1 121.8,74.6 128.8,74.6 		"/>
		
			<rect x="95.3" y="80.2" fill="#A3A3A3" stroke="#A3A3A3" stroke-width="0.75" stroke-linecap="round" stroke-linejoin="round" stroke-miterlimit="10" width="30" height="4.2"/>
		
			<rect x="95.3" y="89.5" fill="#A3A3A3" stroke="#A3A3A3" stroke-width="0.75" stroke-linecap="round" stroke-linejoin="round" stroke-miterlimit="10" width="30" height="4.2"/>
	</g>
</g>
<g>
</g>
<g>
</g>
<g>
</g>
<g>
</g>
<g>
</g>
<g>
</g>
<g>
</g>
<g>
</g>
<g>
</g>
<g>
</g>
<g>
</g>
<g>
</g>
<g>
</g>
<g>
</g>
<g>
</g>
</svg>
