<svg xmlns="http://www.w3.org/2000/svg" width="21.844" height="21.844" viewBox="0 0 21.844 21.844">
  <defs>
    <style>
      .cls-1 {
        fill: #fff;
        fill-rule: evenodd;
      }
    </style>
  </defs>
  <path id="иконка" class="cls-1" d="M657.123,219.873a8.029,8.029,0,0,0-2.373,5.771,7.925,7.925,0,0,0,2.373,5.742,8.084,8.084,0,0,0,5.771,2.344,8.217,8.217,0,0,0,2.871-.5,7.465,7.465,0,0,0,2.4-1.435l0.351,0.351v1l6.211,6.211,1.875-1.875-6.211-6.211h-1l-0.351-.351a7.49,7.49,0,0,0,1.435-2.4,8.209,8.209,0,0,0,.5-2.871,8.093,8.093,0,0,0-2.343-5.771,7.938,7.938,0,0,0-5.743-2.373A8.035,8.035,0,0,0,657.123,219.873Zm9.756,1.787a5.567,5.567,0,1,1-7.969,0A5.658,5.658,0,0,1,666.879,221.66Z" transform="translate(-654.75 -217.5)"/>
</svg>
