<svg xmlns="http://www.w3.org/2000/svg" width="12" height="12" viewBox="0 0 12 12">
  <defs>
    <style>
      .cls-1 {
        fill: #bbc1c6;
        fill-rule: evenodd;
      }
    </style>
  </defs>
  <path id="иконка" class="cls-1" d="M1128.64,432.578a5.668,5.668,0,0,0-2.67-.14,3.065,3.065,0,0,0-1.63-.438,3.311,3.311,0,0,0-3.34,3.344,3.08,3.08,0,0,0,.44,1.625,5.631,5.631,0,0,0,.14,2.672,5.716,5.716,0,0,0,3.78,3.781,5.661,5.661,0,0,0,2.67.141,3.074,3.074,0,0,0,1.63.437,3.311,3.311,0,0,0,3.34-3.344,3.082,3.082,0,0,0-.44-1.625,5.632,5.632,0,0,0-.14-2.672A5.716,5.716,0,0,0,1128.64,432.578Zm-3.84,8.281a1.368,1.368,0,0,1-.67-1.14,0.65,0.65,0,0,1,.18-0.469,0.642,0.642,0,0,1,.47-0.187,1.13,1.13,0,0,1,.85.625,1.613,1.613,0,0,0,1.4.625,1.581,1.581,0,0,0,.95-0.3,0.771,0.771,0,0,0,.33-0.61,0.692,0.692,0,0,0-.14-0.422,0.85,0.85,0,0,0-.54-0.3l-1.79-.469a2.418,2.418,0,0,1-1.4-.781,1.614,1.614,0,0,1-.31-1.063,1.854,1.854,0,0,1,.89-1.641,3.471,3.471,0,0,1,1.89-.453,3.877,3.877,0,0,1,1.81.438,1.376,1.376,0,0,1,.87,1.156,0.547,0.547,0,0,1-.2.453,0.777,0.777,0,0,1-.51.172,0.993,0.993,0,0,1-.75-0.516,1.606,1.606,0,0,0-1.32-.515,1.449,1.449,0,0,0-.86.219,0.64,0.64,0,0,0-.28.578,0.565,0.565,0,0,0,.35.515,3.307,3.307,0,0,0,.73.25l1.31,0.282a2.431,2.431,0,0,1,1.46.8,1.984,1.984,0,0,1,.39,1.172,1.9,1.9,0,0,1-.72,1.532,3.467,3.467,0,0,1-2.16.625A3.768,3.768,0,0,1,1124.8,440.859Z" transform="translate(-1121 -432)"/>
</svg>
