<svg xmlns="http://www.w3.org/2000/svg" width="12" height="12" viewBox="0 0 12 12">
  <defs>
    <style>
      .cls-1 {
        fill: #bbc1c6;
        fill-rule: evenodd;
      }
    </style>
  </defs>
  <path id="иконка" class="cls-1" d="M985.406,437.594A2.019,2.019,0,0,0,984,437v-1.344A3.363,3.363,0,0,1,987.344,439H986A2.021,2.021,0,0,0,985.406,437.594Zm1.891-1.906a4.616,4.616,0,0,0-3.3-1.344V433a5.975,5.975,0,0,1,6,6h-1.344A4.571,4.571,0,0,0,987.3,435.688Zm2.516,5.843A0.637,0.637,0,0,1,990,442v2.344a0.639,0.639,0,0,1-.656.656A11.363,11.363,0,0,1,978,433.656a0.642,0.642,0,0,1,.656-0.656H981a0.641,0.641,0,0,1,.656.656,7.458,7.458,0,0,0,.375,2.375,0.657,0.657,0,0,1-.156.688l-1.469,1.469a10.243,10.243,0,0,0,4.407,4.406l1.468-1.469a0.659,0.659,0,0,1,.688-0.156,7.458,7.458,0,0,0,2.375.375A0.637,0.637,0,0,1,989.813,441.531Z" transform="translate(-978 -433)"/>
</svg>
