<svg xmlns="http://www.w3.org/2000/svg" width="18" height="18" viewBox="0 0 18 18">
  <defs>
    <style>
      .cls-1 {
        fill: #0072c6;
        fill-rule: evenodd;
      }
    </style>
  </defs>
  <path id="иконка" class="cls-1" d="M634.016,750.5l5.484,5.484h-5.484V750.5Zm-10.454-.938a1.968,1.968,0,0,0-.562,1.454v13.968a1.987,1.987,0,0,0,.562,1.43,1.925,1.925,0,0,0,1.454.586h13.968A2,2,0,0,0,641,764.984V755l-6-6h-9.984A1.968,1.968,0,0,0,623.562,749.562ZM638.984,758v2.015H625.016V758h13.968Zm-4.968,3.984V764h-9v-2.016h9Z" transform="translate(-623 -749)"/>
</svg>
