<?xml version="1.0" encoding="utf-8"?>
<!-- Generator: Adobe Illustrator 19.0.0, SVG Export Plug-In . SVG Version: 6.00 Build 0)  -->
<svg version="1.1" id="Layer_2" xmlns="http://www.w3.org/2000/svg" xmlns:xlink="http://www.w3.org/1999/xlink" x="0px" y="0px"
	 viewBox="-1024 246 510 510" style="enable-background:new -1024 246 510 510;" xml:space="preserve">
<style type="text/css">
	.st0{fill:#FFFFFF;}
	.st1{fill:#A3A3A3;}
	.st2{fill:#A3A3A3;stroke:#A3A3A3;stroke-width:4.1828;stroke-miterlimit:10;}
	.st3{fill:none;stroke:#A3A3A3;stroke-width:4.1828;stroke-miterlimit:10;}
</style>
<g>
	<g>
		<g>
			<path class="st0" d="M-583.3,438.4c0,159.2-185.7,311.2-185.7,311.2s-181.5-151.9-185.7-311.2c-2.7-103,83.1-186.6,185.7-186.6
				S-583.3,335.4-583.3,438.4z"/>
			<path class="st1" d="M-769,752.3l-1.3-1.1c-0.5-0.4-46.1-38.8-91.6-96.2c-26.7-33.7-48.2-67.3-63.9-99.9
				c-19.6-40.8-30-80-31-116.7c-1.3-48.9,17.1-95.6,51.9-131.3c35.5-36.5,85.1-57.4,135.9-57.4c103.6,0,187.8,84.7,187.8,188.8
				c0,36.6-9.8,75.9-29.2,116.7c-15.5,32.6-37,66.2-64.1,99.9c-46,57.4-92.7,95.8-93.2,96.2L-769,752.3z M-769,253.9
				c-49.7,0-98.1,20.5-132.9,56.1c-34,34.9-52,80.5-50.7,128.4c2.2,81.7,52.3,161.4,93.9,214c40.9,51.6,81.9,87.7,89.7,94.5
				c8-6.7,49.9-42.9,91.3-94.5c42.1-52.5,92.3-132.3,92.3-213.9C-585.4,336.7-667.7,253.9-769,253.9z"/>
		</g>
		<ellipse id="XMLID_36_" class="st2" cx="-771.6" cy="448.6" rx="133.6" ry="134.3"/>
		<g>
			<g>
				<ellipse id="XMLID_30_" class="st0" cx="-771.6" cy="433.9" rx="133.6" ry="134.3"/>
			</g>
			<g>
				<ellipse id="XMLID_1_" class="st3" cx="-771.6" cy="433.9" rx="133.6" ry="134.3"/>
			</g>
		</g>
	</g>
	<g>
		<path class="st1" d="M-793,422.4c0,2.4-0.7,4.2-2.1,5.5s-3.3,2.1-5.8,2.5v0.3c3.1,0.4,5.4,1.3,6.9,2.8c1.4,1.4,2.2,3.4,2.2,5.8
			c0,3.4-1.3,6.1-3.8,7.9c-2.5,1.9-6.2,2.8-11,2.8h-16.2v-36.8h16.1C-797.6,413.2-793,416.3-793,422.4z M-798.5,423
			c0-1.8-0.7-3.1-2.1-3.8s-3.5-1.1-6.3-1.1h-10.5v10.4h9.4c3.4,0,5.9-0.4,7.3-1.3C-799.2,426.3-798.5,424.9-798.5,423z
			 M-797.4,438.9c0-2-0.8-3.4-2.3-4.3s-4-1.4-7.5-1.4h-10.1v12.1h10.2C-800.6,445.3-797.4,443.2-797.4,438.9z"/>
		<path class="st1" d="M-769.1,450.7c-5.3,0-9.4-1.6-12.4-4.9c-2.9-3.3-4.4-7.9-4.4-13.9c0-6.2,1.5-10.9,4.4-14.3
			c3-3.4,7.2-5,12.7-5c1.8,0,3.5,0.2,5.3,0.6c1.8,0.4,3.2,0.8,4.2,1.3l-1.7,4.7c-1.2-0.5-2.6-0.9-4-1.2c-1.5-0.3-2.7-0.5-3.9-0.5
			c-7.5,0-11.2,4.8-11.2,14.3c0,4.5,0.9,8,2.7,10.4c1.8,2.4,4.5,3.6,8.1,3.6c3.1,0,6.2-0.7,9.4-2v4.9
			C-762.2,450-765.3,450.7-769.1,450.7z"/>
		<path class="st1" d="M-735.5,450.7c-5.4,0-9.7-1.7-12.9-5c-3.1-3.3-4.7-7.9-4.7-13.8c0-5.9,1.5-10.6,4.4-14.1s6.8-5.2,11.8-5.2
			c4.6,0,8.3,1.5,10.9,4.5c2.7,3,4,7,4,12v3.5h-25.3c0.1,4.3,1.2,7.6,3.3,9.8c2.1,2.2,5,3.4,8.7,3.4c4,0,7.9-0.8,11.7-2.5v5
			c-2,0.9-3.8,1.5-5.6,1.8C-730.9,450.5-733,450.7-735.5,450.7z M-737,417.2c-3,0-5.3,1-7.1,2.9c-1.8,1.9-2.8,4.6-3.1,8h19.2
			c0-3.5-0.8-6.2-2.3-8.1S-734.1,417.2-737,417.2z"/>
	</g>
</g>
</svg>
