<?xml version="1.0" encoding="utf-8"?>
<!-- Generator: Adobe Illustrator 19.0.0, SVG Export Plug-In . SVG Version: 6.00 Build 0)  -->
<svg version="1.1" id="Layer_2" xmlns="http://www.w3.org/2000/svg" xmlns:xlink="http://www.w3.org/1999/xlink" x="0px" y="0px"
	 viewBox="-384 146 510 510" height="510" width="510" style="enable-background:new -384 146 510 510;" xml:space="preserve">
<style type="text/css">
	.st0{fill:#FFFFFF;}
	.st1{fill:#3D8FA6;}
	.st2{fill:#3D8FA6;stroke:#3D8FA6;stroke-width:2.1038;stroke-miterlimit:10;}
	.st3{clip-path:url(#SVGID_2_);}
	.st4{fill:#FFFFFF;stroke:#3D8FA6;stroke-width:2.1038;stroke-miterlimit:10;}
	.st5{fill:#3D8FA6;stroke:#FFFFFF;stroke-width:1.0519;stroke-miterlimit:10;}
	.st6{fill:none;stroke:#3D8FA6;stroke-width:4.2076;stroke-miterlimit:10;}
</style>
<g>
	<g>
		<path class="st0" d="M53.8,332.6c0,159.2-185.7,311.2-185.7,311.2s-181.5-151.9-185.7-311.2c-2.7-103,83.1-186.6,185.7-186.6
			S53.8,229.6,53.8,332.6z"/>
		<path class="st1" d="M-131.9,646.5l-1.3-1.1c-0.5-0.4-46.1-38.8-91.6-96.2c-26.7-33.7-48.2-67.3-63.9-99.9
			c-19.6-40.8-30-80-31-116.7c-1.3-48.9,17.1-95.6,51.9-131.3c35.5-36.5,85.1-57.4,135.9-57.4c103.6,0,187.8,84.7,187.8,188.8
			c0,36.6-9.8,75.9-29.2,116.7c-15.5,32.6-37,66.2-64.1,99.9c-46,57.4-92.7,95.8-93.2,96.2L-131.9,646.5z M-131.9,148.1
			c-49.7,0-98.1,20.5-132.9,56.1c-34,34.9-52,80.5-50.7,128.4c2.2,81.7,52.3,161.4,93.9,214c40.9,51.6,81.9,87.7,89.7,94.5
			c8-6.7,49.9-42.9,91.3-94.5c42.1-52.5,92.3-132.3,92.3-213.9C51.7,230.9-30.6,148.1-131.9,148.1z"/>
	</g>
	<ellipse id="XMLID_36_" class="st2" cx="-134.5" cy="342.8" rx="133.6" ry="134.3"/>
	<g>
		<g>
			<ellipse id="XMLID_30_" class="st0" cx="-134.5" cy="328.1" rx="133.6" ry="134.3"/>
		</g>
		<g>
			<defs>
				<ellipse id="SVGID_1_" cx="-134.5" cy="328.1" rx="133.6" ry="134.3"/>
			</defs>
			<clipPath id="SVGID_2_">
				<use xlink:href="#SVGID_1_"  style="overflow:visible;"/>
			</clipPath>
			<g class="st3">
				<g>
					<ellipse class="st4" cx="-35" cy="320.2" rx="121.1" ry="113.1"/>
					<ellipse class="st4" cx="-35" cy="320.2" rx="113.4" ry="105.9"/>
					<ellipse class="st4" cx="-35" cy="320.2" rx="104.2" ry="97.4"/>
					<ellipse class="st4" cx="-35" cy="320.2" rx="96.8" ry="90.4"/>
					<ellipse class="st4" cx="-35" cy="320.2" rx="88.2" ry="82.3"/>
					<ellipse class="st4" cx="-35" cy="320.2" rx="79.5" ry="74.2"/>
					<ellipse class="st4" cx="-35" cy="320.2" rx="70.8" ry="66.1"/>
					<ellipse class="st4" cx="-35" cy="320.2" rx="56.1" ry="52.4"/>
					<ellipse class="st4" cx="-35" cy="320.2" rx="41.7" ry="39"/>
				</g>
				<g>
					<ellipse class="st4" cx="-136.3" cy="414.8" rx="87.7" ry="81.9"/>
					<ellipse class="st4" cx="-136.3" cy="414.8" rx="82.1" ry="76.7"/>
					<ellipse class="st4" cx="-136.3" cy="414.8" rx="75.5" ry="70.5"/>
					<ellipse class="st4" cx="-136.3" cy="414.8" rx="70.1" ry="65.5"/>
					<ellipse class="st4" cx="-136.3" cy="414.8" rx="63.8" ry="59.6"/>
					<ellipse class="st4" cx="-136.3" cy="414.8" rx="57.5" ry="53.7"/>
					<ellipse class="st4" cx="-136.3" cy="414.8" rx="51.2" ry="47.8"/>
					<ellipse class="st4" cx="-136.3" cy="414.8" rx="40.6" ry="37.9"/>
				</g>
				<g>
					<ellipse class="st4" cx="-255" cy="344.3" rx="39.6" ry="39.8"/>
					<ellipse class="st4" cx="-254.9" cy="344.1" rx="33.1" ry="33.3"/>
					<ellipse class="st4" cx="-254.9" cy="344.1" rx="26.4" ry="26.5"/>
					<ellipse class="st4" cx="-254.9" cy="344.1" rx="18.8" ry="18.9"/>
					<ellipse class="st4" cx="-254.9" cy="344.1" rx="12.5" ry="12.5"/>
				</g>
				<g>
					<ellipse class="st4" cx="-13" cy="309.1" rx="39.6" ry="39.8"/>
					<ellipse class="st4" cx="-12.9" cy="309" rx="33.1" ry="33.3"/>
					<ellipse class="st4" cx="-12.9" cy="309" rx="26.4" ry="26.5"/>
					<ellipse class="st4" cx="-12.9" cy="309" rx="18.8" ry="18.9"/>
					<ellipse class="st4" cx="-12.9" cy="309" rx="12.5" ry="12.5"/>
				</g>
				<g>
					<g>
						<path class="st5" d="M-140.4,280.7c-4.2,0.3-4.1,11.9-3.9,15.3c2.6-0.1,3.7-3,5.9-3.1c2.7-0.1,4.8,4.8,5.7,6.8
							c0.9-2.3-0.6-7.6-0.9-10.2c-0.3-2.7-0.5-6.8-2.1-9.1"/>
						<path class="st5" d="M-169,300.9c0,0-1,5.7,10.8,5.4c21.2-0.6,22.1-33.3,22.1-33.3s-7.6,7.4-13.3,4.8
							c-0.8-0.4-10.2,12.8-14.2,13.9"/>
						<path class="st5" d="M-180.3,300.9c0,0-1,5.6,10.8,5.4c15.3-0.3,24.4-28.7,24.4-28.7s-5.7,1.1-11.3-1.4
							c-0.8-0.4-14.4,14.5-18.4,15.7"/>
						<path class="st5" d="M-200.4,298.9c0,0,4.7,9.5,15.9,5.7c21-7.1,28.3-27.6,28.3-27.6s-2.8-6.3-3.7-6
							c-0.8,0.3-13.6,13.9-17.6,15.1"/>
						<path class="st5" d="M-217.4,296c0,0-1,5.1,10.8,5.4c11.9,0.3,22.4-3.7,28.9-11.1c10.5-12,18.4-19.9,18.4-18.2
							c0,1.7-0.8-6.8-0.8-6.8s-3.1-5.1-4-4.8c-0.8,0.3-13.6,12-33.1,23.6"/>
						<path class="st5" d="M-231,291.2c0,0-1,5.8,10.8,5.4c16.7-0.6,33.4-8.8,40.5-15.7c9.1-8.8,20.7-16.8,20.7-15.1s2.3-8,2.3-8
							s-20.1-2.6-21-2.3c-0.8,0.3-5.4,12.8-24.9,24.5"/>
						<path class="st5" d="M-246.9,286.4c0,0-0.9,7,10.8,5.4c27.8-3.7,47-16.5,54.7-22.8c4.7-3.9,26.3-12.8,26.3-11.1
							c0,1.7,0.6-6,0.6-6s-30.6,2.8-31.4,3.1c-0.8,0.3-11.3,16.2-32.6,20.2"/>
						<path class="st5" d="M-261,279.8c0,0,0.3,8.5,11.9,6.8c37.7-5.4,49.6-18.3,56.4-21.9c27.2-14.8,37.9-11.4,37.9-9.7
							c0,1.7-4-12.2-4-12.2s-11,1.7-11.9,2c-0.8,0.3-32.8,22.8-54.1,26.8"/>
						<path class="st5" d="M-271,275c0,0-0.9,7.1,10.8,5.4c37.7-5.4,59.6-17.4,66.3-21.1c27.2-14.8,41.1-8.5,41.1-6.8
							c0,1.7-4.8-10-4.8-10s-11.3-1.7-12.2-1.4c-0.8,0.3-43.6,21.6-64.8,25.6"/>
						<g>
							<path class="st1" d="M-150.6,280.2c-7.7,0-12.3-5.2-12.7-10c-0.2-2.7,1.3-6.5,2.9-10.5c1.9-4.8,3.9-9.7,2.3-11.7
								c-1.6-2.1-4.2-3.1-7.7-3.1c-5.6,0-12.2,2.7-14.3,3.6c-1.2,0.5-3.2,1.5-6,2.9c-15.3,7.7-51.3,25.8-88.2,27c-0.4,0-0.8,0-1.2,0
								c-4.4,0-7.1-0.8-7.2-2.2c-0.1-1.7,3.8-2.4,6.1-2.6c8.2-0.8,34.5-6.3,60.8-15.9c7.5-2.7,14.7-6.6,21.7-10.3
								c10.8-5.8,21.1-11.2,30.3-11.2c1.9,0,3.8,0.2,5.5,0.7c4.1,1.1,6.9,3.2,8.2,6.3c3.2,7.3-2.6,18-5.4,23.1l-0.2,0.4
								c-1.1,2.1-1.2,4.1-0.3,5.7c1,1.7,3.1,2.6,5.8,2.6c2.3,0,5-0.6,8-1.9c6.2-2.6,9.9-3.9,11-3.9c0.4,0,0.6,0.2,0.7,0.4
								c0.1,0.2,0.1,0.4,0,0.5l-0.9,3.6l-0.2,0.1c0,0-0.7,0.3-11.4,4.9C-145.6,279.7-148.1,280.2-150.6,280.2L-150.6,280.2z"/>
							<path class="st0" d="M-163.9,236.7c1.8,0,3.6,0.2,5.3,0.7c16.1,4.3,5.7,22.8,2.3,29c-2.5,4.6-0.3,9.1,5.9,9.1
								c2.2,0,5-0.6,8.2-1.9c7.8-3.3,10.2-3.9,10.8-3.9c0.4,0,0.2,0.2,0.2,0.2l-0.8,3.4c0,0-0.6,0.3-11.3,4.8
								c-2.6,1.1-5.1,1.6-7.4,1.6c-7,0-11.8-4.6-12.2-9.6c-0.5-5.8,8.2-18.5,5.1-22.5c-1.9-2.5-4.9-3.3-8.1-3.3
								c-5.4,0-11.4,2.3-14.5,3.6c-7.6,3.1-50.4,28.5-94,29.9c-0.4,0-0.8,0-1.2,0c-8.2,0-9.1-2.9-1-3.7c8.5-0.9,35.1-6.5,60.9-15.9
								C-196.3,251.1-178.9,236.7-163.9,236.7 M-163.9,235.7L-163.9,235.7c-9.4,0-19.7,5.5-30.6,11.3c-7,3.7-14.1,7.5-21.6,10.3
								c-26.2,9.5-52.4,15.1-60.6,15.9c-4.4,0.4-6.6,1.5-6.5,3.1c0.1,2.3,4.9,2.7,7.7,2.7c0.4,0,0.8,0,1.3,0
								c37-1.2,73-19.3,88.4-27.1c2.8-1.4,4.8-2.4,6-2.9c2.1-0.9,8.6-3.5,14.1-3.5c3.3,0,5.8,1,7.3,2.9c1.4,1.8-0.6,6.8-2.4,11.2
								c-1.6,4.1-3.2,7.9-2.9,10.7c0.4,5.1,5.2,10.5,13.2,10.5c2.5,0,5.1-0.6,7.8-1.7c10.5-4.4,11.3-4.8,11.4-4.9l0.4-0.2l0.1-0.5
								l0.8-3.3c0.1-0.3,0.1-0.6,0-0.9c-0.1-0.2-0.4-0.7-1.2-0.7c-0.4,0-1.8,0-11.2,4c-2.9,1.2-5.5,1.9-7.8,1.9
								c-2.6,0-4.5-0.8-5.4-2.3c-0.8-1.4-0.7-3.3,0.3-5.2l0.2-0.4c2.8-5.2,8.7-16,5.4-23.5c-1.4-3.2-4.3-5.4-8.6-6.6
								C-160,235.9-161.9,235.7-163.9,235.7L-163.9,235.7L-163.9,235.7z"/>
						</g>
					</g>
					<g>
						<path class="st5" d="M-124.9,280.7c4.2,0.3,4.1,11.9,3.9,15.3c-2.6-0.1-3.7-3-5.9-3.1c-2.7-0.1-4.8,4.8-5.7,6.8
							c-0.9-2.3,0.6-7.6,0.9-10.2c0.3-2.7,0.5-6.8,2.1-9.1"/>
						<path class="st5" d="M-96.3,300.9c0,0,1,5.7-10.8,5.4c-21.2-0.6-22.1-33.3-22.1-33.3s7.6,7.4,13.3,4.8
							c0.8-0.4,10.2,12.8,14.2,13.9"/>
						<path class="st5" d="M-85,300.9c0,0,1,5.6-10.8,5.4c-15.3-0.3-24.4-28.7-24.4-28.7s5.7,1.1,11.3-1.4
							c0.8-0.4,14.4,14.5,18.4,15.7"/>
						<path class="st5" d="M-64.9,298.9c0,0-4.7,9.5-15.9,5.7c-21-7.1-28.3-27.6-28.3-27.6s2.8-6.3,3.7-6
							c0.8,0.3,13.6,13.9,17.6,15.1"/>
						<path class="st5" d="M-47.9,296c0,0,1,5.1-10.8,5.4c-11.9,0.3-22.4-3.7-28.9-11.1c-10.5-12-18.4-19.9-18.4-18.2
							c0,1.7,0.8-6.8,0.8-6.8s3.1-5.1,4-4.8c0.8,0.3,13.6,12,33.1,23.6"/>
						<path class="st5" d="M-34.3,291.2c0,0,1,5.8-10.8,5.4c-16.7-0.6-33.4-8.8-40.5-15.7c-9.1-8.8-20.7-16.8-20.7-15.1
							s-2.3-8-2.3-8s20.1-2.6,21-2.3c0.8,0.3,5.4,12.8,24.9,24.5"/>
						<path class="st5" d="M-18.5,286.4c0,0,0.9,7-10.8,5.4c-27.8-3.7-47-16.5-54.7-22.8c-4.7-3.9-26.3-12.8-26.3-11.1
							c0,1.7-0.6-6-0.6-6s30.6,2.8,31.4,3.1s11.3,16.2,32.6,20.2"/>
						<path class="st5" d="M-4.3,279.8c0,0-0.3,8.5-11.9,6.8c-37.7-5.4-49.6-18.3-56.4-21.9c-27.2-14.8-37.9-11.4-37.9-9.7
							c0,1.7,4-12.2,4-12.2s11,1.7,11.9,2c0.8,0.3,32.8,22.8,54.1,26.8"/>
						<path class="st5" d="M5.6,275c0,0,0.9,7.1-10.8,5.4c-37.7-5.4-59.6-17.4-66.3-21.1c-27.2-14.8-41.1-8.5-41.1-6.8
							c0,1.7,4.8-10,4.8-10s11.3-1.7,12.2-1.4c0.8,0.3,43.6,21.6,64.8,25.6"/>
						<g>
							<path class="st1" d="M-114.7,280.2c-2.5,0-5-0.6-7.6-1.6c-10.7-4.5-11.3-4.8-11.4-4.9l-0.2-0.1l-0.9-3.6
								c-0.1-0.2-0.1-0.4,0-0.5c0.1-0.2,0.3-0.4,0.7-0.4c1.1,0,4.8,1.3,11,3.9c3,1.3,5.7,1.9,8,1.9c2.8,0,4.8-0.9,5.8-2.6
								c0.9-1.5,0.8-3.6-0.3-5.7l-0.2-0.4c-2.8-5.1-8.6-15.8-5.4-23.1c1.3-3.1,4.1-5.2,8.2-6.3c1.7-0.5,3.6-0.7,5.5-0.7
								c9.3,0,19.5,5.4,30.3,11.2c7,3.7,14.2,7.5,21.7,10.3c26.2,9.6,52.5,15.1,60.8,15.9c2.3,0.2,6.2,0.9,6.1,2.6
								c-0.1,1.4-2.7,2.2-7.2,2.2c-0.4,0-0.8,0-1.2,0c-36.9-1.2-72.8-19.3-88.2-27c-2.8-1.4-4.9-2.4-6-2.9
								c-2.2-0.9-8.7-3.6-14.3-3.6c-3.5,0-6.1,1-7.7,3.1c-1.6,2,0.4,6.9,2.3,11.7c1.6,4,3.1,7.8,2.9,10.5
								C-102.5,275-107.1,280.2-114.7,280.2z"/>
							<path class="st0" d="M-101.5,236.7c15,0,32.4,14.4,51.9,21.5c25.8,9.4,52.4,15.1,60.9,15.9c8.1,0.8,7.1,3.7-1,3.7
								c-0.4,0-0.8,0-1.2,0c-43.6-1.4-86.4-26.8-94-29.9c-3.1-1.3-9.1-3.6-14.5-3.6c-3.2,0-6.2,0.9-8.1,3.3
								c-3.1,4,5.6,16.6,5.1,22.5c-0.4,4.9-5.2,9.6-12.2,9.6c-2.3,0-4.7-0.5-7.4-1.6c-10.8-4.6-11.3-4.8-11.3-4.8l-0.8-3.4
								c0,0-0.1-0.2,0.2-0.2c0.7,0,3,0.6,10.8,3.9c3.2,1.4,6,1.9,8.2,1.9c6.2,0,8.4-4.4,5.9-9.1c-3.4-6.3-13.9-24.8,2.3-29
								C-105.1,236.9-103.3,236.7-101.5,236.7 M-101.5,235.7c-2,0-3.8,0.2-5.6,0.7c-4.3,1.1-7.2,3.4-8.6,6.6
								c-3.3,7.6,2.6,18.4,5.4,23.5l0.2,0.4c1,1.9,1.2,3.8,0.3,5.2c-0.9,1.5-2.8,2.3-5.4,2.3c-2.3,0-4.9-0.6-7.8-1.9
								c-9.4-4-10.8-4-11.2-4c-0.8,0-1.1,0.5-1.2,0.7c-0.1,0.3-0.1,0.6,0,0.9l0.8,3.3l0.1,0.5l0.4,0.2c0.1,0,0.9,0.4,11.4,4.9
								c2.6,1.1,5.2,1.7,7.8,1.7c8,0,12.8-5.4,13.2-10.5c0.2-2.8-1.3-6.7-2.9-10.7c-1.8-4.4-3.8-9.4-2.4-11.2c1.5-1.9,4-2.9,7.3-2.9
								c5.5,0,12,2.7,14.1,3.5c1.2,0.5,3.2,1.5,6,2.9c15.4,7.7,51.4,25.8,88.4,27.1c0.4,0,0.9,0,1.3,0c2.8,0,7.6-0.3,7.7-2.7
								c0.1-1.6-2.1-2.7-6.5-3.1c-8.2-0.8-34.4-6.3-60.6-15.9c-7.5-2.7-14.7-6.6-21.6-10.3C-81.8,241.1-92,235.7-101.5,235.7
								L-101.5,235.7z"/>
						</g>
					</g>
					<g>
						<g>
							<path class="st1" d="M-134.7,537.2c-0.7,0-1.3-0.3-1.8-0.7c-0.5-0.5-0.7-1.1-0.7-1.8l0.8-305.8l9-5.2l-4.8,311
								c0,1.3-1,2.4-2.3,2.5C-134.6,537.2-134.7,537.2-134.7,537.2z"/>
							<path class="st0" d="M-127.9,224.6l-4.8,310.1c0,1-0.8,1.9-1.9,2h-0.1c-1.1,0-2-0.9-2-2l0.8-305.5L-127.9,224.6
								 M-126.9,222.8l-1.6,0.9l-7.9,4.6l-0.5,0.3v0.6l-0.8,305.5c0,0.8,0.3,1.6,0.9,2.2c0.6,0.6,1.3,0.9,2.2,0.9c0.1,0,0.1,0,0.2,0
								c1.6-0.1,2.8-1.4,2.8-3l4.8-310.1L-126.9,222.8L-126.9,222.8z"/>
						</g>
						<g>
							<path class="st1" d="M-137.5,368.8c-8.2-2.8-18.4-6.2-25.8-9.1c-4.3-1.7-9.3-3.7-14.2-6.2c-2-1.1-4.4-2.4-6.8-4.2
								c-1.1-0.8-2.3-1.8-3.5-3.2s-2.5-3.3-3.2-6.1c-0.1-0.3-0.2-0.9-0.2-1.4V338v-0.5v-0.6c0-0.3,0-0.6,0.1-0.9
								c0.1-1,0.3-2,0.7-3.1c0.5-1.6,1.4-3.2,2.5-4.7c2.8-3.8,7-6,10.9-8.1c1.2-0.6,2.5-1.3,3.6-2c1.4-0.8,2.9-1.5,4.3-2.2
								c1.7-0.8,3.4-1.6,5-2.6c3.1-2,5.1-3,8.2-3c0.8,0,1.8,0.1,2.8,0.2c3.5,0.5,7.3,1,11,1.8l0.7,0.2l0.1,0.7
								c0.3,1.9,0.4,7.4-0.9,9.4c-1.4,2.1-4.7,3.2-7.2,3.6c-0.4,0.1-0.7,0.1-1,0.2c-0.8,0.1-1.7,0.2-2.5,0.3c-1.9,0.2-3.7,0.4-5.2,1
								c-1.9,0.8-3.7,1.9-5.5,3c-1.9,1.2-3.9,2.4-6,3.3c-0.5,0.2-1.1,0.4-1.7,0.6c-1.7,0.6-3.3,1.1-4.3,2.4c0.1,0.1,0.3,0.2,0.4,0.4
								c1.1,0.9,2.7,1.9,4.6,3c3.2,1.8,7.1,3.6,12.5,5.8c3.4,1.4,7.8,2.8,12,4.2c3.3,1.1,6.8,2.2,9.8,3.3l0.7,0.3l0.3,15.6
								L-137.5,368.8z"/>
							<path class="st0" d="M-156.1,311.5c0.8,0,1.7,0.1,2.7,0.2c3.7,0.5,7.3,1,10.9,1.8c0.3,1.9,0.3,7-0.7,8.6
								c-1.2,1.8-4.2,2.7-6.4,3.2c-0.4,0.1-0.7,0.1-1,0.2c-2.7,0.4-5.6,0.3-8,1.4c-4,1.7-7.5,4.7-11.5,6.3c-2.5,1-5.5,1.5-6.9,4.2
								c0.3,0.3,0.7,0.7,1.1,1.1c1.3,1,3,2.1,4.8,3.1c3.7,2.1,8,4,12.6,5.9c6.1,2.5,14.9,5,21.9,7.5l0.3,13.2
								c-8.5-2.9-19-6.4-26.7-9.4c-4.9-1.9-9.5-3.8-14-6.1c-2.3-1.2-4.5-2.4-6.7-4.1c-1.1-0.9-2.2-1.8-3.4-3.1c-1.1-1.3-2.3-3-3-5.6
								c-0.1-0.3-0.1-0.8-0.2-1.2v-0.6v-0.4v-0.2v-0.4c0-0.3,0-0.5,0.1-0.8c0.1-1,0.3-2,0.6-2.9c0.6-1.8,1.4-3.2,2.3-4.4
								c3.5-4.7,9.3-6.9,14.2-9.8c3-1.8,6.4-2.8,9.3-4.8C-160.7,312.3-158.9,311.5-156.1,311.5 M-177.4,336.7
								C-177.4,336.7-177.4,336.6-177.4,336.7C-177.4,336.6-177.4,336.7-177.4,336.7 M-177.2,337.6L-177.2,337.6L-177.2,337.6
								L-177.2,337.6L-177.2,337.6L-177.2,337.6 M-156.1,309.3c-3.4,0-5.6,1.1-8.8,3.1c-1.5,1-3.1,1.7-4.8,2.5
								c-1.5,0.7-3,1.4-4.4,2.2c-1.2,0.7-2.3,1.3-3.6,2c-4.1,2.2-8.3,4.4-11.3,8.4c-1.2,1.7-2.1,3.3-2.6,5.1
								c-0.4,1.1-0.6,2.3-0.7,3.4c0,0.3-0.1,0.6-0.1,0.9v0.4v0.2l0,0l0,0v0.4v0.1v0.1v0.6c0.1,0.6,0.2,1.2,0.3,1.6
								c0.7,3,2.1,5,3.4,6.5c1.3,1.5,2.6,2.6,3.7,3.4c2.5,1.9,5,3.2,7,4.3c4.9,2.5,9.9,4.6,14.3,6.2c7.5,2.8,17.7,6.3,25.8,9.1
								l0.9,0.3l3,1l-0.1-3.2l-0.3-13.2v-1.5l-1.4-0.5c-3.1-1.1-6.5-2.3-9.9-3.3c-4.2-1.4-8.6-2.8-11.9-4.2
								c-5.3-2.2-9.2-4.1-12.4-5.8c-1.5-0.9-2.9-1.7-3.9-2.5c0.7-0.5,1.7-0.9,2.9-1.3c0.6-0.2,1.1-0.4,1.7-0.6
								c2.2-0.9,4.2-2.2,6.2-3.4c1.8-1.1,3.5-2.2,5.3-3c1.4-0.6,3.1-0.8,4.9-0.9c0.8-0.1,1.7-0.2,2.6-0.3c0.3,0,0.7-0.1,1.1-0.2
								c3.9-0.8,6.6-2.1,7.9-4.1c1.6-2.5,1.3-8.7,1.1-10.1l-0.2-1.5l-1.5-0.3c-3.8-0.8-7.6-1.3-11.1-1.8
								C-154.2,309.3-155.2,309.3-156.1,309.3L-156.1,309.3z"/>
						</g>
						<g>
							<path class="st1" d="M-137.4,510.2c-0.8-0.8-1.6-1.7-2.3-2.7c-0.6-0.7-1.2-1.5-1.9-2.2c-0.8-0.9-1.6-1.7-2.2-2.5
								c-0.3-0.4-0.7-1-1-1.5l-0.5-0.7c-0.2-0.4-0.4-0.8-0.5-1.2c-0.7-2.2,0.4-4.3,0.8-4.9c0.8-1.3,1.7-2.3,2.6-3.1
								c2.5-2.3,5.2-4.2,7.8-6c1.3-0.9,2.7-1.9,4-2.9c1.8-1.3,3.9-3,5.6-4.8c1.9-2,2.9-3.9,3-5.4c0-0.3-0.1-0.8-0.9-1.5
								c-0.7-0.6-1.7-1.2-3-1.8c-2.3-1.1-4.8-1.9-7.5-2.8l-1.1-0.4c-1.6-0.5-3.2-1.1-4.9-1.7l-1.4-0.5l8.9-2.9l0.8,0.3
								c2.5,0.9,5.1,1.9,7.7,3.1c1.3,0.6,2.7,1.4,4.1,2.7c0.8,0.7,1.4,1.5,1.9,2.4c0.5,1,0.8,2.3,0.7,3.4c-0.1,1.6-0.7,3.4-1.7,5
								c-0.8,1.2-1.7,2.4-2.9,3.6c-2.1,2.1-4.4,3.8-6.4,5.2c-1.4,1-2.9,2-4.3,2.9c-2.7,1.8-5.3,3.5-7.5,5.4c-1.8,1.6-2.6,3-2.3,3.6
								c0,0.1,0.1,0.3,0.2,0.4l0.4,0.6c0.3,0.4,0.5,0.8,0.8,1.2c0.5,0.7,1.1,1.5,1.9,2.3c0.5,0.6,1.1,1.2,1.7,1.8l0.1,0.1l0.6,6.6
								L-137.4,510.2z"/>
							<path class="st0" d="M-132.1,461.2c2.8,1,5.5,2,8.2,3.3c1.4,0.7,2.7,1.5,4,2.6c0.6,0.6,1.3,1.3,1.7,2.2
								c0.5,0.9,0.7,2,0.6,3.1c-0.1,1.7-0.8,3.4-1.6,4.7c-0.8,1.3-1.8,2.5-2.8,3.5c-2,2-4.2,3.6-6.3,5.1c-4.2,3-8.5,5.4-11.8,8.3
								c-1.6,1.4-2.9,3.1-2.5,4.2c0,0.1,0.1,0.3,0.2,0.4l0.4,0.7c0.3,0.4,0.5,0.8,0.8,1.2c0.6,0.8,1.2,1.6,1.9,2.3
								c0.6,0.6,1.1,1.2,1.7,1.8l0.4,5c-1.5-1.4-2.7-3.2-4.2-4.9c-0.7-0.8-1.5-1.6-2.1-2.5c-0.3-0.4-0.7-0.9-1-1.4l-0.5-0.7
								c-0.2-0.3-0.4-0.7-0.5-1.1c-0.5-1.6,0-3.3,0.7-4.5s1.6-2.1,2.5-3c3.6-3.4,7.8-5.9,11.8-8.9c2-1.5,4-3.1,5.7-4.8
								c1.7-1.8,3.1-3.8,3.1-5.8c0-0.6-0.3-1.2-1.1-1.9c-0.8-0.7-1.9-1.3-3.1-1.9c-2.4-1.1-5.1-2-7.8-2.9c-1.9-0.6-3.8-1.2-5.7-2
								L-132.1,461.2 M-132,460.1l-0.3,0.1l-7.2,2.4l-2.9,1l2.9,1c1.7,0.6,3.3,1.1,4.9,1.7l0.9,0.3l0.3,0.1c2.7,0.9,5.2,1.7,7.5,2.8
								c1.3,0.6,2.2,1.2,2.9,1.7c0.5,0.4,0.8,0.8,0.7,1.1c0,1.4-1,3.1-2.8,5.1c-1.7,1.8-3.8,3.4-5.6,4.7c-1.3,1-2.7,2-4,2.9
								c-2.7,1.9-5.4,3.8-7.9,6.1c-0.9,0.8-1.9,1.9-2.7,3.2c-0.4,0.6-1.6,2.9-0.8,5.3c0.1,0.4,0.3,0.8,0.6,1.3l0.5,0.8
								c0.4,0.5,0.7,1.1,1.1,1.5c0.6,0.8,1.4,1.7,2.2,2.6c0.7,0.7,1.3,1.5,1.9,2.2c0.7,0.9,1.5,1.9,2.4,2.7l2,1.9l-0.2-2.7l-0.4-5
								v-0.4l-0.3-0.3c-0.6-0.6-1.2-1.2-1.7-1.8c-0.7-0.8-1.3-1.5-1.8-2.3c-0.3-0.4-0.5-0.7-0.8-1.2l-0.4-0.6
								c-0.1-0.1-0.1-0.2-0.1-0.2V498v-0.1c-0.1-0.3,0.4-1.5,2.2-3c2.1-1.9,4.7-3.6,7.4-5.4c1.4-0.9,2.8-1.9,4.3-2.9
								c2-1.4,4.3-3.1,6.5-5.2c1.2-1.2,2.2-2.4,3-3.7c1-1.7,1.7-3.5,1.8-5.2c0.1-1.2-0.2-2.5-0.8-3.7c-0.5-0.9-1.1-1.7-2-2.5
								c-1.3-1.2-2.6-2-4.3-2.8c-2.6-1.3-5.2-2.2-7.7-3.2l-0.6-0.2L-132,460.1L-132,460.1z"/>
						</g>
						<g>
							<path class="st1" d="M-139.5,464.1c-0.9-0.3-1.8-0.7-2.8-1.1c-3.1-1.3-6-2.6-8.8-5.1c-1.7-1.5-2.8-3.3-3.4-5.2
								c-0.7-2.4-0.7-4.7,0.2-6.8c1-2.3,2.7-3.8,4-4.9c1.3-1,2.8-1.9,4.6-2.8c4.8-2.3,9.7-3.9,14.4-5.4c1.4-0.5,2.9-0.9,4.3-1.4
								c3.3-1.1,6.2-2.1,8.6-3.4c1.1-0.5,2-1.3,2.3-1.6c0-0.2-0.1-0.5-0.3-0.8c-0.4-0.7-1.3-1.4-2.4-2.1c-1-0.6-2.3-1.2-3.9-1.9
								c-3.1-1.2-6.4-2-9.2-2.7c-2.6-0.6-5.2-1.2-7.6-1.7l-1.3-0.3l10.9-6.2l0.2,0.1c3.2,0.9,6.7,1.9,10.1,3.3
								c1.5,0.6,3.3,1.4,5.1,2.6c1.5,1,3.4,2.4,4.8,4.8c0.7,1.2,1.2,2.6,1.3,3.9l0.1,0.8c0,0,0,0.3,0,0.6v0.3c0,0.3-0.1,0.6-0.1,0.9
								c-0.2,0.9-0.5,1.7-1.1,2.5c-0.9,1.3-1.9,2.1-2.8,2.7c-0.8,0.5-1.6,1-2.7,1.5c-3.2,1.5-6.3,2.5-9.3,3.4l-0.5,0.2
								c-1.4,0.4-2.8,0.8-4.2,1.2c-4.9,1.4-9.6,2.8-13.8,4.7c-2.9,1.3-5.1,2.9-5.6,4.2c-0.3,0.6-0.3,1.5-0.1,2.4
								c0.2,0.8,0.8,1.7,1.6,2.5c1.1,1.1,4.1,2.2,6.5,3c1.2,0.4,2.3,0.8,3.1,1.2c0.5,0.2,0.6,0.9,0.7,2.6c0,0.6,0.1,1.4,0.2,1.7
								l1,0.4l-3.9,1.8L-139.5,464.1z"/>
							<path class="st0" d="M-129.9,411.6c3.3,0.9,6.7,1.9,10,3.3c1.7,0.7,3.4,1.5,5,2.6s3.4,2.4,4.7,4.6c0.6,1.1,1.1,2.4,1.3,3.7
								v0.5v0.2v0.5l0,0v0.3c0,0.3-0.1,0.6-0.1,0.8c-0.2,1-0.6,1.7-1,2.3c-0.8,1.2-1.8,2-2.6,2.6c-0.9,0.6-1.7,1.1-2.6,1.5
								c-3.4,1.6-6.6,2.6-9.8,3.5c-6.3,1.9-12.6,3.5-18,5.9c-2.6,1.2-5.2,2.9-5.9,4.5c-0.4,0.7-0.4,1.8-0.1,2.7
								c0.3,0.9,0.9,1.9,1.8,2.7c1.8,1.7,7.1,3.1,9.7,4.3c0.5,0.2,0.2,4.1,0.7,4.3l-2.6,1.2c-0.9-0.3-1.8-0.7-2.8-1.1
								c-2.9-1.2-5.9-2.5-8.6-5c-1.3-1.2-2.6-2.9-3.3-4.9c-0.6-2-0.7-4.3,0.2-6.4s2.4-3.5,3.8-4.7c1.5-1.1,3-2,4.5-2.8
								c6.1-3,12.5-4.7,18.6-6.7c3-1,6.1-2.1,8.7-3.4c1.2-0.6,2.4-1.5,2.6-1.9l0,0v-0.1c-0.1-0.3-0.2-0.6-0.4-1
								c-0.5-0.7-1.4-1.5-2.6-2.2s-2.6-1.3-4-1.9c-2.9-1.1-6.1-2-9.3-2.7c-2.5-0.6-5.1-1.2-7.6-1.7L-129.9,411.6 M-130,410.4
								l-0.4,0.2l-9.5,5.4l-2.4,1.4l2.7,0.6c2.4,0.5,5,1.1,7.6,1.7c2.8,0.7,6.1,1.5,9.1,2.7c1.6,0.6,2.8,1.2,3.8,1.8
								c1.2,0.7,2,1.5,2.2,1.9c0.1,0.1,0.1,0.2,0.2,0.3c-0.4,0.3-1.1,0.8-1.9,1.3c-2.4,1.3-5.3,2.3-8.6,3.3
								c-1.4,0.5-2.8,0.9-4.3,1.4c-4.8,1.5-9.7,3.1-14.5,5.4c-1.9,0.9-3.4,1.8-4.7,2.9c-1.4,1.1-3.1,2.6-4.2,5.1
								c-0.9,2.2-1,4.6-0.3,7.2c0.6,2,1.8,3.8,3.6,5.4c2.8,2.5,5.8,3.9,8.9,5.2c0.9,0.4,1.8,0.7,2.8,1.1l0.4,0.1l0.4-0.2l2.6-1.2
								l2.2-1l-1.8-0.7c-0.1-0.4-0.1-1-0.1-1.4c-0.1-1.7-0.2-2.7-1-3c-0.8-0.4-1.9-0.8-3.1-1.2c-2.3-0.8-5.3-1.9-6.3-2.9
								c-0.8-0.7-1.3-1.5-1.5-2.3s-0.1-1.6,0-2l0,0l0,0c0.5-1.2,2.6-2.7,5.4-4c4.2-1.9,8.8-3.2,13.7-4.7c1.4-0.4,2.8-0.8,4.2-1.2
								l0.5-0.2c3-0.9,6.1-1.9,9.4-3.4c1.1-0.5,1.9-1,2.7-1.6c0.9-0.7,2-1.5,2.9-2.9c0.6-0.8,0.9-1.7,1.1-2.7c0.1-0.3,0.1-0.7,0.1-1
								V427c0.1-0.3,0-0.6,0-0.7v-0.2v-0.5c-0.2-1.4-0.7-2.9-1.4-4.1c-1.5-2.4-3.5-3.9-5-4.9c-1.9-1.2-3.7-2-5.2-2.7
								C-123.2,412.5-126.6,411.4-130,410.4L-130,410.4L-130,410.4z"/>
						</g>
						<g>
							<path class="st1" d="M-136.7,417.9c-1.2-0.2-2.6-0.5-4.1-0.8c-3.7-0.8-8-1.6-10.9-2.4h-0.2c-3.3-0.9-6.8-1.8-10.5-3.8
								c-1.2-0.7-2.1-1.3-2.9-2c-1.3-1.2-2.2-2.4-2.7-3.8c-0.2-0.4-0.3-0.8-0.4-1.5c-0.1-0.3-0.1-0.7-0.1-0.8v-0.5
								c0-0.5,0-0.6,0-0.7v-0.1c0-0.5,0.1-0.9,0.2-1.2c0.1-0.3,0.2-0.7,0.3-1s0.3-0.6,0.4-0.8c0.6-1,1.3-1.6,1.8-2.1
								c0.5-0.4,1-0.8,1.6-1.2c2.1-1.3,3.9-1.9,5.5-2.6c1.5-0.6,3.1-1.1,5.1-1.7c3.4-1,6.8-1.8,10-2.6c2.6-0.6,5.1-1.2,7.6-1.8
								c4-0.9,7.8-1.8,11.6-2.8c3.7-0.9,6.5-1.8,9.1-2.6c1.3-0.4,2.8-0.8,4.2-1.1c0.6-0.2,1.4-0.3,1.9-0.5c-1.5-1-3.6-2-6.4-3.2
								c-3.2-1.4-5.8-2.1-8.6-2.9c-1.8-0.5-3.7-1.1-5.9-1.8l-0.4-0.1l0.1-14.6l0.7,0.3c0.7,0.2,0.9,0.6,1.2,0.9
								c0.2,0.2,0.3,0.4,0.7,0.6c5.2,2,11.1,4.2,17,7l0.2,0.1c2.9,1.4,5.8,2.8,9,5.2c0.8,0.6,1.7,1.3,2.6,2.4
								c0.9,1.1,2.1,2.6,2.4,5.3c0,0.3,0.1,0.7,0,1.1v0.5c0,0.3-0.1,0.5-0.1,0.6l0,0l-0.1,0.4c-0.1,0.4-0.2,0.8-0.3,1.2
								c-0.3,0.7-0.5,1-0.7,1.4l-0.2,0.3c-0.2,0.4-0.5,0.7-0.7,0.9l-0.1,0.2c-1.1,1.3-2.1,1.9-3.1,2.6c-3.5,2.1-6.7,3.1-9.7,4
								l-0.6,0.2c-3.6,1.1-7.1,1.9-9.8,2.5c-4,0.9-8,1.7-12,2.5c-2.5,0.5-5,1-7.5,1.6c-3.1,0.7-6.3,1.4-9.6,2.2
								c-1.7,0.5-3.2,0.9-4.5,1.3c-0.9,0.3-1.8,0.6-2.5,0.9c0.1,0,0.1,0.1,0.2,0.1c2.4,1.4,5.8,2.5,8.4,3.2c1.7,0.5,4.4,0.9,6.9,1.2
								c2.3,0.3,4.4,0.6,6,1l0.4,0.1v9.7L-136.7,417.9z"/>
							<path class="st0" d="M-129.8,357.5c1,0.4,0.8,1,1.9,1.4c5.5,2.1,11.2,4.3,17,7c2.9,1.4,5.9,2.8,9,5.2
								c0.8,0.6,1.6,1.3,2.5,2.3c0.8,1,2,2.4,2.3,5c0,0.3,0.1,0.6,0,1v0.5c-0.1,0.5-0.1,0.6-0.1,0.6l0,0c0,0,0,0,0,0.1l-0.1,0.3
								c-0.1,0.3-0.2,0.7-0.3,1.1c-0.3,0.8-0.5,1.1-0.8,1.6c-0.3,0.4-0.5,0.7-0.8,1.1c-1.1,1.2-2.1,1.9-3,2.5
								c-3.7,2.2-6.9,3.1-10.2,4.1c-3.3,1-6.5,1.7-9.8,2.5c-6.5,1.5-13,2.7-19.5,4.1c-3.2,0.7-6.5,1.4-9.6,2.2
								c-1.6,0.4-3.1,0.9-4.6,1.3c-1.2,0.4-2.4,0.9-3.3,1.3c0.3,0.2,0.6,0.4,0.9,0.6c2.3,1.3,5.4,2.4,8.5,3.3
								c3.3,1,9.5,1.4,12.9,2.2v8.7c-4-0.9-10.9-2.2-15-3.2c-3.4-0.9-6.8-1.8-10.5-3.8c-0.9-0.5-1.9-1.1-2.8-2c-0.9-0.8-2-2-2.6-3.6
								c-0.2-0.4-0.3-0.8-0.4-1.4c-0.1-0.2-0.1-0.6-0.1-0.8v-0.3v-0.2c0-0.7,0-0.5,0-0.8c0-0.4,0.1-0.8,0.2-1.1
								c0.1-0.3,0.2-0.6,0.3-1c0.1-0.3,0.3-0.5,0.4-0.8c0.6-0.9,1.2-1.5,1.7-2s1.1-0.8,1.5-1.1c1.9-1.2,3.7-1.9,5.4-2.5
								s3.4-1.2,5.1-1.7c3.3-1,6.7-1.8,9.9-2.6c6.6-1.6,13-3,19.3-4.6c3.1-0.8,6.2-1.6,9.1-2.6c2.9-0.9,7.4-1.7,7-2
								c-1.9-1.3-4.6-2.6-7.2-3.8c-5.3-2.3-9.1-2.9-14.5-4.8L-129.8,357.5 M-130.8,356v1.5l-0.1,13.5v0.8l0.7,0.2
								c2.2,0.8,4.1,1.3,6,1.8c2.7,0.8,5.3,1.5,8.5,2.9c2.2,0.9,3.9,1.8,5.2,2.5c-0.2,0.1-0.5,0.1-0.7,0.2c-1.4,0.3-3,0.7-4.2,1.1
								c-2.5,0.8-5.4,1.6-9,2.6c-3.8,1-7.6,1.9-11.6,2.8c-2.5,0.6-5.1,1.2-7.6,1.8c-3.7,0.9-6.8,1.7-10,2.6c-2,0.6-3.6,1.1-5.1,1.7
								c-1.6,0.6-3.5,1.3-5.6,2.6c-0.6,0.4-1.2,0.8-1.7,1.2c-0.6,0.5-1.3,1.2-1.9,2.2c-0.1,0.2-0.3,0.5-0.5,0.9l0,0l0,0
								c-0.1,0.3-0.3,0.7-0.4,1.1c-0.1,0.4-0.2,0.8-0.2,1.3l0,0l0,0c0,0.1,0,0.1,0,0.1c0,0.2,0,0.3,0,0.8l0,0l0,0v0.2v0.3
								c0,0.2,0.1,0.6,0.1,0.9c0.1,0.7,0.3,1.1,0.5,1.6c0.6,1.5,1.5,2.8,2.9,4c0.9,0.8,1.8,1.4,3,2.1c3.7,2,7.2,2.9,10.6,3.8h0.2
								c3,0.8,7.2,1.6,11,2.4c1.5,0.3,2.9,0.6,4.1,0.8l1.3,0.3v-1.3v-8.7v-0.8l-0.8-0.2c-1.7-0.4-3.8-0.7-6.1-1
								c-2.5-0.3-5.1-0.7-6.8-1.2c-2.4-0.7-5.3-1.6-7.5-2.8c0.4-0.2,0.9-0.3,1.4-0.5c1.3-0.4,2.8-0.9,4.5-1.3
								c3.2-0.8,6.5-1.6,9.5-2.2c2.5-0.5,5-1,7.5-1.6c3.9-0.8,8-1.6,12-2.5c2.7-0.6,6.2-1.4,9.8-2.5l0.6-0.2c3.1-0.9,6.2-1.9,9.8-4
								c1-0.7,2.1-1.4,3.2-2.7l0,0l0,0l0.1-0.2c0.2-0.3,0.5-0.6,0.7-1c0.1-0.1,0.1-0.2,0.2-0.3c0.2-0.3,0.4-0.7,0.7-1.5
								c0.1-0.4,0.3-0.8,0.4-1.2l0.1-0.3l0,0l0,0l0,0c0.1-0.2,0.1-0.4,0.1-0.6l0,0l0,0v-0.5c0-0.4,0-0.8,0-1.1
								c-0.4-2.9-1.6-4.4-2.5-5.5v-0.1c-1-1.1-1.9-1.9-2.7-2.5c-3.2-2.4-6.2-3.8-9.1-5.2l-0.2-0.1c-6-2.8-11.9-5-17.1-7
								c-0.3-0.1-0.3-0.2-0.5-0.4c-0.2-0.3-0.6-0.7-1.4-1L-130.8,356L-130.8,356z"/>
						</g>
						<path class="st5" d="M-137.2,433c-1-0.3-2-0.6-2.9-1c-3-1-6.1-2.1-8.7-3.4c-1.2-0.6-2.4-1.5-2.6-1.9l0,0v-0.1
							c0.1-0.3,0.2-0.6,0.4-1c0.5-0.7,1.4-1.5,2.6-2.2c1.2-0.7,2.6-1.3,4-1.9c2.9-1.1,6.1-2,9.3-2.7c6.4-1.6,13.1-2.7,19.9-4.5
							c3.4-0.9,6.8-1.8,10.5-3.8c0.9-0.5,1.9-1.1,2.8-2c0.9-0.8,2-2,2.6-3.6c0.2-0.4,0.3-0.8,0.4-1.4c0.1-0.2,0.1-0.6,0.1-0.8v-0.3
							v-0.2c0-0.7,0-0.5,0-0.8c0-0.4-0.1-0.8-0.2-1.1c-0.1-0.3-0.2-0.6-0.3-1c-0.1-0.3-0.3-0.5-0.4-0.8c-0.6-0.9-1.2-1.5-1.7-2
							s-1.1-0.8-1.5-1.1c-1.9-1.2-3.7-1.9-5.4-2.5c-1.7-0.6-3.4-1.2-5.1-1.7c-0.3-0.1-0.6-0.2-1-0.3l-17.2,5.3
							c2.1,0.4,4.2,0.9,6.3,1.3c3.2,0.7,6.5,1.4,9.6,2.2c1.6,0.4,3.1,0.9,4.6,1.3c0.8,0.3,2.3,1,3.3,1.5c-0.2,0.2-0.5,0.3-0.9,0.5
							c-2.3,1.3-5.4,2.4-8.5,3.3c-6.3,1.8-13,3.2-19.6,5c-3.3,0.9-6.7,1.9-10,3.3c-1.7,0.7-3.4,1.5-5,2.6s-3.4,2.4-4.7,4.6
							c-0.6,1.1-1.1,2.4-1.3,3.7v0.5v0.2c0,0,0,0.6,0,0.4v0.3c0,0.3,0.1,0.6,0.1,0.8c0.2,1,0.6,1.7,1,2.3c0.8,1.2,1.8,2,2.6,2.6
							c0.9,0.6,1.7,1.1,2.6,1.5c3.1,1.5,6,2.4,8.9,3.3l5.8-2.2"/>
						<g>
							<path class="st1" d="M-133.7,536.6c-0.7-0.6-1.6-4.2-1.7-5.3c-1.7-2.7-4.4-7.7-4-12.8c0.3-2.9,1.6-5.9,3.9-8.6
								c1.3-1.6,2.8-3,4.3-4.4c1.7-1.6,3.5-3.3,4.9-5.3c0.3-0.4,0.6-0.8,0.8-1.2l0.4-0.6c0.1-0.1,0.1-0.2,0.1-0.3
								c0.2-0.6-0.5-2.1-2.3-3.6c-2-1.7-4.3-3.3-6.7-4.9l-0.7-0.5l4.5-2.4l0.3,0.2c1.7,1.2,3.7,2.7,5.6,4.5c2.1,2,4.4,4.9,2.8,9
								c-1,2.6-3,4.5-4.9,6.1c-2.7,2.4-5,4.7-7,6.9c-2.4,2.7-3.4,5.3-2.8,7.5c0.3,1.3,0.8,2.8,1.1,3.8c0.4,1.1,0.9,2.2,1.4,3.4
								c0.2,0.4,0.4,0.8,0.6,1.2c0.2,0.4,0.1,1,0.1,1.6c0,0.5,0,1,0,1.3c0.3,1.3,0.2,2.9,0.2,4.1l-0.1,1L-133.7,536.6z"/>
							<path class="st0" d="M-130.3,487.3c1.9,1.4,3.8,2.8,5.6,4.4c2.5,2.4,4,4.9,2.6,8.4c-0.9,2.4-2.8,4.2-4.7,5.9
								c-2.5,2.2-4.9,4.5-7,7c-2.3,2.6-3.6,5.3-2.9,8c0.2,1.2,0.7,2.6,1.2,3.8c0.5,1.2,0.9,2.3,1.4,3.4c0.2,0.4,0.4,0.8,0.6,1.2
								c0.2,0.5-0.1,2.1,0.1,2.8c0.3,1.2,0.2,2.7,0.1,4c-0.5-0.4-1.5-4.2-1.5-5c-2.3-3.6-4.4-8.2-4-12.6c0.3-3.1,1.8-5.9,3.7-8.3
								c2.9-3.5,6.6-6,9.3-9.7c0.3-0.4,0.6-0.8,0.8-1.2l0.4-0.7c0.1-0.2,0.1-0.3,0.2-0.4c0.4-1-0.9-2.8-2.5-4.2
								c-2-1.7-4.3-3.3-6.8-5L-130.3,487.3 M-130.2,486.1l-0.6,0.3l-3.4,1.8l-1.5,0.8l1.5,1c2.4,1.6,4.7,3.2,6.7,4.9
								c1.7,1.5,2.3,2.7,2.2,3v0.1v0.1c0,0,0,0.1-0.1,0.2l-0.4,0.6c-0.3,0.4-0.5,0.8-0.8,1.1c-1.4,1.9-3.1,3.5-4.9,5.2
								c-1.5,1.4-3,2.8-4.4,4.5c-2.3,2.8-3.7,5.9-4,8.9c-0.5,4.9,1.9,9.7,4,13c0.2,1.3,1,4.8,1.9,5.5l1.6,1.3l0.1-2
								c0.1-1.3,0.2-2.9-0.2-4.3c-0.1-0.2,0-0.7,0-1.1c0-0.7,0.1-1.4-0.2-1.9c-0.2-0.4-0.4-0.8-0.5-1.2c-0.5-1.1-1-2.2-1.4-3.3
								c-0.4-1-0.9-2.4-1.1-3.6l0,0l0,0c-0.5-2.1,0.4-4.4,2.7-7c1.9-2.2,4.2-4.4,6.9-6.9c1.9-1.7,4-3.7,5-6.3
								c1.7-4.4-0.6-7.4-2.9-9.6c-1.9-1.8-4-3.3-5.7-4.5L-130.2,486.1L-130.2,486.1z"/>
						</g>
						<path class="st5" d="M-137.2,482.4c-1.8-1.4-3.5-2.8-5.1-4.4c-1.7-1.8-3.1-3.8-3.1-5.8c0-0.6,0.3-1.2,1.1-1.9
							c0.8-0.7,1.9-1.3,3.1-1.9c2.4-1.1,5.1-2,7.8-2.9c2.8-0.9,5.6-1.8,8.5-3s5.9-2.5,8.6-5c1.3-1.2,2.6-2.9,3.3-4.9
							c0.6-2,0.7-4.3-0.2-6.4c-0.9-2.1-2.4-3.5-3.8-4.7c-1.5-1.1-3-2-4.5-2.8c-1.7-0.8-0.9-0.5-2.6-1.2l-8.9,2.9
							c3.2,1,6.3,2,9.1,3.3c2.6,1.2,5.2,2.9,5.9,4.5c0.4,0.7,0.4,1.8,0.1,2.7c-0.3,0.9-0.9,1.9-1.8,2.7c-1.8,1.7-4.4,3.1-7,4.2
							c-2.6,1.2-5.4,2.1-8.1,3.1c-2.8,1-5.5,2-8.2,3.3c-1.4,0.7-2.7,1.5-4,2.6c-0.6,0.6-1.3,1.3-1.7,2.2c-0.5,0.9-0.7,2-0.6,3.1
							c0.1,1.7,0.8,3.4,1.6,4.7c0.8,1.3,1.8,2.5,2.8,3.5c2,2,4.2,3.6,6.3,5.1c0.6,0.4,1.2,0.9,1.9,1.3"/>
						<path class="st5" d="M-153.4,391.1c4.4-0.9,18.7-3.8,16.7-4.3c-7.8-2-22.7-7.4-22.6-6.9c2.7-1.1,5.1-3,7.8-4.2
							c5.3-2.3,10.9-4.3,16.4-6.2c10.9-3.8,21.5-7.2,31.2-10.9c4.9-1.9,9.5-3.8,14-6.1c2.3-1.2,4.5-2.4,6.7-4.1
							c1.1-0.9,2.2-1.8,3.4-3.1c1.1-1.3,2.3-3,3-5.6c0.1-0.3,0.1-0.8,0.2-1.2v-0.6v-0.4v-0.2v-0.4c0-0.3,0-0.5-0.1-0.8
							c-0.1-1-0.3-2-0.6-2.9c-0.6-1.8-1.4-3.2-2.3-4.4c-3.5-4.7-9.3-6.9-14.2-9.8c-3-1.8-6.4-2.8-9.3-4.8c-3.7-2.4-5.6-3.2-10.3-2.6
							c-3.7,0.5-7.3,1-10.9,1.8c-0.3,1.9-0.3,7,0.7,8.6c1.2,1.8,4.2,2.7,6.4,3.2c0.4,0.1,0.7,0.1,1,0.2c2.7,0.4,5.6,0.3,8,1.4
							c4,1.7,7.5,4.7,11.5,6.3c2.6,1.1,5.8,1.5,7.1,4.5c0,0.1,0,0.1,0.1,0.1c0,0.3,0-0.4,0-0.3v0.2v0.1v-0.1c0-0.2,0.1-0.4,0.1-0.5
							c0.2-0.6,0.3-0.4,0-0.1s-0.8,0.8-1.4,1.3c-1.3,1-3,2.1-4.8,3.1c-3.7,2.1-8,4-12.6,5.9c-9.2,3.8-19.6,7.5-30.6,11.7
							c-5.5,2.1-11.2,4.3-17,7c-2.9,1.4-5.9,2.8-9,5.2c-0.8,0.6-1.6,1.3-2.5,2.3c-3.2,3.7-2.9,8.6,0.7,12c3.1,2.9,7.6,4.7,11.6,6"/>
						<g>
							<path class="st1" d="M-134,534.2c-0.1-0.3-0.2-0.5-0.3-0.8c-0.5-1.3-0.9-2.6-1-4c-0.1-1.6,0.3-2.8,0.7-4
								c0.1-0.3,0.2-0.6,0.3-1c0.7-2.3,1-5.1,1.4-7.7c0.1-0.8,0.2-1.7,0.3-2.4l0.4-2.8l0.6,2.8c0.2,0.8,0.6,1.4,1,2
								c0.6,0.8,1.2,1.7,1.3,3.1c0.1,1.8-0.1,3.6-0.7,5.8c-0.3,1.1-0.7,2.1-1.1,3.2c-0.2,0.5-0.4,0.9-0.5,1.4
								c-0.1,0.4-0.2,0.9-0.4,1.5c-0.3,1.2-0.5,2.5-1.2,3.2l-0.6,0.6L-134,534.2z"/>
							<path class="st0" d="M-132.1,514.3c0.4,2,2.2,2.8,2.3,5c0.1,2-0.2,3.8-0.7,5.7c-0.4,1.5-1.1,3.1-1.6,4.5
								c-0.4,1.2-0.6,3.7-1.4,4.5c-0.5-1.5-1.2-3-1.2-4.6c-0.1-1.8,0.5-3.2,1-4.8C-132.9,521.5-132.5,517.5-132.1,514.3
								 M-132.3,508.5l-0.8,5.6c-0.1,0.8-0.2,1.6-0.3,2.4c-0.3,2.7-0.7,5.4-1.4,7.7c-0.1,0.3-0.2,0.6-0.3,1
								c-0.4,1.3-0.8,2.6-0.7,4.2c0.1,1.5,0.6,2.8,1,4.1c0.1,0.3,0.2,0.5,0.3,0.8l0.6,1.6l1.2-1.3c0.8-0.8,1-2.2,1.3-3.5
								c0.1-0.6,0.2-1.1,0.3-1.4c0.2-0.5,0.3-0.9,0.5-1.4c0.4-1.1,0.9-2.2,1.1-3.3c0.6-2.3,0.8-4.1,0.7-6c-0.1-1.5-0.7-2.5-1.4-3.4
								c-0.4-0.6-0.8-1.1-0.9-1.8L-132.3,508.5L-132.3,508.5z"/>
						</g>
						<g>
							<path class="st1" d="M-132.1,240.1c-8.1,0-14.8-6.7-14.8-14.8c0-8.2,6.6-14.8,14.8-14.8c8.1,0,14.8,6.7,14.8,14.8
								C-117.3,233.5-123.9,240.1-132.1,240.1z"/>
							<path class="st0" d="M-132.1,211c7.9,0,14.2,6.4,14.2,14.3s-6.4,14.3-14.2,14.3c-7.9,0-14.2-6.4-14.2-14.3
								C-146.3,217.4-139.9,211-132.1,211 M-132.1,209.9c-8.4,0-15.3,6.9-15.3,15.4s6.9,15.4,15.3,15.4c8.4,0,15.3-6.9,15.3-15.4
								C-116.8,216.8-123.6,209.9-132.1,209.9L-132.1,209.9z"/>
						</g>
					</g>
				</g>
			</g>
		</g>
		<g>
			<ellipse id="XMLID_1_" class="st6" cx="-134.5" cy="328.1" rx="133.6" ry="134.3"/>
		</g>
	</g>
</g>
</svg>
