<?xml version="1.0" encoding="utf-8"?>
<!-- Generator: Adobe Illustrator 19.0.0, SVG Export Plug-In . SVG Version: 6.00 Build 0)  -->
<svg version="1.1" id="Layer_2" xmlns="http://www.w3.org/2000/svg" xmlns:xlink="http://www.w3.org/1999/xlink" x="0px" y="0px"
	 viewBox="-384 146 510 510" style="enable-background:new -384 146 510 510;" xml:space="preserve">
<style type="text/css">
	.st0{fill:#226EB0;}
	.st1{fill:#226EB0;stroke:#226EB0;stroke-width:2.1449;stroke-miterlimit:10;}
	.st2{fill:#FFFFFF;}
	.st3{clip-path:url(#SVGID_2_);fill:#FFFFFF;stroke:#226EB0;stroke-width:1.6087;stroke-miterlimit:10;}
	.st4{clip-path:url(#SVGID_4_);}
	.st5{fill:#226EB0;stroke:#A3A3A3;stroke-width:2.1449;stroke-miterlimit:10;}
	.st6{fill:#FFFFFF;stroke:#226EB0;stroke-width:4.2898;stroke-miterlimit:10;}
	.st7{clip-path:url(#SVGID_6_);}
	.st8{fill:#FFFFFF;stroke:#226EB0;stroke-width:1.0724;stroke-miterlimit:10;}
	.st9{fill:#226EB0;stroke:#FFFFFF;stroke-width:1.0724;stroke-miterlimit:10;}
	.st10{clip-path:url(#SVGID_8_);}
	.st11{clip-path:url(#SVGID_10_);}
	.st12{clip-path:url(#SVGID_12_);}
	.st13{clip-path:url(#SVGID_14_);}
	.st14{clip-path:url(#SVGID_16_);}
	.st15{clip-path:url(#SVGID_18_);}
	.st16{clip-path:url(#SVGID_20_);}
	.st17{clip-path:url(#SVGID_22_);}
	.st18{clip-path:url(#SVGID_24_);}
	.st19{fill:none;stroke:#226EB0;stroke-width:4.2898;stroke-miterlimit:10;}
	.st20{clip-path:url(#SVGID_26_);}
	.st21{fill:none;stroke:#FFFFFF;stroke-width:1.6087;stroke-miterlimit:10;}
	.st22{fill:#226EB0;stroke:#FFFFFF;stroke-width:1.6087;stroke-miterlimit:10;}
	.st23{clip-path:url(#SVGID_28_);}
	.st24{clip-path:url(#SVGID_30_);}
	.st25{clip-path:url(#SVGID_32_);}
	.st26{clip-path:url(#SVGID_34_);fill:none;stroke:#FFFFFF;stroke-width:1.6087;stroke-miterlimit:10;}
	.st27{clip-path:url(#SVGID_36_);fill:none;stroke:#FFFFFF;stroke-width:1.6087;stroke-miterlimit:10;}
	.st28{clip-path:url(#SVGID_38_);fill:none;stroke:#FFFFFF;stroke-width:1.6087;stroke-miterlimit:10;}
	.st29{clip-path:url(#SVGID_40_);fill:none;stroke:#FFFFFF;stroke-width:1.6087;stroke-miterlimit:10;}
	.st30{clip-path:url(#SVGID_42_);fill:none;stroke:#FFFFFF;stroke-width:1.6087;stroke-miterlimit:10;}
	.st31{clip-path:url(#SVGID_44_);fill:none;stroke:#FFFFFF;stroke-width:1.6087;stroke-miterlimit:10;}
	.st32{clip-path:url(#SVGID_46_);fill:none;stroke:#FFFFFF;stroke-width:1.6087;stroke-miterlimit:10;}
	.st33{clip-path:url(#SVGID_48_);fill:none;stroke:#FFFFFF;stroke-width:1.6087;stroke-miterlimit:10;}
	.st34{clip-path:url(#SVGID_50_);fill:none;stroke:#FFFFFF;stroke-width:1.6087;stroke-miterlimit:10;}
	.st35{clip-path:url(#SVGID_52_);fill:none;stroke:#FFFFFF;stroke-width:1.6087;stroke-miterlimit:10;}
	.st36{clip-path:url(#SVGID_54_);fill:none;stroke:#FFFFFF;stroke-width:1.6087;stroke-miterlimit:10;}
	.st37{clip-path:url(#SVGID_56_);fill:none;stroke:#FFFFFF;stroke-width:1.6087;stroke-miterlimit:10;}
	.st38{clip-path:url(#SVGID_58_);fill:none;stroke:#FFFFFF;stroke-width:1.6087;stroke-miterlimit:10;}
	.st39{clip-path:url(#SVGID_60_);fill:none;stroke:#FFFFFF;stroke-width:1.6087;stroke-miterlimit:10;}
	.st40{clip-path:url(#SVGID_62_);fill:none;stroke:#FFFFFF;stroke-width:1.6087;stroke-miterlimit:10;}
	.st41{clip-path:url(#SVGID_64_);fill:none;stroke:#FFFFFF;stroke-width:1.6087;stroke-miterlimit:10;}
	.st42{clip-path:url(#SVGID_66_);fill:none;stroke:#FFFFFF;stroke-width:1.6087;stroke-miterlimit:10;}
	.st43{clip-path:url(#SVGID_68_);fill:none;stroke:#FFFFFF;stroke-width:1.6087;stroke-miterlimit:10;}
	.st44{clip-path:url(#SVGID_70_);fill:none;stroke:#FFFFFF;stroke-width:1.6087;stroke-miterlimit:10;}
	.st45{clip-path:url(#SVGID_72_);fill:none;stroke:#FFFFFF;stroke-width:1.6087;stroke-miterlimit:10;}
	.st46{clip-path:url(#SVGID_74_);fill:none;stroke:#FFFFFF;stroke-width:1.6087;stroke-miterlimit:10;}
	.st47{clip-path:url(#SVGID_76_);fill:none;stroke:#FFFFFF;stroke-width:1.6087;stroke-miterlimit:10;}
	.st48{clip-path:url(#SVGID_78_);fill:none;stroke:#FFFFFF;stroke-width:1.6087;stroke-miterlimit:10;}
	.st49{clip-path:url(#SVGID_80_);fill:none;stroke:#FFFFFF;stroke-width:1.6087;stroke-miterlimit:10;}
	.st50{clip-path:url(#SVGID_82_);fill:none;stroke:#FFFFFF;stroke-width:1.6087;stroke-miterlimit:10;}
	.st51{clip-path:url(#SVGID_84_);fill:none;stroke:#FFFFFF;stroke-width:1.6087;stroke-miterlimit:10;}
	.st52{clip-path:url(#SVGID_86_);fill:none;stroke:#FFFFFF;stroke-width:1.6087;stroke-miterlimit:10;}
	.st53{clip-path:url(#SVGID_88_);fill:none;stroke:#FFFFFF;stroke-width:1.6087;stroke-miterlimit:10;}
	.st54{clip-path:url(#SVGID_90_);fill:none;stroke:#FFFFFF;stroke-width:1.6087;stroke-miterlimit:10;}
	.st55{clip-path:url(#SVGID_92_);fill:none;stroke:#FFFFFF;stroke-width:1.6087;stroke-miterlimit:10;}
	.st56{clip-path:url(#SVGID_94_);fill:none;stroke:#FFFFFF;stroke-width:1.6087;stroke-miterlimit:10;}
	.st57{clip-path:url(#SVGID_96_);fill:none;stroke:#FFFFFF;stroke-width:1.6087;stroke-miterlimit:10;}
	.st58{clip-path:url(#SVGID_98_);fill:none;stroke:#FFFFFF;stroke-width:1.6087;stroke-miterlimit:10;}
	.st59{clip-path:url(#SVGID_100_);fill:none;stroke:#FFFFFF;stroke-width:1.6087;stroke-miterlimit:10;}
	.st60{clip-path:url(#SVGID_102_);fill:none;stroke:#FFFFFF;stroke-width:1.6087;stroke-miterlimit:10;}
	.st61{clip-path:url(#SVGID_104_);fill:none;stroke:#FFFFFF;stroke-width:1.6087;stroke-miterlimit:10;}
	.st62{clip-path:url(#SVGID_106_);fill:none;stroke:#FFFFFF;stroke-width:1.6087;stroke-miterlimit:10;}
	.st63{clip-path:url(#SVGID_108_);fill:none;stroke:#FFFFFF;stroke-width:1.6087;stroke-miterlimit:10;}
	.st64{clip-path:url(#SVGID_110_);fill:none;stroke:#FFFFFF;stroke-width:1.6087;stroke-miterlimit:10;}
	.st65{clip-path:url(#SVGID_112_);fill:none;stroke:#FFFFFF;stroke-width:1.6087;stroke-miterlimit:10;}
</style>
<g>
	<g>
		<path class="st0" d="M44.6,394.2C3.7,528.1-129,650.6-129,650.6s-132.5-132.7-173.4-256.4c-6.4-18.8-10.2-38.9-10.2-60
			c0-101.3,82.1-183.6,183.6-183.6S54.5,232.9,54.5,334.1C54.8,355.2,51,375.3,44.6,394.2z"/>
		<path class="st0" d="M-129.1,653.5l-1.4-1.4c-0.3-0.3-33.6-33.8-71.5-82c-35-44.5-81.1-111.1-102.4-175.3
			c-6.8-19.9-10.3-40.3-10.3-60.7c0-102.3,83.3-185.6,185.7-185.6S56.6,231.8,56.6,334.1c0.2,20.1-3.1,40.6-10,60.7
			C25.4,464.3-20.9,530.6-55.9,573.9c-37.9,46.9-71.3,77.9-71.7,78.2L-129.1,653.5z M-129,152.7c-100,0-181.4,81.4-181.4,181.4
			c0,19.9,3.4,39.8,10.1,59.3c38,115,156.9,239.3,171.4,254.2c6.9-6.5,36.6-35.3,69.8-76.4c34.8-43.1,80.7-108.8,101.7-177.7
			c6.8-19.8,10.1-39.7,9.8-59.4C52.4,234.1-29,152.7-129,152.7z"/>
	</g>
	<g>
		<ellipse id="XMLID_108_" class="st1" cx="-127.7" cy="348.5" rx="136.7" ry="137.5"/>
		<g>
			<g>
				<g>
					<ellipse id="XMLID_107_" class="st2" cx="-127.7" cy="333.4" rx="136.7" ry="137.5"/>
				</g>
				<g>
					<g>
						<defs>
							<ellipse id="SVGID_1_" cx="-127.7" cy="333.4" rx="136.7" ry="137.5"/>
						</defs>
						<clipPath id="SVGID_2_">
							<use xlink:href="#SVGID_1_"  style="overflow:visible;"/>
						</clipPath>
						<rect x="-306.2" y="160.4" class="st3" width="336.5" height="176.4"/>
					</g>
				</g>
				<g>
					<g>
						<defs>
							<ellipse id="SVGID_3_" cx="-127.7" cy="333.4" rx="136.7" ry="137.5"/>
						</defs>
						<clipPath id="SVGID_4_">
							<use xlink:href="#SVGID_3_"  style="overflow:visible;"/>
						</clipPath>
						<g class="st4">
							<path class="st5" d="M-133.1,396.6c2.7-1.5,82.5,6.1,82.5,6.1l46.4-47.8c0,0-16-41.4-17.6-41.4s-129.4,15.1-129.4,15.1"/>
							<path class="st6" d="M21.7,405.6c-0.9-3.9-1.6-28.8-3.6-32.3l-293.7-0.7c-30.2,21.2-4.7,59.7,0.7,83.1
								c9.4,40.2,80.1,57.8,158,39.5C-39,476.8,31.1,445.8,21.7,405.6z"/>
						</g>
					</g>
				</g>
				<g>
					<g>
						<defs>
							<ellipse id="SVGID_5_" cx="-127.7" cy="333.4" rx="136.7" ry="137.5"/>
						</defs>
						<clipPath id="SVGID_6_">
							<use xlink:href="#SVGID_5_"  style="overflow:visible;"/>
						</clipPath>
						<g class="st7">
							<ellipse class="st8" cx="-210.1" cy="332.5" rx="40.4" ry="40.6"/>
							<ellipse class="st8" cx="-210.1" cy="332.3" rx="33.8" ry="34"/>
							<ellipse class="st8" cx="-210.1" cy="332.3" rx="26.9" ry="27.1"/>
							<ellipse class="st8" cx="-210.1" cy="332.3" rx="19.2" ry="19.3"/>
							<ellipse class="st8" cx="-210.1" cy="332.3" rx="12.7" ry="12.8"/>
							<ellipse class="st9" cx="-209" cy="332.9" rx="5.3" ry="5.3"/>
						</g>
					</g>
				</g>
				<g>
					<g>
						<defs>
							<ellipse id="SVGID_7_" cx="-127.7" cy="333.4" rx="136.7" ry="137.5"/>
						</defs>
						<clipPath id="SVGID_8_">
							<use xlink:href="#SVGID_7_"  style="overflow:visible;"/>
						</clipPath>
						<g class="st10">
							<ellipse class="st8" cx="-152.4" cy="204.6" rx="40.4" ry="40.6"/>
							<ellipse class="st8" cx="-152.3" cy="204.4" rx="33.8" ry="34"/>
							<ellipse class="st8" cx="-152.3" cy="204.4" rx="26.9" ry="27.1"/>
							<ellipse class="st8" cx="-152.3" cy="204.4" rx="19.2" ry="19.3"/>
							<ellipse class="st9" cx="-152.3" cy="204.4" rx="12.7" ry="12.8"/>
						</g>
					</g>
				</g>
				<g>
					<g>
						<defs>
							<ellipse id="SVGID_9_" cx="-127.7" cy="333.4" rx="136.7" ry="137.5"/>
						</defs>
						<clipPath id="SVGID_10_">
							<use xlink:href="#SVGID_9_"  style="overflow:visible;"/>
						</clipPath>
						<g class="st11">
							<ellipse class="st8" cx="-248.6" cy="368" rx="40.4" ry="40.6"/>
							<ellipse class="st8" cx="-248.6" cy="367.8" rx="33.8" ry="34"/>
							<ellipse class="st8" cx="-248.6" cy="367.8" rx="26.9" ry="27.1"/>
							<ellipse class="st8" cx="-248.6" cy="367.8" rx="19.2" ry="19.3"/>
							<ellipse class="st9" cx="-248.6" cy="367.8" rx="12.7" ry="12.8"/>
						</g>
					</g>
				</g>
				<g>
					<g>
						<defs>
							<ellipse id="SVGID_11_" cx="-127.7" cy="333.4" rx="136.7" ry="137.5"/>
						</defs>
						<clipPath id="SVGID_12_">
							<use xlink:href="#SVGID_11_"  style="overflow:visible;"/>
						</clipPath>
						<g class="st12">
							<ellipse class="st8" cx="-201" cy="258.9" rx="51.5" ry="51.8"/>
							<ellipse class="st8" cx="-200.9" cy="258.6" rx="43.1" ry="43.3"/>
							<ellipse class="st8" cx="-200.9" cy="258.6" rx="34.3" ry="34.5"/>
							<ellipse class="st8" cx="-200.9" cy="258.6" rx="24.5" ry="24.6"/>
							<ellipse class="st9" cx="-200.9" cy="258.6" rx="16.2" ry="16.3"/>
						</g>
					</g>
				</g>
				<g>
					<g>
						<defs>
							<ellipse id="SVGID_13_" cx="-127.7" cy="333.4" rx="136.7" ry="137.5"/>
						</defs>
						<clipPath id="SVGID_14_">
							<use xlink:href="#SVGID_13_"  style="overflow:visible;"/>
						</clipPath>
						<g class="st13">
							<ellipse class="st8" cx="-146" cy="263.6" rx="29.8" ry="30"/>
							<ellipse class="st8" cx="-145.9" cy="263.5" rx="24.9" ry="25.1"/>
							<ellipse class="st8" cx="-145.9" cy="263.5" rx="19.9" ry="20"/>
							<ellipse class="st8" cx="-145.9" cy="263.5" rx="14.2" ry="14.3"/>
							<ellipse class="st9" cx="-145.9" cy="263.5" rx="9.4" ry="9.4"/>
						</g>
					</g>
				</g>
				<g>
					<g>
						<defs>
							<ellipse id="SVGID_15_" cx="-127.7" cy="333.4" rx="136.7" ry="137.5"/>
						</defs>
						<clipPath id="SVGID_16_">
							<use xlink:href="#SVGID_15_"  style="overflow:visible;"/>
						</clipPath>
						<g class="st14">
							<ellipse class="st8" cx="-92.5" cy="308.9" rx="51.5" ry="51.8"/>
							<ellipse class="st8" cx="-92.4" cy="308.7" rx="43.1" ry="43.3"/>
							<ellipse class="st8" cx="-92.4" cy="308.7" rx="34.3" ry="34.5"/>
							<ellipse class="st8" cx="-92.4" cy="308.7" rx="24.5" ry="24.6"/>
							<ellipse class="st8" cx="-92.4" cy="308.7" rx="16.2" ry="16.3"/>
						</g>
					</g>
				</g>
				<g>
					<g>
						<defs>
							<ellipse id="SVGID_17_" cx="-127.7" cy="333.4" rx="136.7" ry="137.5"/>
						</defs>
						<clipPath id="SVGID_18_">
							<use xlink:href="#SVGID_17_"  style="overflow:visible;"/>
						</clipPath>
						<g class="st15">
							<ellipse class="st8" cx="3.2" cy="342.7" rx="33" ry="33.2"/>
							<ellipse class="st8" cx="3.3" cy="342.5" rx="27.6" ry="27.7"/>
							<ellipse class="st8" cx="3.3" cy="342.5" rx="22" ry="22.1"/>
							<ellipse class="st8" cx="3.3" cy="342.5" rx="15.7" ry="15.8"/>
							<ellipse class="st9" cx="3.3" cy="342.5" rx="10.4" ry="10.4"/>
						</g>
					</g>
				</g>
				<g>
					<g>
						<defs>
							<ellipse id="SVGID_19_" cx="-127.7" cy="333.4" rx="136.7" ry="137.5"/>
						</defs>
						<clipPath id="SVGID_20_">
							<use xlink:href="#SVGID_19_"  style="overflow:visible;"/>
						</clipPath>
						<g class="st16">
							<ellipse class="st8" cx="-104.8" cy="241.6" rx="36.7" ry="36.9"/>
							<ellipse class="st8" cx="-104.7" cy="241.4" rx="30.7" ry="30.8"/>
							<ellipse class="st8" cx="-104.7" cy="241.4" rx="24.4" ry="24.6"/>
							<ellipse class="st8" cx="-104.7" cy="241.4" rx="17.4" ry="17.5"/>
							<ellipse class="st9" cx="-104.7" cy="241.4" rx="11.5" ry="11.6"/>
						</g>
					</g>
				</g>
				<g>
					<g>
						<defs>
							<ellipse id="SVGID_21_" cx="-127.7" cy="333.4" rx="136.7" ry="137.5"/>
						</defs>
						<clipPath id="SVGID_22_">
							<use xlink:href="#SVGID_21_"  style="overflow:visible;"/>
						</clipPath>
						<g class="st17">
							<ellipse class="st8" cx="-32.6" cy="308.8" rx="25.4" ry="25.6"/>
							<ellipse class="st8" cx="-32.6" cy="308.7" rx="21.3" ry="21.4"/>
							<ellipse class="st8" cx="-32.6" cy="308.7" rx="17" ry="17.1"/>
							<ellipse class="st8" cx="-32.6" cy="308.7" rx="12.1" ry="12.2"/>
							<ellipse class="st9" cx="-32.6" cy="308.7" rx="8" ry="8.1"/>
						</g>
					</g>
				</g>
				<g>
					<g>
						<defs>
							<ellipse id="SVGID_23_" cx="-127.7" cy="333.4" rx="136.7" ry="137.5"/>
						</defs>
						<clipPath id="SVGID_24_">
							<use xlink:href="#SVGID_23_"  style="overflow:visible;"/>
						</clipPath>
						<g class="st18">
							<ellipse class="st8" cx="-31.6" cy="266.9" rx="36.7" ry="36.9"/>
							<ellipse class="st8" cx="-31.5" cy="266.7" rx="30.7" ry="30.8"/>
							<ellipse class="st8" cx="-31.5" cy="266.7" rx="24.4" ry="24.6"/>
							<ellipse class="st8" cx="-31.5" cy="266.7" rx="17.4" ry="17.5"/>
							<ellipse class="st9" cx="-31.5" cy="266.7" rx="11.5" ry="11.6"/>
						</g>
					</g>
				</g>
				<g>
					<ellipse id="XMLID_1_" class="st19" cx="-127.7" cy="333.4" rx="136.7" ry="137.5"/>
				</g>
			</g>
			<g>
				<g>
					<g>
						<g>
							<path id="XMLID_106_" class="st0" d="M-195.6,384.1l0.1,11.2c0.5,4.9,14.4,8.9,31.5,8.9c17.3,0,30.7-1.8,31.5-8.9l0.1-11.2
								H-195.6z"/>
						</g>
						<g>
							<g>
								<defs>
									<path id="SVGID_25_" d="M-195.6,384.1l0.1,11.2c0.5,4.9,14.4,8.9,31.5,8.9c17.3,0,30.7-1.8,31.5-8.9l0.1-11.2H-195.6z"/>
								</defs>
								<clipPath id="SVGID_26_">
									<use xlink:href="#SVGID_25_"  style="overflow:visible;"/>
								</clipPath>
								<g class="st20">
									<line class="st21" x1="-169.8" y1="335.4" x2="-169.8" y2="408.9"/>
									<line class="st21" x1="-179.2" y1="334.8" x2="-179.2" y2="405.3"/>
									<line class="st21" x1="-187.1" y1="332.1" x2="-187.1" y2="408.3"/>
								</g>
							</g>
						</g>
						<g>
							<path id="XMLID_2_" class="st21" d="M-195.6,384.1l0.1,11.2c0.5,4.9,14.4,8.9,31.5,8.9c17.3,0,30.7-1.8,31.5-8.9l0.1-11.2
								H-195.6z"/>
						</g>
					</g>
					<ellipse class="st22" cx="-164.1" cy="383.7" rx="31.5" ry="9.2"/>
				</g>
				<g>
					<g>
						<g>
							<path id="XMLID_105_" class="st0" d="M-195.6,366.2l0.1,11.2c0.5,4.9,14.4,8.9,31.5,8.9s30.9-4,31.5-8.9l0.1-11.2H-195.6z"/>
						</g>
						<g>
							<g>
								<defs>
									<path id="SVGID_27_" d="M-195.6,366.2l0.1,11.2c0.5,4.9,14.4,8.9,31.5,8.9s30.9-4,31.5-8.9l0.1-11.2H-195.6z"/>
								</defs>
								<clipPath id="SVGID_28_">
									<use xlink:href="#SVGID_27_"  style="overflow:visible;"/>
								</clipPath>
								<g class="st23">
									<line class="st21" x1="-169.8" y1="335.4" x2="-169.8" y2="408.9"/>
									<line class="st21" x1="-179.2" y1="334.8" x2="-179.2" y2="405.3"/>
									<line class="st21" x1="-187.1" y1="332.1" x2="-187.1" y2="408.3"/>
								</g>
							</g>
						</g>
						<g>
							<path id="XMLID_3_" class="st21" d="M-195.6,366.2l0.1,11.2c0.5,4.9,14.4,8.9,31.5,8.9s30.9-4,31.5-8.9l0.1-11.2H-195.6z"/>
						</g>
					</g>
					<ellipse class="st22" cx="-164.1" cy="365.8" rx="31.5" ry="9.2"/>
				</g>
				<g>
					<g>
						<g>
							<path id="XMLID_104_" class="st0" d="M-195.6,348.3l0.1,11.2c0.5,4.9,14.4,8.9,31.5,8.9s30.9-4,31.5-8.9l0.1-11.2H-195.6z"/>
						</g>
						<g>
							<g>
								<defs>
									<path id="SVGID_29_" d="M-195.6,348.3l0.1,11.2c0.5,4.9,14.4,8.9,31.5,8.9s30.9-4,31.5-8.9l0.1-11.2H-195.6z"/>
								</defs>
								<clipPath id="SVGID_30_">
									<use xlink:href="#SVGID_29_"  style="overflow:visible;"/>
								</clipPath>
								<g class="st24">
									<line class="st21" x1="-169.8" y1="335.4" x2="-169.8" y2="408.9"/>
									<line class="st21" x1="-179.2" y1="334.8" x2="-179.2" y2="405.3"/>
									<line class="st21" x1="-187.1" y1="332.1" x2="-187.1" y2="408.3"/>
								</g>
							</g>
						</g>
						<g>
							<path id="XMLID_4_" class="st21" d="M-195.6,348.3l0.1,11.2c0.5,4.9,14.4,8.9,31.5,8.9s30.9-4,31.5-8.9l0.1-11.2H-195.6z"/>
						</g>
					</g>
					<ellipse class="st22" cx="-164.1" cy="347.9" rx="31.5" ry="9.2"/>
				</g>
				<g>
					<g>
						<g>
							<path id="XMLID_103_" class="st0" d="M-197.8,330.3l0.1,11.2c0.5,4.9,14.4,8.9,31.5,8.9s30.9-4,31.5-8.9l0.1-11.2H-197.8z"/>
						</g>
						<g>
							<g>
								<defs>
									<path id="SVGID_31_" d="M-197.8,330.3l0.1,11.2c0.5,4.9,14.4,8.9,31.5,8.9s30.9-4,31.5-8.9l0.1-11.2H-197.8z"/>
								</defs>
								<clipPath id="SVGID_32_">
									<use xlink:href="#SVGID_31_"  style="overflow:visible;"/>
								</clipPath>
								<g class="st25">
									<line class="st21" x1="-169.8" y1="335.4" x2="-169.8" y2="408.9"/>
									<line class="st21" x1="-179.2" y1="334.8" x2="-179.2" y2="405.3"/>
									<line class="st21" x1="-187.1" y1="332.1" x2="-187.1" y2="408.3"/>
								</g>
							</g>
						</g>
						<g>
							<path id="XMLID_5_" class="st21" d="M-197.8,330.3l0.1,11.2c0.5,4.9,14.4,8.9,31.5,8.9s30.9-4,31.5-8.9l0.1-11.2H-197.8z"/>
						</g>
					</g>
					<ellipse class="st22" cx="-166.2" cy="329.9" rx="31.5" ry="9.2"/>
				</g>
				<g>
					<g>
						<g>
							<path id="XMLID_102_" class="st0" d="M-191.3,312.4l0.1,11.2c0.5,4.9,14.4,8.9,31.5,8.9s30.9-4,31.5-8.9l0.1-11.2H-191.3z"/>
						</g>
						<g>
							<g>
								<defs>
									<path id="SVGID_33_" d="M-191.3,312.4l0.1,11.2c0.5,4.9,14.4,8.9,31.5,8.9s30.9-4,31.5-8.9l0.1-11.2H-191.3z"/>
								</defs>
								<clipPath id="SVGID_34_">
									<use xlink:href="#SVGID_33_"  style="overflow:visible;"/>
								</clipPath>
								<line class="st26" x1="-163.9" y1="319.4" x2="-163.9" y2="338"/>
							</g>
						</g>
						<g>
							<g>
								<defs>
									<path id="SVGID_35_" d="M-191.3,312.4l0.1,11.2c0.5,4.9,14.4,8.9,31.5,8.9s30.9-4,31.5-8.9l0.1-11.2H-191.3z"/>
								</defs>
								<clipPath id="SVGID_36_">
									<use xlink:href="#SVGID_35_"  style="overflow:visible;"/>
								</clipPath>
								<line class="st27" x1="-174.4" y1="318.9" x2="-174.4" y2="338.9"/>
							</g>
						</g>
						<g>
							<g>
								<defs>
									<path id="SVGID_37_" d="M-191.3,312.4l0.1,11.2c0.5,4.9,14.4,8.9,31.5,8.9s30.9-4,31.5-8.9l0.1-11.2H-191.3z"/>
								</defs>
								<clipPath id="SVGID_38_">
									<use xlink:href="#SVGID_37_"  style="overflow:visible;"/>
								</clipPath>
								<line class="st28" x1="-155" y1="319.1" x2="-155" y2="337.8"/>
							</g>
						</g>
						<g>
							<g>
								<defs>
									<path id="SVGID_39_" d="M-191.3,312.4l0.1,11.2c0.5,4.9,14.4,8.9,31.5,8.9s30.9-4,31.5-8.9l0.1-11.2H-191.3z"/>
								</defs>
								<clipPath id="SVGID_40_">
									<use xlink:href="#SVGID_39_"  style="overflow:visible;"/>
								</clipPath>
								<line class="st29" x1="-180.4" y1="317.8" x2="-180.4" y2="334.2"/>
							</g>
						</g>
						<g>
							<path id="XMLID_6_" class="st21" d="M-191.3,312.4l0.1,11.2c0.5,4.9,14.4,8.9,31.5,8.9s30.9-4,31.5-8.9l0.1-11.2H-191.3z"/>
						</g>
					</g>
					<ellipse class="st22" cx="-159.8" cy="312" rx="31.5" ry="9.2"/>
				</g>
				<g>
					<g>
						<g>
							<path id="XMLID_101_" class="st0" d="M-202,294.5l0.1,11.2c0.5,4.9,14.4,8.9,31.5,8.9s30.9-4,31.5-8.9l0.1-11.2H-202z"/>
						</g>
						<g>
							<path id="XMLID_7_" class="st21" d="M-202,294.5l0.1,11.2c0.5,4.9,14.4,8.9,31.5,8.9s30.9-4,31.5-8.9l0.1-11.2H-202z"/>
						</g>
					</g>
					<ellipse class="st22" cx="-170.5" cy="294.1" rx="31.5" ry="9.2"/>
				</g>
			</g>
			<g>
				<g>
					<g>
						<g>
							<path id="XMLID_100_" class="st0" d="M-110.4,389.6l0.1,11.2c0.5,4.9,14.4,8.9,31.5,8.9s30.9-4,31.5-8.9l0.1-11.2H-110.4
								L-110.4,389.6z"/>
						</g>
						<g>
							<g>
								<defs>
									<path id="SVGID_41_" d="M-110.4,389.6l0.1,11.2c0.5,4.9,14.4,8.9,31.5,8.9s30.9-4,31.5-8.9l0.1-11.2H-110.4L-110.4,389.6z"
										/>
								</defs>
								<clipPath id="SVGID_42_">
									<use xlink:href="#SVGID_41_"  style="overflow:visible;"/>
								</clipPath>
								<line class="st30" x1="-83" y1="396.6" x2="-83" y2="415.1"/>
							</g>
						</g>
						<g>
							<g>
								<defs>
									<path id="SVGID_43_" d="M-110.4,389.6l0.1,11.2c0.5,4.9,14.4,8.9,31.5,8.9s30.9-4,31.5-8.9l0.1-11.2H-110.4L-110.4,389.6z"
										/>
								</defs>
								<clipPath id="SVGID_44_">
									<use xlink:href="#SVGID_43_"  style="overflow:visible;"/>
								</clipPath>
								<line class="st31" x1="-93.5" y1="396" x2="-93.5" y2="416.1"/>
							</g>
						</g>
						<g>
							<g>
								<defs>
									<path id="SVGID_45_" d="M-110.4,389.6l0.1,11.2c0.5,4.9,14.4,8.9,31.5,8.9s30.9-4,31.5-8.9l0.1-11.2H-110.4L-110.4,389.6z"
										/>
								</defs>
								<clipPath id="SVGID_46_">
									<use xlink:href="#SVGID_45_"  style="overflow:visible;"/>
								</clipPath>
								<line class="st32" x1="-74.1" y1="396.3" x2="-74.1" y2="415"/>
							</g>
						</g>
						<g>
							<g>
								<defs>
									<path id="SVGID_47_" d="M-110.4,389.6l0.1,11.2c0.5,4.9,14.4,8.9,31.5,8.9s30.9-4,31.5-8.9l0.1-11.2H-110.4L-110.4,389.6z"
										/>
								</defs>
								<clipPath id="SVGID_48_">
									<use xlink:href="#SVGID_47_"  style="overflow:visible;"/>
								</clipPath>
								<line class="st33" x1="-99.5" y1="394.9" x2="-99.5" y2="411.4"/>
							</g>
						</g>
						<g>
							<path id="XMLID_8_" class="st21" d="M-110.4,389.6l0.1,11.2c0.5,4.9,14.4,8.9,31.5,8.9s30.9-4,31.5-8.9l0.1-11.2H-110.4
								L-110.4,389.6z"/>
						</g>
					</g>
					<ellipse class="st22" cx="-78.9" cy="389.2" rx="31.5" ry="9.2"/>
				</g>
				<g>
					<g>
						<g>
							<path id="XMLID_55_" class="st0" d="M-110.4,371.6l0.1,11.2c0.5,4.9,14.4,8.9,31.5,8.9s30.9-4,31.5-8.9l0.1-11.2H-110.4z"/>
						</g>
						<g>
							<g>
								<defs>
									<path id="SVGID_49_" d="M-110.4,371.6l0.1,11.2c0.5,4.9,14.4,8.9,31.5,8.9s30.9-4,31.5-8.9l0.1-11.2H-110.4z"/>
								</defs>
								<clipPath id="SVGID_50_">
									<use xlink:href="#SVGID_49_"  style="overflow:visible;"/>
								</clipPath>
								<line class="st34" x1="-83" y1="378.6" x2="-83" y2="397.2"/>
							</g>
						</g>
						<g>
							<g>
								<defs>
									<path id="SVGID_51_" d="M-110.4,371.6l0.1,11.2c0.5,4.9,14.4,8.9,31.5,8.9s30.9-4,31.5-8.9l0.1-11.2H-110.4z"/>
								</defs>
								<clipPath id="SVGID_52_">
									<use xlink:href="#SVGID_51_"  style="overflow:visible;"/>
								</clipPath>
								<line class="st35" x1="-93.5" y1="378.1" x2="-93.5" y2="398.1"/>
							</g>
						</g>
						<g>
							<g>
								<defs>
									<path id="SVGID_53_" d="M-110.4,371.6l0.1,11.2c0.5,4.9,14.4,8.9,31.5,8.9s30.9-4,31.5-8.9l0.1-11.2H-110.4z"/>
								</defs>
								<clipPath id="SVGID_54_">
									<use xlink:href="#SVGID_53_"  style="overflow:visible;"/>
								</clipPath>
								<line class="st36" x1="-74.1" y1="378.4" x2="-74.1" y2="397.1"/>
							</g>
						</g>
						<g>
							<g>
								<defs>
									<path id="SVGID_55_" d="M-110.4,371.6l0.1,11.2c0.5,4.9,14.4,8.9,31.5,8.9s30.9-4,31.5-8.9l0.1-11.2H-110.4z"/>
								</defs>
								<clipPath id="SVGID_56_">
									<use xlink:href="#SVGID_55_"  style="overflow:visible;"/>
								</clipPath>
								<line class="st37" x1="-99.5" y1="377" x2="-99.5" y2="393.4"/>
							</g>
						</g>
						<g>
							<path id="XMLID_9_" class="st21" d="M-110.4,371.6l0.1,11.2c0.5,4.9,14.4,8.9,31.5,8.9s30.9-4,31.5-8.9l0.1-11.2H-110.4z"/>
						</g>
					</g>
					<ellipse class="st22" cx="-78.9" cy="371.2" rx="31.5" ry="9.2"/>
				</g>
				<g>
					<g>
						<g>
							<path id="XMLID_54_" class="st0" d="M-110.4,353.7l0.1,11.2c0.5,4.9,14.4,8.9,31.5,8.9s30.9-4,31.5-8.9l0.1-11.2H-110.4z"/>
						</g>
						<g>
							<g>
								<defs>
									<path id="SVGID_57_" d="M-110.4,353.7l0.1,11.2c0.5,4.9,14.4,8.9,31.5,8.9s30.9-4,31.5-8.9l0.1-11.2H-110.4z"/>
								</defs>
								<clipPath id="SVGID_58_">
									<use xlink:href="#SVGID_57_"  style="overflow:visible;"/>
								</clipPath>
								<line class="st38" x1="-83" y1="360.7" x2="-83" y2="379.3"/>
							</g>
						</g>
						<g>
							<g>
								<defs>
									<path id="SVGID_59_" d="M-110.4,353.7l0.1,11.2c0.5,4.9,14.4,8.9,31.5,8.9s30.9-4,31.5-8.9l0.1-11.2H-110.4z"/>
								</defs>
								<clipPath id="SVGID_60_">
									<use xlink:href="#SVGID_59_"  style="overflow:visible;"/>
								</clipPath>
								<line class="st39" x1="-93.5" y1="360.2" x2="-93.5" y2="380.2"/>
							</g>
						</g>
						<g>
							<g>
								<defs>
									<path id="SVGID_61_" d="M-110.4,353.7l0.1,11.2c0.5,4.9,14.4,8.9,31.5,8.9s30.9-4,31.5-8.9l0.1-11.2H-110.4z"/>
								</defs>
								<clipPath id="SVGID_62_">
									<use xlink:href="#SVGID_61_"  style="overflow:visible;"/>
								</clipPath>
								<line class="st40" x1="-74.1" y1="360.4" x2="-74.1" y2="379.1"/>
							</g>
						</g>
						<g>
							<g>
								<defs>
									<path id="SVGID_63_" d="M-110.4,353.7l0.1,11.2c0.5,4.9,14.4,8.9,31.5,8.9s30.9-4,31.5-8.9l0.1-11.2H-110.4z"/>
								</defs>
								<clipPath id="SVGID_64_">
									<use xlink:href="#SVGID_63_"  style="overflow:visible;"/>
								</clipPath>
								<line class="st41" x1="-99.5" y1="359.1" x2="-99.5" y2="375.5"/>
							</g>
						</g>
						<g>
							<path id="XMLID_10_" class="st21" d="M-110.4,353.7l0.1,11.2c0.5,4.9,14.4,8.9,31.5,8.9s30.9-4,31.5-8.9l0.1-11.2H-110.4z"/>
						</g>
					</g>
					<ellipse class="st22" cx="-78.9" cy="353.3" rx="31.5" ry="9.2"/>
				</g>
				<g>
					<g>
						<g>
							<path id="XMLID_53_" class="st0" d="M-110.4,335.8l0.1,11.2c0.5,4.9,14.4,8.9,31.5,8.9s30.9-4,31.5-8.9l0.1-11.2H-110.4z"/>
						</g>
						<g>
							<g>
								<defs>
									<path id="SVGID_65_" d="M-110.4,335.8l0.1,11.2c0.5,4.9,14.4,8.9,31.5,8.9s30.9-4,31.5-8.9l0.1-11.2H-110.4z"/>
								</defs>
								<clipPath id="SVGID_66_">
									<use xlink:href="#SVGID_65_"  style="overflow:visible;"/>
								</clipPath>
								<line class="st42" x1="-83" y1="342.8" x2="-83" y2="361.3"/>
							</g>
						</g>
						<g>
							<g>
								<defs>
									<path id="SVGID_67_" d="M-110.4,335.8l0.1,11.2c0.5,4.9,14.4,8.9,31.5,8.9s30.9-4,31.5-8.9l0.1-11.2H-110.4z"/>
								</defs>
								<clipPath id="SVGID_68_">
									<use xlink:href="#SVGID_67_"  style="overflow:visible;"/>
								</clipPath>
								<line class="st43" x1="-93.5" y1="342.2" x2="-93.5" y2="362.3"/>
							</g>
						</g>
						<g>
							<g>
								<defs>
									<path id="SVGID_69_" d="M-110.4,335.8l0.1,11.2c0.5,4.9,14.4,8.9,31.5,8.9s30.9-4,31.5-8.9l0.1-11.2H-110.4z"/>
								</defs>
								<clipPath id="SVGID_70_">
									<use xlink:href="#SVGID_69_"  style="overflow:visible;"/>
								</clipPath>
								<line class="st44" x1="-74.1" y1="342.5" x2="-74.1" y2="361.2"/>
							</g>
						</g>
						<g>
							<g>
								<defs>
									<path id="SVGID_71_" d="M-110.4,335.8l0.1,11.2c0.5,4.9,14.4,8.9,31.5,8.9s30.9-4,31.5-8.9l0.1-11.2H-110.4z"/>
								</defs>
								<clipPath id="SVGID_72_">
									<use xlink:href="#SVGID_71_"  style="overflow:visible;"/>
								</clipPath>
								<line class="st45" x1="-99.5" y1="341.2" x2="-99.5" y2="357.6"/>
							</g>
						</g>
						<g>
							<path id="XMLID_11_" class="st21" d="M-110.4,335.8l0.1,11.2c0.5,4.9,14.4,8.9,31.5,8.9s30.9-4,31.5-8.9l0.1-11.2H-110.4z"/>
						</g>
					</g>
					<ellipse class="st22" cx="-78.9" cy="335.4" rx="31.5" ry="9.2"/>
				</g>
				<g>
					<g>
						<g>
							<path id="XMLID_52_" class="st0" d="M-110.4,317.9l0.1,11.2c0.5,4.9,14.4,8.9,31.5,8.9s30.9-4,31.5-8.9l0.1-11.2H-110.4z"/>
						</g>
						<g>
							<g>
								<defs>
									<path id="SVGID_73_" d="M-110.4,317.9l0.1,11.2c0.5,4.9,14.4,8.9,31.5,8.9s30.9-4,31.5-8.9l0.1-11.2H-110.4z"/>
								</defs>
								<clipPath id="SVGID_74_">
									<use xlink:href="#SVGID_73_"  style="overflow:visible;"/>
								</clipPath>
								<line class="st46" x1="-83" y1="324.9" x2="-83" y2="343.4"/>
							</g>
						</g>
						<g>
							<g>
								<defs>
									<path id="SVGID_75_" d="M-110.4,317.9l0.1,11.2c0.5,4.9,14.4,8.9,31.5,8.9s30.9-4,31.5-8.9l0.1-11.2H-110.4z"/>
								</defs>
								<clipPath id="SVGID_76_">
									<use xlink:href="#SVGID_75_"  style="overflow:visible;"/>
								</clipPath>
								<line class="st47" x1="-93.5" y1="324.3" x2="-93.5" y2="344.3"/>
							</g>
						</g>
						<g>
							<g>
								<defs>
									<path id="SVGID_77_" d="M-110.4,317.9l0.1,11.2c0.5,4.9,14.4,8.9,31.5,8.9s30.9-4,31.5-8.9l0.1-11.2H-110.4z"/>
								</defs>
								<clipPath id="SVGID_78_">
									<use xlink:href="#SVGID_77_"  style="overflow:visible;"/>
								</clipPath>
								<line class="st48" x1="-74.1" y1="324.6" x2="-74.1" y2="343.3"/>
							</g>
						</g>
						<g>
							<g>
								<defs>
									<path id="SVGID_79_" d="M-110.4,317.9l0.1,11.2c0.5,4.9,14.4,8.9,31.5,8.9s30.9-4,31.5-8.9l0.1-11.2H-110.4z"/>
								</defs>
								<clipPath id="SVGID_80_">
									<use xlink:href="#SVGID_79_"  style="overflow:visible;"/>
								</clipPath>
								<line class="st49" x1="-99.5" y1="323.2" x2="-99.5" y2="339.6"/>
							</g>
						</g>
						<g>
							<path id="XMLID_12_" class="st21" d="M-110.4,317.9l0.1,11.2c0.5,4.9,14.4,8.9,31.5,8.9s30.9-4,31.5-8.9l0.1-11.2H-110.4z"/>
						</g>
					</g>
					<ellipse class="st22" cx="-78.9" cy="317.5" rx="31.5" ry="9.2"/>
				</g>
				<g>
					<g>
						<g>
							<path id="XMLID_51_" class="st0" d="M-110.4,299.9l0.1,11.2c0.5,4.9,14.4,8.9,31.5,8.9s30.9-4,31.5-8.9l0.1-11.2H-110.4z"/>
						</g>
						<g>
							<g>
								<defs>
									<path id="SVGID_81_" d="M-110.4,299.9l0.1,11.2c0.5,4.9,14.4,8.9,31.5,8.9s30.9-4,31.5-8.9l0.1-11.2H-110.4z"/>
								</defs>
								<clipPath id="SVGID_82_">
									<use xlink:href="#SVGID_81_"  style="overflow:visible;"/>
								</clipPath>
								<line class="st50" x1="-83" y1="306.9" x2="-83" y2="325.5"/>
							</g>
						</g>
						<g>
							<g>
								<defs>
									<path id="SVGID_83_" d="M-110.4,299.9l0.1,11.2c0.5,4.9,14.4,8.9,31.5,8.9s30.9-4,31.5-8.9l0.1-11.2H-110.4z"/>
								</defs>
								<clipPath id="SVGID_84_">
									<use xlink:href="#SVGID_83_"  style="overflow:visible;"/>
								</clipPath>
								<line class="st51" x1="-93.5" y1="306.4" x2="-93.5" y2="326.4"/>
							</g>
						</g>
						<g>
							<g>
								<defs>
									<path id="SVGID_85_" d="M-110.4,299.9l0.1,11.2c0.5,4.9,14.4,8.9,31.5,8.9s30.9-4,31.5-8.9l0.1-11.2H-110.4z"/>
								</defs>
								<clipPath id="SVGID_86_">
									<use xlink:href="#SVGID_85_"  style="overflow:visible;"/>
								</clipPath>
								<line class="st52" x1="-74.1" y1="306.7" x2="-74.1" y2="325.3"/>
							</g>
						</g>
						<g>
							<g>
								<defs>
									<path id="SVGID_87_" d="M-110.4,299.9l0.1,11.2c0.5,4.9,14.4,8.9,31.5,8.9s30.9-4,31.5-8.9l0.1-11.2H-110.4z"/>
								</defs>
								<clipPath id="SVGID_88_">
									<use xlink:href="#SVGID_87_"  style="overflow:visible;"/>
								</clipPath>
								<line class="st53" x1="-99.5" y1="305.3" x2="-99.5" y2="321.7"/>
							</g>
						</g>
						<g>
							<path id="XMLID_13_" class="st21" d="M-110.4,299.9l0.1,11.2c0.5,4.9,14.4,8.9,31.5,8.9s30.9-4,31.5-8.9l0.1-11.2H-110.4z"/>
						</g>
					</g>
					<ellipse class="st22" cx="-78.9" cy="299.5" rx="31.5" ry="9.2"/>
				</g>
				<g>
					<g>
						<g>
							<path id="XMLID_50_" class="st0" d="M-110.4,282l0.1,11.2c0.5,4.9,14.4,8.9,31.5,8.9s30.9-4,31.5-8.9l0.1-11.2H-110.4z"/>
						</g>
						<g>
							<g>
								<defs>
									<path id="SVGID_89_" d="M-110.4,282l0.1,11.2c0.5,4.9,14.4,8.9,31.5,8.9s30.9-4,31.5-8.9l0.1-11.2H-110.4z"/>
								</defs>
								<clipPath id="SVGID_90_">
									<use xlink:href="#SVGID_89_"  style="overflow:visible;"/>
								</clipPath>
								<line class="st54" x1="-83" y1="289" x2="-83" y2="307.6"/>
							</g>
						</g>
						<g>
							<g>
								<defs>
									<path id="SVGID_91_" d="M-110.4,282l0.1,11.2c0.5,4.9,14.4,8.9,31.5,8.9s30.9-4,31.5-8.9l0.1-11.2H-110.4z"/>
								</defs>
								<clipPath id="SVGID_92_">
									<use xlink:href="#SVGID_91_"  style="overflow:visible;"/>
								</clipPath>
								<line class="st55" x1="-93.5" y1="288.5" x2="-93.5" y2="308.5"/>
							</g>
						</g>
						<g>
							<g>
								<defs>
									<path id="SVGID_93_" d="M-110.4,282l0.1,11.2c0.5,4.9,14.4,8.9,31.5,8.9s30.9-4,31.5-8.9l0.1-11.2H-110.4z"/>
								</defs>
								<clipPath id="SVGID_94_">
									<use xlink:href="#SVGID_93_"  style="overflow:visible;"/>
								</clipPath>
								<line class="st56" x1="-74.1" y1="288.7" x2="-74.1" y2="307.4"/>
							</g>
						</g>
						<g>
							<g>
								<defs>
									<path id="SVGID_95_" d="M-110.4,282l0.1,11.2c0.5,4.9,14.4,8.9,31.5,8.9s30.9-4,31.5-8.9l0.1-11.2H-110.4z"/>
								</defs>
								<clipPath id="SVGID_96_">
									<use xlink:href="#SVGID_95_"  style="overflow:visible;"/>
								</clipPath>
								<line class="st57" x1="-99.5" y1="287.4" x2="-99.5" y2="303.8"/>
							</g>
						</g>
						<g>
							<path id="XMLID_14_" class="st21" d="M-110.4,282l0.1,11.2c0.5,4.9,14.4,8.9,31.5,8.9s30.9-4,31.5-8.9l0.1-11.2H-110.4z"/>
						</g>
					</g>
					<ellipse class="st22" cx="-78.9" cy="281.6" rx="31.5" ry="9.2"/>
				</g>
				<g>
					<g>
						<g>
							<path id="XMLID_49_" class="st0" d="M-99.7,264.1l0.1,11.2c0.5,4.9,14.4,8.9,31.5,8.9s30.9-4,31.5-8.9l0.1-11.2H-99.7z"/>
						</g>
						<g>
							<g>
								<defs>
									<path id="SVGID_97_" d="M-99.7,264.1l0.1,11.2c0.5,4.9,14.4,8.9,31.5,8.9s30.9-4,31.5-8.9l0.1-11.2H-99.7z"/>
								</defs>
								<clipPath id="SVGID_98_">
									<use xlink:href="#SVGID_97_"  style="overflow:visible;"/>
								</clipPath>
								<line class="st58" x1="-72.3" y1="271.1" x2="-72.3" y2="289.6"/>
							</g>
						</g>
						<g>
							<g>
								<defs>
									<path id="SVGID_99_" d="M-99.7,264.1l0.1,11.2c0.5,4.9,14.4,8.9,31.5,8.9s30.9-4,31.5-8.9l0.1-11.2H-99.7z"/>
								</defs>
								<clipPath id="SVGID_100_">
									<use xlink:href="#SVGID_99_"  style="overflow:visible;"/>
								</clipPath>
								<line class="st59" x1="-82.8" y1="270.5" x2="-82.8" y2="290.6"/>
							</g>
						</g>
						<g>
							<g>
								<defs>
									<path id="SVGID_101_" d="M-99.7,264.1l0.1,11.2c0.5,4.9,14.4,8.9,31.5,8.9s30.9-4,31.5-8.9l0.1-11.2H-99.7z"/>
								</defs>
								<clipPath id="SVGID_102_">
									<use xlink:href="#SVGID_101_"  style="overflow:visible;"/>
								</clipPath>
								<line class="st60" x1="-63.4" y1="270.8" x2="-63.4" y2="289.5"/>
							</g>
						</g>
						<g>
							<g>
								<defs>
									<path id="SVGID_103_" d="M-99.7,264.1l0.1,11.2c0.5,4.9,14.4,8.9,31.5,8.9s30.9-4,31.5-8.9l0.1-11.2H-99.7z"/>
								</defs>
								<clipPath id="SVGID_104_">
									<use xlink:href="#SVGID_103_"  style="overflow:visible;"/>
								</clipPath>
								<line class="st61" x1="-88.8" y1="269.5" x2="-88.8" y2="285.9"/>
							</g>
						</g>
						<g>
							<path id="XMLID_15_" class="st21" d="M-99.7,264.1l0.1,11.2c0.5,4.9,14.4,8.9,31.5,8.9s30.9-4,31.5-8.9l0.1-11.2H-99.7z"/>
						</g>
					</g>
					<ellipse class="st22" cx="-68.2" cy="263.7" rx="31.5" ry="9.2"/>
				</g>
				<g>
					<g>
						<g>
							<path id="XMLID_35_" class="st0" d="M-103.7,246.9l0.1,11.2c0.5,4.9,14.4,8.9,31.5,8.9s30.9-4,31.5-8.9l0.1-11.2
								L-103.7,246.9L-103.7,246.9z"/>
						</g>
						<g>
							<g>
								<defs>
									<path id="SVGID_105_" d="M-103.7,246.9l0.1,11.2c0.5,4.9,14.4,8.9,31.5,8.9s30.9-4,31.5-8.9l0.1-11.2L-103.7,246.9
										L-103.7,246.9z"/>
								</defs>
								<clipPath id="SVGID_106_">
									<use xlink:href="#SVGID_105_"  style="overflow:visible;"/>
								</clipPath>
								<line class="st62" x1="-76.3" y1="253.9" x2="-76.3" y2="272.4"/>
							</g>
						</g>
						<g>
							<g>
								<defs>
									<path id="SVGID_107_" d="M-103.7,246.9l0.1,11.2c0.5,4.9,14.4,8.9,31.5,8.9s30.9-4,31.5-8.9l0.1-11.2L-103.7,246.9
										L-103.7,246.9z"/>
								</defs>
								<clipPath id="SVGID_108_">
									<use xlink:href="#SVGID_107_"  style="overflow:visible;"/>
								</clipPath>
								<line class="st63" x1="-86.7" y1="253.3" x2="-86.7" y2="273.4"/>
							</g>
						</g>
						<g>
							<g>
								<defs>
									<path id="SVGID_109_" d="M-103.7,246.9l0.1,11.2c0.5,4.9,14.4,8.9,31.5,8.9s30.9-4,31.5-8.9l0.1-11.2L-103.7,246.9
										L-103.7,246.9z"/>
								</defs>
								<clipPath id="SVGID_110_">
									<use xlink:href="#SVGID_109_"  style="overflow:visible;"/>
								</clipPath>
								<line class="st64" x1="-67.3" y1="253.6" x2="-67.3" y2="272.3"/>
							</g>
						</g>
						<g>
							<g>
								<defs>
									<path id="SVGID_111_" d="M-103.7,246.9l0.1,11.2c0.5,4.9,14.4,8.9,31.5,8.9s30.9-4,31.5-8.9l0.1-11.2L-103.7,246.9
										L-103.7,246.9z"/>
								</defs>
								<clipPath id="SVGID_112_">
									<use xlink:href="#SVGID_111_"  style="overflow:visible;"/>
								</clipPath>
								<line class="st65" x1="-92.7" y1="252.2" x2="-92.7" y2="268.7"/>
							</g>
						</g>
						<g>
							<path id="XMLID_16_" class="st21" d="M-103.7,246.9l0.1,11.2c0.5,4.9,14.4,8.9,31.5,8.9s30.9-4,31.5-8.9l0.1-11.2
								L-103.7,246.9L-103.7,246.9z"/>
						</g>
					</g>
					<ellipse class="st22" cx="-72.1" cy="246.5" rx="31.5" ry="9.2"/>
				</g>
			</g>
		</g>
	</g>
</g>
</svg>
