<?xml version="1.0" encoding="utf-8"?>
<!-- Generator: Adobe Illustrator 18.0.0, SVG Export Plug-In . SVG Version: 6.00 Build 0)  -->
<!DOCTYPE svg PUBLIC "-//W3C//DTD SVG 1.1//EN" "http://www.w3.org/Graphics/SVG/1.1/DTD/svg11.dtd" [
	<!ENTITY ns_extend "http://ns.adobe.com/Extensibility/1.0/">
	<!ENTITY ns_ai "http://ns.adobe.com/AdobeIllustrator/10.0/">
	<!ENTITY ns_graphs "http://ns.adobe.com/Graphs/1.0/">
	<!ENTITY ns_vars "http://ns.adobe.com/Variables/1.0/">
	<!ENTITY ns_imrep "http://ns.adobe.com/ImageReplacement/1.0/">
	<!ENTITY ns_sfw "http://ns.adobe.com/SaveForWeb/1.0/">
	<!ENTITY ns_custom "http://ns.adobe.com/GenericCustomNamespace/1.0/">
	<!ENTITY ns_adobe_xpath "http://ns.adobe.com/XPath/1.0/">
]>
<svg version="1.1" id="Layer_1" xmlns:x="&ns_extend;" xmlns:i="&ns_ai;" xmlns:graph="&ns_graphs;"
	 xmlns="http://www.w3.org/2000/svg" xmlns:xlink="http://www.w3.org/1999/xlink" x="0px" y="0px" viewBox="-5 -5 510 510"
	 enable-background="new -5 -5 510 510" xml:space="preserve">
<metadata>
	<sfw  xmlns="&ns_sfw;">
		<slices></slices>
		<sliceSourceBounds  width="383.9" height="504.9" x="64.2" y="-2.9" bottomLeftOrigin="true"></sliceSourceBounds>
	</sfw>
</metadata>
<path fill="#DEBB2C" d="M435.5,183.5c0-102.3-83.2-185.6-185.6-185.6C147.5-2.1,64.2,81.2,64.2,183.6c0,20.2,3.5,40.6,10.3,60.6
	c21.2,64.2,67.4,130.7,102.4,175.2c37.9,48.2,71.2,81.7,71.5,82l1.4,1.4l1.5-1.3c0.3-0.3,33.7-31.3,71.7-78.2
	c35-43.4,81.3-109.6,102.5-179C432.4,223.8,435.8,203.4,435.5,183.5z"/>
<g>
	<g>
		
			<ellipse id="XMLID_191_" fill="#DEBB2C" stroke="#DEBB2C" stroke-width="2.0676" stroke-miterlimit="10" cx="250.1" cy="194.3" rx="131.4" ry="131.9"/>
		<g>
			<defs>
				<ellipse id="XMLID_185_" cx="250.1" cy="177.7" rx="131.4" ry="131.9"/>
			</defs>
			<use xlink:href="#XMLID_185_"  overflow="visible" fill="#FFFFFF"/>
			<clipPath id="XMLID_3_">
				<use xlink:href="#XMLID_185_"  overflow="visible"/>
			</clipPath>
			<g clip-path="url(#XMLID_3_)">
				<polygon fill="#FFFFFF" stroke="#A3A3A3" stroke-width="1.0338" stroke-miterlimit="10" points="121,387.6 236.5,387.6 
					132.9,198.9 93.4,188.6 				"/>
				
					<rect x="105.5" y="178.2" fill="#DEBB2C" stroke="#FFFFFF" stroke-width="2.0676" stroke-miterlimit="10" width="115.5" height="188.6"/>
			</g>
			<g clip-path="url(#XMLID_3_)">
				<polygon fill="#DEBB2C" stroke="#FFFFFF" stroke-width="2.0676" stroke-miterlimit="10" points="139.4,333.7 242.1,333.7 
					150,145 138.8,155.4 				"/>
				
					<rect x="149.5" y="145" fill="#DEBB2C" stroke="#FFFFFF" stroke-width="2.0676" stroke-miterlimit="10" width="98.1" height="188.6"/>
			</g>
			<g clip-path="url(#XMLID_3_)">
				<g>
					<defs>
						<rect id="XMLID_190_" x="258.9" y="103.3" width="145.9" height="281.4"/>
					</defs>
					<use xlink:href="#XMLID_190_"  overflow="visible" fill="#DEBB2C"/>
					<clipPath id="XMLID_4_">
						<use xlink:href="#XMLID_190_"  overflow="visible"/>
					</clipPath>
					
						<use xlink:href="#XMLID_190_"  overflow="visible" fill="none" stroke="#FFFFFF" stroke-width="1.0338" stroke-miterlimit="10"/>
				</g>
			</g>
			<g clip-path="url(#XMLID_3_)">
				
					<ellipse fill="#FFFFFF" stroke="#DEBB2C" stroke-width="2.0676" stroke-miterlimit="10" cx="294.9" cy="107.3" rx="68.3" ry="68.6"/>
				
					<ellipse fill="#FFFFFF" stroke="#DEBB2C" stroke-width="2.0676" stroke-miterlimit="10" cx="294.9" cy="107.3" rx="57.1" ry="57.4"/>
				
					<ellipse fill="#FFFFFF" stroke="#DEBB2C" stroke-width="2.0676" stroke-miterlimit="10" cx="294.9" cy="107.3" rx="45.5" ry="45.7"/>
				
					<ellipse fill="#FFFFFF" stroke="#DEBB2C" stroke-width="2.0676" stroke-miterlimit="10" cx="294.9" cy="107.3" rx="32.5" ry="32.6"/>
				
					<ellipse fill="#FFFFFF" stroke="#DEBB2C" stroke-width="2.0676" stroke-miterlimit="10" cx="295.3" cy="105.5" rx="19.8" ry="19.9"/>
			</g>
			<g clip-path="url(#XMLID_3_)">
				<polygon fill="#FFFFFF" stroke="#DEBB2C" stroke-width="2.0676" stroke-miterlimit="10" points="308.7,395.9 424.2,395.9 
					320.6,207.2 307.9,217.6 				"/>
				<g>
					<defs>
						<rect id="XMLID_189_" x="320.1" y="207.2" width="115.5" height="188.6"/>
					</defs>
					<use xlink:href="#XMLID_189_"  overflow="visible" fill="#FFFFFF"/>
					<clipPath id="XMLID_5_">
						<use xlink:href="#XMLID_189_"  overflow="visible"/>
					</clipPath>
					
						<rect x="334.7" y="219.9" clip-path="url(#XMLID_5_)" fill="#FFFFFF" stroke="#DEBB2C" stroke-width="2.0676" stroke-miterlimit="10" width="67" height="97.4"/>
					
						<rect x="349.6" y="233.9" clip-path="url(#XMLID_5_)" fill="#FFFFFF" stroke="#DEBB2C" stroke-width="2.0676" stroke-miterlimit="10" width="72.7" height="76.2"/>
					
						<use xlink:href="#XMLID_189_"  overflow="visible" fill="none" stroke="#DEBB2C" stroke-width="2.0676" stroke-miterlimit="10"/>
				</g>
			</g>
			<g clip-path="url(#XMLID_3_)">
				<defs>
					<rect id="XMLID_188_" x="190.1" y="278.6" width="179.4" height="58"/>
				</defs>
				<use xlink:href="#XMLID_188_"  overflow="visible" fill="#FFFFFF"/>
				<clipPath id="XMLID_6_">
					<use xlink:href="#XMLID_188_"  overflow="visible"/>
				</clipPath>
				
					<rect x="173.3" y="262.4" clip-path="url(#XMLID_6_)" fill="#FFFFFF" stroke="#DEBB2C" stroke-width="2.0676" stroke-miterlimit="10" width="273.8" height="24.4"/>
				
					<use xlink:href="#XMLID_188_"  overflow="visible" fill="none" stroke="#DEBB2C" stroke-width="2.0676" stroke-miterlimit="10"/>
			</g>
			<g clip-path="url(#XMLID_3_)">
				
					<ellipse fill="#FFFFFF" stroke="#DEBB2C" stroke-width="2.0676" stroke-miterlimit="10" cx="376.1" cy="166.3" rx="18.7" ry="18.8"/>
				
					<ellipse fill="#FFFFFF" stroke="#DEBB2C" stroke-width="2.0676" stroke-miterlimit="10" cx="376.1" cy="166.3" rx="7.9" ry="7.9"/>
			</g>
			<g clip-path="url(#XMLID_3_)">
				
					<ellipse fill="#FFFFFF" stroke="#DEBB2C" stroke-width="2.0676" stroke-miterlimit="10" cx="365.1" cy="187.1" rx="10.3" ry="10.3"/>
			</g>
			<g clip-path="url(#XMLID_3_)">
				
					<ellipse fill="#FFFFFF" stroke="#DEBB2C" stroke-width="2.0676" stroke-miterlimit="10" cx="337.6" cy="161.5" rx="10.3" ry="10.3"/>
			</g>
			<g clip-path="url(#XMLID_3_)">
				
					<ellipse fill="#FFFFFF" stroke="#DEBB2C" stroke-width="2.0676" stroke-miterlimit="10" cx="341.7" cy="123.8" rx="10.3" ry="10.3"/>
			</g>
			<g clip-path="url(#XMLID_3_)">
				
					<ellipse fill="#FFFFFF" stroke="#DEBB2C" stroke-width="2.0676" stroke-miterlimit="10" cx="301.9" cy="149.5" rx="13.5" ry="13.6"/>
				
					<ellipse fill="#FFFFFF" stroke="#DEBB2C" stroke-width="2.0676" stroke-miterlimit="10" cx="301.9" cy="149.5" rx="4.8" ry="4.8"/>
			</g>
			<g clip-path="url(#XMLID_3_)">
				<defs>
					<path id="SVGID_1_" d="M267,126.4h42.3v-0.5h2.6V96.3h-9.3v10.7l-36.6-13.1l-9.5-26.4l-40.6,0.3l-13.8,26.8L168,106.9l1.5-11.8
						l-11,0.3l0.2,24.1l-0.2,8.3h8.9l34.2-0.4l-0.2,42.7L169,181.9l0.5-14.2h-9.3l-0.5,25.3v6l0.1,3.7l42.3,0.7
						c-14.1,67.4-23.5,103-23.5,103.7l7.2,12.4c0.1-0.8,11.8-54.4,13-60.1h70.7l12.5,63.2l10.7,3.1l-25-125.9H301v0.3h9.3v-0.3V193
						l-1-24.2l-8.2-0.3l0,13.6l-34-12.2V126.4z"/>
				</defs>
				<defs>
					<polygon id="SVGID_2_" points="211.8,193 211.8,175.3 212.3,174.8 256.7,174.8 256.7,193 					"/>
				</defs>
				<defs>
					<rect id="SVGID_3_" x="211.8" y="103.3" width="44.9" height="16.3"/>
				</defs>
				<defs>
					<polygon id="SVGID_4_" points="219.2,168.1 256.7,131.8 256.7,168.1 					"/>
				</defs>
				<defs>
					<polygon id="SVGID_5_" points="302.6,119.7 267,119.7 266.8,105.2 302.9,115.9 					"/>
				</defs>
				<defs>
					<polygon id="SVGID_6_" points="221.5,81 246,81 254.2,94.5 214,94.5 					"/>
				</defs>
				<defs>
					<polygon id="SVGID_7_" points="168,119.7 168,113.2 201.5,101.2 201.5,119.7 					"/>
				</defs>
				<defs>
					<polygon id="SVGID_8_" points="252.6,126.4 211.8,165.9 211.8,126.4 					"/>
				</defs>
				<defs>
					<polygon id="SVGID_9_" points="169,188.2 201.5,176.6 201.5,193 169,193 					"/>
				</defs>
				<defs>
					<path id="SVGID_10_" d="M254.7,199.7l-54.4,52.7c3-14.7,7.4-35.9,10.9-52.7H254.7z"/>
				</defs>
				<defs>
					<polygon id="SVGID_11_" points="209.8,252.6 258.4,205.5 268.2,252.6 					"/>
				</defs>
				<defs>
					<polygon id="SVGID_12_" points="301,188.3 301,193 267,193 267,176.1 					"/>
				</defs>
				<use xlink:href="#SVGID_1_"  overflow="visible" fill="#DEBB2C"/>
				<use xlink:href="#SVGID_2_"  overflow="visible" fill="#DEBB2C"/>
				<use xlink:href="#SVGID_3_"  overflow="visible" fill="#DEBB2C"/>
				<use xlink:href="#SVGID_4_"  overflow="visible" fill="#DEBB2C"/>
				<use xlink:href="#SVGID_5_"  overflow="visible" fill="#DEBB2C"/>
				<use xlink:href="#SVGID_6_"  overflow="visible" fill="#DEBB2C"/>
				<use xlink:href="#SVGID_7_"  overflow="visible" fill="#DEBB2C"/>
				<use xlink:href="#SVGID_8_"  overflow="visible" fill="#DEBB2C"/>
				<use xlink:href="#SVGID_9_"  overflow="visible" fill="#DEBB2C"/>
				<use xlink:href="#SVGID_10_"  overflow="visible" fill="#DEBB2C"/>
				<use xlink:href="#SVGID_11_"  overflow="visible" fill="#DEBB2C"/>
				<use xlink:href="#SVGID_12_"  overflow="visible" fill="#DEBB2C"/>
				<clipPath id="SVGID_13_">
					<use xlink:href="#SVGID_1_"  overflow="visible"/>
				</clipPath>
				<clipPath id="SVGID_14_" clip-path="url(#SVGID_13_)">
					<use xlink:href="#SVGID_2_"  overflow="visible"/>
				</clipPath>
				<clipPath id="SVGID_15_" clip-path="url(#SVGID_14_)">
					<use xlink:href="#SVGID_3_"  overflow="visible"/>
				</clipPath>
				<clipPath id="SVGID_16_" clip-path="url(#SVGID_15_)">
					<use xlink:href="#SVGID_4_"  overflow="visible"/>
				</clipPath>
				<clipPath id="SVGID_17_" clip-path="url(#SVGID_16_)">
					<use xlink:href="#SVGID_5_"  overflow="visible"/>
				</clipPath>
				<clipPath id="SVGID_18_" clip-path="url(#SVGID_17_)">
					<use xlink:href="#SVGID_6_"  overflow="visible"/>
				</clipPath>
				<clipPath id="SVGID_19_" clip-path="url(#SVGID_18_)">
					<use xlink:href="#SVGID_7_"  overflow="visible"/>
				</clipPath>
				<clipPath id="SVGID_20_" clip-path="url(#SVGID_19_)">
					<use xlink:href="#SVGID_8_"  overflow="visible"/>
				</clipPath>
				<clipPath id="SVGID_21_" clip-path="url(#SVGID_20_)">
					<use xlink:href="#SVGID_9_"  overflow="visible"/>
				</clipPath>
				<clipPath id="SVGID_22_" clip-path="url(#SVGID_21_)">
					<use xlink:href="#SVGID_10_"  overflow="visible"/>
				</clipPath>
				<clipPath id="SVGID_23_" clip-path="url(#SVGID_22_)">
					<use xlink:href="#SVGID_11_"  overflow="visible"/>
				</clipPath>
				<clipPath id="SVGID_24_" clip-path="url(#SVGID_23_)">
					<use xlink:href="#SVGID_12_"  overflow="visible"/>
				</clipPath>
			</g>
			<g clip-path="url(#XMLID_3_)">
				<path fill="#FFFFFF" d="M289,323.8l-12.5-62.9h-68.1c-1.1,5.1-4.3,20.1-7.3,33.5c-2.6,12.1-5.3,24.6-5.5,25.2l-0.8,4.3l-2.2-3.8
					l-7.4-12.8V307c0-1,9.2-46.3,21.6-105.7h-40.5v-33.5h12.5v11.9l29.3-10.5V128h-42.8V94.5h12.5v10.2l31.4-11.3l13.6-24.3H261
					l14.3,23.5l33.9,12.2V94.7h12.5v32.7h-2.6v0.5h-42.3v40.7l30.8,11.1v-10.9h12.5v32.7h-12.5v-0.3h-29.7l25.2,126.6L289,323.8z
					 M274.4,251l-8.8-42.3L222,251H274.4z M220.7,201.3c-3.6,17.2-7.1,34-9.6,46.4l47.9-46.4H220.7z M307.7,191.4v-2l-30.8-11.1v13
					H307.7z M263.3,191.4v-14.9h-41.7v14.9H263.3z M208.1,191.4v-12.5l-29.3,10.5v2H208.1z M263.3,166.5v-30.9l-31.9,30.9H263.3z
					 M221.7,162.1l35.3-34.2h-35.3V162.1z M309.2,118v-3.6l-32.4-11.6V118H309.2z M263.3,118v-13.1h-41.7V118H263.3z M208.1,118
					v-14.6l-30.3,10.9v3.7H208.1z M259.6,92.9l-6.2-10.3h-22.7L225,92.9H259.6z"/>
				<path fill="#DEBB2C" d="M260.1,70.7l14.1,23.2l36.6,13.1V96.3h9.3v29.5h-2.6v0.5h-42.3v43.4l34,12.2v-11.5h9.3V193v6.7v0.3h-9.3
					v-0.3H276l25,125.9l-10.7-3.1l-12.5-63.2h-70.7c-1.2,5.7-12.9,59.3-13,60.1l-7.2-12.4c0-0.7,7.9-39.9,22-107.3H168v-0.8v-6
					v-23.6h9.3v12.5l32.5-11.6v-43.9h-42.8v-0.8v-6V96.1h9.3v10.9l34.1-12.2l13.4-24H260.1 M222.3,94.5h40.2L254.3,81h-24.5
					L222.3,94.5 M275.2,119.7h35.6v-6.3l-35.6-12.8V119.7 M176.2,119.7h33.5v-18.4l-33.5,12V119.7 M220.1,119.7h44.9v-16.3h-44.9
					V119.7 M220.1,165.9l40.8-39.5h-40.8V165.9 M227.5,168.1h37.4v-36.3L227.5,168.1 M220.1,193h44.9v-18.1h-44.4l-0.5,0.4V193
					 M275.2,193h34v-4.7l-34-12.2V193 M177.3,193h32.5v-16.4l-32.5,11.6V193 M208.5,252.4l54.4-52.7h-43.5
					C215.9,216.5,211.5,237.7,208.5,252.4 M218,252.6h58.4l-9.8-47.1L218,252.6 M261.9,67.5h-1.8h-36.3h-1.9l-0.9,1.6l-12.8,23
					l-28.7,10.3v-6.3v-3.2h-3.2h-9.3h-3.2v3.2v23.6v6v0.8v3.2h3.2h39.6V168l-26.1,9.3v-8v-3.2h-3.2H168h-3.2v3.2V193v6v0.8v3.2h3.2
					h36.9c-8.9,42.5-21.2,102.5-21.2,104.1v0.9l0.4,0.7l7.2,12.4l4.7,8.1l1.2-9.2c0.2-1.1,2.9-13.3,5.4-25.2
					c2.7-12.4,5.7-26.2,7-32.2h65.5l12,60.6l0.4,1.9l1.9,0.5l10.7,3.1l5.1,1.5l-1-5.2l-24.3-122.1h26.2v0.3h3.2h9.3h3.2V200v-0.3
					V193v-22.5v-3.2h-3.2h-9.3h-3.2v3.2v7l-27.6-9.9v-37.9h39.1h3.2v-0.5h2.6v-3.2V96.3v-3.2h-3.2h-9.3h-3.2v3.2v6.2l-31.3-11.2
					L262.8,69L261.9,67.5L261.9,67.5z M231.7,84.3h20.8l4.3,7.1h-29L231.7,84.3L231.7,84.3z M278.4,116.4v-11.3l29.2,10.5v0.8H278.4
					L278.4,116.4z M179.4,115.5l27.1-9.7v10.7h-27.1V115.5L179.4,115.5z M223.3,106.5h38.4v9.9h-38.4V106.5L223.3,106.5z
					 M223.3,129.6H253l-29.7,28.8V129.6L223.3,129.6z M235.4,164.9l26.3-25.5v25.5H235.4L235.4,164.9z M223.3,178h38.4v11.7h-38.4
					V178L223.3,178z M278.4,189.8v-9.1l25.5,9.1H278.4L278.4,189.8z M182.5,189.8l24.1-8.6v8.6H182.5L182.5,189.8z M222,202.9h33
					l-41.3,40C216.1,231.5,219,217.4,222,202.9L222,202.9z M225.9,249.4l38.8-37.5l7.8,37.5H225.9L225.9,249.4z"/>
			</g>
			<g clip-path="url(#XMLID_3_)">
				
					<ellipse fill="#FFFFFF" stroke="#DEBB2C" stroke-width="2.0676" stroke-miterlimit="10" cx="177.8" cy="276.5" rx="49.6" ry="49.9"/>
				
					<ellipse fill="#FFFFFF" stroke="#DEBB2C" stroke-width="2.0676" stroke-miterlimit="10" cx="175.5" cy="278.7" rx="39.2" ry="39.4"/>
				
					<ellipse fill="#FFFFFF" stroke="#DEBB2C" stroke-width="2.0676" stroke-miterlimit="10" cx="177.9" cy="276.3" rx="23.6" ry="23.7"/>
				
					<ellipse fill="#FFFFFF" stroke="#DEBB2C" stroke-width="2.0676" stroke-miterlimit="10" cx="178.4" cy="276.4" rx="9.1" ry="9.2"/>
			</g>
			<use xlink:href="#XMLID_185_"  overflow="visible" fill="none" stroke="#DEBB2C" stroke-width="4.1352" stroke-miterlimit="10"/>
		</g>
	</g>
</g>
</svg>
