<svg xmlns="http://www.w3.org/2000/svg" width="19.907" height="11" viewBox="0 0 19.907 11">
  <defs>
    <style>
      .cls-1 {
        fill: #0072c6;
        fill-rule: evenodd;
      }
    </style>
  </defs>
  <path id="иконка" class="cls-1" d="M459.016,644v-1.5H449.5a3.98,3.98,0,0,1-2.812-1.172,4.137,4.137,0,0,1,0-5.672,3.984,3.984,0,0,1,2.812-1.172H460a2.586,2.586,0,0,1,1.781.75,2.55,2.55,0,0,1,0,3.516,2.577,2.577,0,0,1-1.781.75h-8.484a0.994,0.994,0,0,1-.7-1.687,1.14,1.14,0,0,1,.7-0.329h7.5v-1.5h-7.5a2.588,2.588,0,0,0-1.782.75,2.55,2.55,0,0,0,0,3.516,2.579,2.579,0,0,0,1.782.75H460a3.982,3.982,0,0,0,2.813-1.172,4.137,4.137,0,0,0,0-5.672A3.986,3.986,0,0,0,460,632.984H449.5a5.616,5.616,0,0,0-3.891,1.641A5.485,5.485,0,0,0,449.5,644h9.516Z" transform="translate(-444.031 -633)"/>
</svg>
