<svg xmlns="http://www.w3.org/2000/svg" width="19.97" height="19.969" viewBox="0 0 19.97 19.969">
  <defs>
    <style>
      .cls-1 {
        fill: #cdd3d6;
        fill-rule: evenodd;
      }
    </style>
  </defs>
  <path id="иконка" class="cls-1" d="M1143.45,41.3a7.372,7.372,0,0,0,2.55-2.32q-0.2-1.5-2.25-2.3a9.222,9.222,0,0,0-7.5,0q-2.07.8-2.25,2.3A7.112,7.112,0,0,0,1143.45,41.3Zm-5.56-12.445a3.128,3.128,0,0,0,0,4.266,3.061,3.061,0,0,0,4.22,0,3.128,3.128,0,0,0,0-4.266A3.06,3.06,0,0,0,1137.89,28.859Zm9.16-.937a10.051,10.051,0,0,1,.03,14.156A10,10,0,1,1,1147.05,27.922Z" transform="translate(-1130 -25)"/>
</svg>
