<svg xmlns="http://www.w3.org/2000/svg" width="13.312" height="10.688" viewBox="0 0 13.312 10.688">
  <defs>
    <style>
      .cls-1 {
        fill: #bbc1c6;
        fill-rule: evenodd;
      }
    </style>
  </defs>
  <path id="иконка" class="cls-1" d="M931.344,652L926,655.344,920.656,652v1.344L926,656.656l5.344-3.312V652Zm0.937-.938a1.273,1.273,0,0,1,.375.938v8a1.271,1.271,0,0,1-.375.937,1.387,1.387,0,0,1-.937.407H920.656a1.387,1.387,0,0,1-.937-0.407,1.271,1.271,0,0,1-.375-0.937v-8a1.273,1.273,0,0,1,.375-0.938,1.386,1.386,0,0,1,.937-0.406h10.688A1.386,1.386,0,0,1,932.281,651.062Z" transform="translate(-919.344 -650.656)"/>
</svg>
