<svg xmlns="http://www.w3.org/2000/svg" width="13.312" height="13.312" viewBox="0 0 13.312 13.312">
  <defs>
    <style>
      .cls-1 {
        fill: #fff;
        fill-rule: evenodd;
      }
    </style>
  </defs>
  <path id="иконка" class="cls-1" d="M675.344,443.656h1.312V445h-1.312v-1.344Zm5.375-7.375A6.714,6.714,0,1,1,676,434.343,6.618,6.618,0,0,1,680.719,436.281Zm-0.953,8.484A5.281,5.281,0,1,0,676,446.344,5.335,5.335,0,0,0,679.766,444.765Zm-1.891-6.984a2.655,2.655,0,0,1,.781,1.875,2.249,2.249,0,0,1-1,1.734,2.159,2.159,0,0,0-1,1.61h-1.312a2.3,2.3,0,0,1,1-1.985,1.807,1.807,0,0,0,1-1.359,1.385,1.385,0,0,0-.407-0.937,1.359,1.359,0,0,0-1.875,0,1.384,1.384,0,0,0-.406.937h-1.312A2.652,2.652,0,0,1,677.875,437.781Z" transform="translate(-669.344 -434.344)"/>
</svg>
