<svg xmlns="http://www.w3.org/2000/svg" width="18" height="20.031" viewBox="0 0 18 20.031">
  <defs>
    <style>
      .cls-1 {
        fill: #515d68;
        fill-rule: evenodd;
      }
    </style>
  </defs>
  <path id="иконка" class="cls-1" d="M631.984,569H637v-5.016h-5.016V569Zm12-6.984H630.016v10.968h13.968V562.016Zm1.43-4.43a1.948,1.948,0,0,1,.586,1.43v13.968A2,2,0,0,1,643.984,575H630.016A2,2,0,0,1,628,572.984V559.016a1.987,1.987,0,0,1,.562-1.43,1.925,1.925,0,0,1,1.454-.586H631v-2.016h2.016V557h7.968v-2.016H643V557h0.984A1.944,1.944,0,0,1,645.414,557.586Z" transform="translate(-628 -554.969)"/>
</svg>
