<?xml version="1.0" encoding="utf-8"?>
<!-- Generator: Adobe Illustrator 18.0.0, SVG Export Plug-In . SVG Version: 6.00 Build 0)  -->
<!DOCTYPE svg PUBLIC "-//W3C//DTD SVG 1.1//EN" "http://www.w3.org/Graphics/SVG/1.1/DTD/svg11.dtd" [
	<!ENTITY ns_extend "http://ns.adobe.com/Extensibility/1.0/">
	<!ENTITY ns_ai "http://ns.adobe.com/AdobeIllustrator/10.0/">
	<!ENTITY ns_graphs "http://ns.adobe.com/Graphs/1.0/">
	<!ENTITY ns_vars "http://ns.adobe.com/Variables/1.0/">
	<!ENTITY ns_imrep "http://ns.adobe.com/ImageReplacement/1.0/">
	<!ENTITY ns_sfw "http://ns.adobe.com/SaveForWeb/1.0/">
	<!ENTITY ns_custom "http://ns.adobe.com/GenericCustomNamespace/1.0/">
	<!ENTITY ns_adobe_xpath "http://ns.adobe.com/XPath/1.0/">
]>
<svg version="1.1" id="Layer_1" xmlns:x="&ns_extend;" xmlns:i="&ns_ai;" xmlns:graph="&ns_graphs;"
	 xmlns="http://www.w3.org/2000/svg" xmlns:xlink="http://www.w3.org/1999/xlink" x="0px" y="0px" viewBox="-5 -5 510 510"
	 enable-background="new -5 -5 510 510" height="510" width="510" xml:space="preserve">
<metadata>
	<sfw  xmlns="&ns_sfw;">
		<slices></slices>
		<sliceSourceBounds  width="16383" height="16383" x="-7942" y="-7941" bottomLeftOrigin="true"></sliceSourceBounds>
	</sfw>
</metadata>
<g>
	<path fill="#FFFFFF" d="M424,241.6C383.1,375.5,250.4,498,250.4,498S117.9,365.3,77,241.6c-6.4-18.8-10.2-38.9-10.2-60
		C66.8,80.3,148.9-2,250.4-2s183.5,82.3,183.5,183.5C434.2,202.6,430.4,222.7,424,241.6z"/>
	<path fill="#4C9B66" d="M250.4,500.1c-0.5,0-1.1-0.2-1.5-0.6c-0.3-0.3-33.6-33.8-71.5-82C142.4,373,96.2,306.4,75,242.2
		c-6.8-19.9-10.3-40.4-10.3-60.7C64.7,79.2,148-4.1,250.4-4.1C352.8-4.1,436,79.2,436,181.5c0.2,20.1-3.1,40.6-10,60.7
		c-21.2,69.4-67.5,135.7-102.5,179.1c-37.9,46.9-71.3,77.9-71.7,78.2C251.4,499.9,250.9,500.1,250.4,500.1z M250.4,0.1
		C150.3,0.1,69,81.5,69,181.5c0,19.9,3.4,39.8,10.1,59.3c38,115,156.9,239.3,171.4,254.2c6.9-6.5,36.6-35.3,69.8-76.4
		C355,375.5,400.9,309.8,422,240.9c6.8-19.8,10.1-39.7,9.8-59.4C431.8,81.5,350.4,0.1,250.4,0.1z"/>
</g>
<g>
	
		<ellipse id="XMLID_418_" fill="#4C9B66" stroke="#4C9B66" stroke-width="2.1311" stroke-linecap="round" stroke-linejoin="round" stroke-miterlimit="10" cx="249.8" cy="197.3" rx="136" ry="136.6"/>
	<g>
		<defs>
			<ellipse id="XMLID_264_" cx="249.8" cy="180.2" rx="136" ry="136.6"/>
		</defs>
		<use xlink:href="#XMLID_264_"  overflow="visible" fill="#FFFFFF"/>
		<clipPath id="XMLID_2_">
			<use xlink:href="#XMLID_264_"  overflow="visible"/>
		</clipPath>
		<g clip-path="url(#XMLID_2_)">
			<defs>
				<ellipse id="XMLID_417_" cx="115.3" cy="202.4" rx="33" ry="37.1"/>
			</defs>
			<use xlink:href="#XMLID_417_"  overflow="visible" fill="#FFFFFF"/>
			<clipPath id="XMLID_3_">
				<use xlink:href="#XMLID_417_"  overflow="visible"/>
			</clipPath>
			
				<use xlink:href="#XMLID_417_"  overflow="visible" fill="none" stroke="#4C9B66" stroke-width="2.1311" stroke-linecap="round" stroke-linejoin="round" stroke-miterlimit="10"/>
		</g>
		<g clip-path="url(#XMLID_2_)">
			<defs>
				<ellipse id="XMLID_416_" cx="383.7" cy="193.6" rx="41.5" ry="43.9"/>
			</defs>
			<use xlink:href="#XMLID_416_"  overflow="visible" fill="#FFFFFF"/>
			<clipPath id="XMLID_4_">
				<use xlink:href="#XMLID_416_"  overflow="visible"/>
			</clipPath>
			
				<use xlink:href="#XMLID_416_"  overflow="visible" fill="none" stroke="#4C9B66" stroke-width="2.1311" stroke-linecap="round" stroke-linejoin="round" stroke-miterlimit="10"/>
		</g>
		<g clip-path="url(#XMLID_2_)">
			<defs>
				<ellipse id="XMLID_415_" cx="153" cy="217.9" rx="35.8" ry="33"/>
			</defs>
			<use xlink:href="#XMLID_415_"  overflow="visible" fill="#FFFFFF"/>
			<clipPath id="XMLID_5_">
				<use xlink:href="#XMLID_415_"  overflow="visible"/>
			</clipPath>
			
				<use xlink:href="#XMLID_415_"  overflow="visible" fill="none" stroke="#4C9B66" stroke-width="2.1311" stroke-linecap="round" stroke-linejoin="round" stroke-miterlimit="10"/>
		</g>
		<g clip-path="url(#XMLID_2_)">
			
				<path fill="#4C9B66" stroke="#FFFFFF" stroke-width="1.5983" stroke-linecap="round" stroke-linejoin="round" stroke-miterlimit="10" d="
				M281.3,30.6c0,0-5.8,16-0.2,26.2c-2.7,4.6-2.7,15.5-0.7,19.2c-3.2,6.8-4.1,14.8-0.4,21.4c-9.2,23.1,5.8,31.9,5.8,31.9v103.2
				l20.9,18.5l-1.4-116.6c0,0,15.6-8.7,7.8-31.5c4.1-11.2,2.7-18.9-0.5-23.5c3.2-5.3,2.7-19.9-0.5-22.8c4.3-8.9,1.6-18-1.9-23.9
				c-1.1-1.8-0.5-1.1-3.4-1.1C308.4,19.4,296.6,8,296.6,8s-12.2,11.4-10.8,24.9C284.2,31.5,281.3,30.6,281.3,30.6z"/>
			<g>
				
					<polygon id="XMLID_414_" fill="#4C9B66" stroke="#FFFFFF" stroke-width="1.5983" stroke-linecap="round" stroke-linejoin="round" stroke-miterlimit="10" points="
					290.4,286.9 302.3,285 301.6,39.3 298.9,25.8 296.3,39.1 295.8,100.5 290.4,105.8 				"/>
				
					<rect x="296.3" y="121.6" fill="#4C9B66" stroke="#FFFFFF" stroke-width="1.5983" stroke-linecap="round" stroke-linejoin="round" stroke-miterlimit="10" width="5.6" height="170.7"/>
				<g>
					<defs>
						<path id="XMLID_413_" d="M296.3,13.4c0,0-7.6,7.5-7.4,17.8s7.6,15.6,7.6,15.6s7.2-7.6,7-15.4
							C303.3,20.1,296.9,13.4,296.3,13.4z"/>
					</defs>
					<use xlink:href="#XMLID_413_"  overflow="visible" fill="#4C9B66"/>
					<clipPath id="XMLID_6_">
						<use xlink:href="#XMLID_413_"  overflow="visible"/>
					</clipPath>
					
						<path clip-path="url(#XMLID_6_)" fill="#4C9B66" stroke="#FFFFFF" stroke-width="1.5983" stroke-linecap="round" stroke-linejoin="round" stroke-miterlimit="10" d="
						M295.7,22.6c-1.6,3.3-3.6,8.9,0.3,11.3c2.8,1.7,2.1-2.8,2-4.7C297.8,26.8,296.2,24.3,295.7,22.6z"/>
					
						<use xlink:href="#XMLID_413_"  overflow="visible" fill="none" stroke="#FFFFFF" stroke-width="1.5983" stroke-linecap="round" stroke-linejoin="round" stroke-miterlimit="10"/>
				</g>
				<g>
					<defs>
						<path id="XMLID_412_" d="M307.9,35.7c0,0-9.8,4.2-13.4,13.9c-3.5,9.7,1.5,17.3,1.5,17.3s9.4-4.4,12.1-11.7
							C312.1,44.5,308.5,35.9,307.9,35.7z"/>
					</defs>
					<use xlink:href="#XMLID_412_"  overflow="visible" fill="#4C9B66"/>
					<clipPath id="XMLID_7_">
						<use xlink:href="#XMLID_412_"  overflow="visible"/>
					</clipPath>
					
						<path clip-path="url(#XMLID_7_)" fill="#4C9B66" stroke="#FFFFFF" stroke-width="1.5983" stroke-linecap="round" stroke-linejoin="round" stroke-miterlimit="10" d="
						M306.1,41.8c0,0-10.6,7.9-5.5,12.6S306.5,43.9,306.1,41.8z"/>
					
						<use xlink:href="#XMLID_412_"  overflow="visible" fill="none" stroke="#FFFFFF" stroke-width="1.5983" stroke-linecap="round" stroke-linejoin="round" stroke-miterlimit="10"/>
				</g>
				<g>
					<defs>
						<path id="XMLID_411_" d="M309.2,80.7c0,0-9.8,4.2-13.3,13.8s1.5,17.3,1.5,17.3s9.4-4.4,12.1-11.7
							C313.4,89.5,309.8,80.9,309.2,80.7z"/>
					</defs>
					<use xlink:href="#XMLID_411_"  overflow="visible" fill="#4C9B66"/>
					<clipPath id="XMLID_8_">
						<use xlink:href="#XMLID_411_"  overflow="visible"/>
					</clipPath>
					
						<use xlink:href="#XMLID_411_"  overflow="visible" fill="none" stroke="#FFFFFF" stroke-width="1.5983" stroke-linecap="round" stroke-linejoin="round" stroke-miterlimit="10"/>
				</g>
				<g>
					<defs>
						<path id="XMLID_410_" d="M284.1,35.7c0,0,9.8,4.2,13.4,13.9S296,66.9,296,66.9s-9.4-4.4-12.1-11.7
							C280,44.5,283.6,35.9,284.1,35.7z"/>
					</defs>
					<use xlink:href="#XMLID_410_"  overflow="visible" fill="#4C9B66"/>
					<clipPath id="XMLID_9_">
						<use xlink:href="#XMLID_410_"  overflow="visible"/>
					</clipPath>
					
						<use xlink:href="#XMLID_410_"  overflow="visible" fill="none" stroke="#FFFFFF" stroke-width="1.5983" stroke-linecap="round" stroke-linejoin="round" stroke-miterlimit="10"/>
				</g>
				<g>
					<defs>
						<path id="XMLID_409_" d="M284.7,57.8c0,0,9.8,4.2,13.3,13.8s-1.5,17.3-1.5,17.3s-9.4-4.4-12.1-11.7
							C280.6,66.6,284.2,58,284.7,57.8z"/>
					</defs>
					<use xlink:href="#XMLID_409_"  overflow="visible" fill="#4C9B66"/>
					<clipPath id="XMLID_10_">
						<use xlink:href="#XMLID_409_"  overflow="visible"/>
					</clipPath>
					
						<use xlink:href="#XMLID_409_"  overflow="visible" fill="none" stroke="#FFFFFF" stroke-width="1.5983" stroke-linecap="round" stroke-linejoin="round" stroke-miterlimit="10"/>
				</g>
				<g>
					<defs>
						<path id="XMLID_408_" d="M283.9,78.6c0,0,9.8,4.2,13.3,13.8c3.5,9.7-1.5,17.3-1.5,17.3s-9.4-4.4-12.1-11.7
							C279.8,87.3,283.4,78.8,283.9,78.6z"/>
					</defs>
					<use xlink:href="#XMLID_408_"  overflow="visible" fill="#4C9B66"/>
					<clipPath id="XMLID_11_">
						<use xlink:href="#XMLID_408_"  overflow="visible"/>
					</clipPath>
					
						<use xlink:href="#XMLID_408_"  overflow="visible" fill="none" stroke="#FFFFFF" stroke-width="1.5983" stroke-linecap="round" stroke-linejoin="round" stroke-miterlimit="10"/>
				</g>
				<g>
					<defs>
						<path id="XMLID_407_" d="M283.4,99.1c0,0,9.8,4.2,13.3,13.8s-1.5,17.3-1.5,17.3s-9.4-4.4-12.1-11.7
							C279.3,107.8,282.8,99.3,283.4,99.1z"/>
					</defs>
					<use xlink:href="#XMLID_407_"  overflow="visible" fill="#4C9B66"/>
					<clipPath id="XMLID_12_">
						<use xlink:href="#XMLID_407_"  overflow="visible"/>
					</clipPath>
					
						<use xlink:href="#XMLID_407_"  overflow="visible" fill="none" stroke="#FFFFFF" stroke-width="1.5983" stroke-linecap="round" stroke-linejoin="round" stroke-miterlimit="10"/>
				</g>
				<g>
					<defs>
						<path id="XMLID_406_" d="M307.7,57.6c0,0-8.6,5.1-12.1,14.8c-3.5,9.7,1.5,17.3,1.5,17.3s9.4-4.4,12.1-11.7
							C313.1,67.4,307.6,56.1,307.7,57.6z"/>
					</defs>
					<use xlink:href="#XMLID_406_"  overflow="visible" fill="#4C9B66"/>
					<clipPath id="XMLID_13_">
						<use xlink:href="#XMLID_406_"  overflow="visible"/>
					</clipPath>
					
						<use xlink:href="#XMLID_406_"  overflow="visible" fill="none" stroke="#FFFFFF" stroke-width="1.5983" stroke-linecap="round" stroke-linejoin="round" stroke-miterlimit="10"/>
				</g>
				<g>
					<defs>
						<path id="XMLID_405_" d="M308.4,104.1c0,0-9.8,4.2-13.3,13.8s1.5,17.3,1.5,17.3s9.4-4.4,12.1-11.7
							C312.6,112.9,309,104.4,308.4,104.1z"/>
					</defs>
					<use xlink:href="#XMLID_405_"  overflow="visible" fill="#4C9B66"/>
					<clipPath id="XMLID_14_">
						<use xlink:href="#XMLID_405_"  overflow="visible"/>
					</clipPath>
					
						<use xlink:href="#XMLID_405_"  overflow="visible" fill="none" stroke="#FFFFFF" stroke-width="1.5983" stroke-linecap="round" stroke-linejoin="round" stroke-miterlimit="10"/>
				</g>
			</g>
		</g>
		<g clip-path="url(#XMLID_2_)">
			
				<path fill="#FFFFFF" stroke="#4C9B66" stroke-width="2.1311" stroke-linecap="round" stroke-linejoin="round" stroke-miterlimit="10" d="
				M156.6,224.2c-5.3-3.3-12.9-4.5-18.9-7.7c-6.4-3.4-11.7-8.1-17.8-12.3c-7.4-5.1-13.6-10.7-19.4-17.9c-5.5-6.8-8-16.1-12.7-22.5
				c-3,21.9,20,48.1,32.8,62.9c4.2,4.8,7.8,8.5,13.1,11.9c7.8,4.9,15.7,4.3,25.1,4.6"/>
			
				<path fill="#FFFFFF" stroke="#4C9B66" stroke-width="2.1311" stroke-linecap="round" stroke-linejoin="round" stroke-miterlimit="10" d="
				M155,230.1c-5.3-3.3-12.9-4.5-18.9-7.7c-6.4-3.4-11.7-8.1-17.8-12.3c-7.4-5.1-13.6-10.7-19.4-17.9c-5.5-6.8-8-16.1-12.7-22.5
				c-3,21.9,20,48.1,32.8,62.9c4.2,4.8,7.8,8.5,13.1,11.9c7.8,4.9,15.7,4.3,25.1,4.6"/>
			
				<path fill="#FFFFFF" stroke="#4C9B66" stroke-width="2.1311" stroke-linecap="round" stroke-linejoin="round" stroke-miterlimit="10" d="
				M152.3,235.4c-5.3-3.3-12.9-4.5-18.9-7.7c-6.4-3.4-11.7-8.1-17.8-12.3c-7.4-5.1-13.6-10.7-19.4-17.9c-5.5-6.8-8-16.1-12.7-22.5
				c-3,21.9,20,48.1,32.8,62.9c4.2,4.8,7.8,8.5,13.1,11.9c7.8,4.9,15.7,4.3,25.1,4.6"/>
		</g>
		<g clip-path="url(#XMLID_2_)">
			
				<path fill="#FFFFFF" stroke="#4C9B66" stroke-width="2.1311" stroke-linecap="round" stroke-linejoin="round" stroke-miterlimit="10" d="
				M345.1,171.9c-22.6,0-41.2,16.6-44.6,38.4c-0.6,0-1.2-0.1-1.9-0.1c-17.2,0-22.1-1.3-25.5,16c-0.5,2.5-58.5-17.6-58.5-15
				c0,21,64.2,75.1,84,75.1c15.6,0,34.5,39.6,39.3,24.7c4,1.2,27.5-36.8,31.9-36.8c24.9,0,20.4-31.9,20.4-57S370,171.9,345.1,171.9z
				"/>
			<g>
				<defs>
					<path id="XMLID_404_" d="M175.7,195.2c-28.6-3.7-31.8,9.6-36.1,23.6c-0.7-0.1-1.4-0.1-2.2-0.1c-11.9,0-21.6,9.9-21.6,22.1
						c0,12.2,9.7,22.1,21.6,22.1c5.3,0,10.2-2,13.9-5.2c6.6,5,15.1,8,24.3,8c21.1,0,38.3-15.8,38.3-35.2
						C214,211,196.7,197.9,175.7,195.2z"/>
				</defs>
				<use xlink:href="#XMLID_404_"  overflow="visible" fill="#FFFFFF"/>
				<clipPath id="XMLID_15_">
					<use xlink:href="#XMLID_404_"  overflow="visible"/>
				</clipPath>
				
					<use xlink:href="#XMLID_404_"  overflow="visible" fill="none" stroke="#4C9B66" stroke-width="2.1311" stroke-linecap="round" stroke-linejoin="round" stroke-miterlimit="10"/>
			</g>
			
				<path fill="#FFFFFF" stroke="#4C9B66" stroke-width="2.1311" stroke-linecap="round" stroke-linejoin="round" stroke-miterlimit="10" d="
				M232.8,219.8l15.4,5.3l26-9.6h30.8c0,0,5.3-35,30.8-37.4c23.4-2.1,43.6,5.9,54.8,36.3"/>
		</g>
		<g clip-path="url(#XMLID_2_)">
			
				<path fill="#FFFFFF" stroke="#4C9B66" stroke-width="2.1311" stroke-linecap="round" stroke-linejoin="round" stroke-miterlimit="10" d="
				M166.1,303.1l19-160c0.7-5.8,5.6-10.1,11.3-10.1h17.6c5.8,0,10.7,4.4,11.3,10.2l15.1,132.2l9.4-108.5c0.5-5.5,5.1-9.7,10.5-9.6
				l7.7,0.1c5.3,0,9.8,4.1,10.4,9.4l18,162.1"/>
			<g>
				<defs>
					<path id="XMLID_400_" d="M293.4,348.3l-125.5-20.6l21.3-183.8c0.5-3.9,3.7-6.9,7.7-6.9h16.7c3.9,0,7.2,3,7.7,6.9l11.7,108.9
						l4.4,41.3l5,2.8l12.2-129.4c0.3-3.6,3.3-6.3,6.9-6.3l5.8,0c3.5,0,6.5,2.7,6.9,6.2L293.4,348.3z"/>
				</defs>
				<use xlink:href="#XMLID_400_"  overflow="visible" fill="#4C9B66"/>
				<clipPath id="XMLID_16_">
					<use xlink:href="#XMLID_400_"  overflow="visible"/>
				</clipPath>
				<g clip-path="url(#XMLID_16_)">
					
						<rect x="166.5" y="260.3" fill="#FFFFFF" stroke="#A3A3A3" stroke-width="2.1311" stroke-linecap="round" stroke-linejoin="round" stroke-miterlimit="10" width="101.7" height="9.6"/>
				</g>
				
					<use xlink:href="#XMLID_400_"  overflow="visible" fill="none" stroke="#4C9B66" stroke-width="2.1311" stroke-linecap="round" stroke-linejoin="round" stroke-miterlimit="10"/>
			</g>
			
				<path fill="#FFFFFF" stroke="#4C9B66" stroke-width="2.1311" stroke-linecap="round" stroke-linejoin="round" stroke-miterlimit="10" d="
				M258.1,320.7v-65.1c0-6.1,4.9-11,11-11l37,0.1c3.4,0,5.7,2.2,7.8,5l6,7.1c3.3,3.9,5.2,9,5.2,14.1v53.4"/>
			<g display="none">
				<defs>
					<path id="XMLID_399_" d="M233.1,247.9c0,0,31.9,22.8,33.3,52c1.4,29.2-21.3,36.3-21.3,36.3l-25.5-15.7c0,0,22-14.2,16.3-42
						C233.1,264.5,233.1,247.9,233.1,247.9z"/>
				</defs>
				<use xlink:href="#XMLID_399_"  display="inline" overflow="visible" fill="#FFFFFF"/>
				<clipPath id="XMLID_17_" display="inline">
					<use xlink:href="#XMLID_399_"  overflow="visible"/>
				</clipPath>
				
					<path display="inline" clip-path="url(#XMLID_17_)" fill="#FFFFFF" stroke="#A3A3A3" stroke-width="2.1311" stroke-linecap="round" stroke-linejoin="round" stroke-miterlimit="10" d="
					M223.9,343.3c0,0,61-35.6,7.1-82.3c-4-3.4-0.7,8.9-0.7,8.9s39.7,32-5.7,59.8C202.6,341.9,223.9,343.3,223.9,343.3z"/>
				
					<path display="inline" clip-path="url(#XMLID_17_)" fill="#FFFFFF" stroke="#A3A3A3" stroke-width="2.1311" stroke-linecap="round" stroke-linejoin="round" stroke-miterlimit="10" d="
					M235.6,281.3c4.7,4.2,5.3,16.3,4.2,22.3c-0.6,3.2-2.6,6.4-4.6,9c-3.6,4.6-9,5.7-13,9.6"/>
				
					<path display="inline" clip-path="url(#XMLID_17_)" fill="#FFFFFF" stroke="#A3A3A3" stroke-width="2.1311" stroke-linecap="round" stroke-linejoin="round" stroke-miterlimit="10" d="
					M227.1,253.9c9,0.3,17.1,9.3,22.3,15.7c5.6,6.8,7.9,14.3,9.6,22.4"/>
				
					<path display="inline" clip-path="url(#XMLID_17_)" fill="#FFFFFF" stroke="#A3A3A3" stroke-width="2.1311" stroke-linecap="round" stroke-linejoin="round" stroke-miterlimit="10" d="
					M260,300.2c-0.4,9.4-5.1,20.8-9.9,28.8"/>
				
					<use xlink:href="#XMLID_399_"  display="inline" overflow="visible" fill="none" stroke="#A3A3A3" stroke-width="2.1311" stroke-linecap="round" stroke-linejoin="round" stroke-miterlimit="10"/>
			</g>
		</g>
		
			<path clip-path="url(#XMLID_2_)" fill="#4C9B66" stroke="#FFFFFF" stroke-width="2.1311" stroke-linecap="round" stroke-linejoin="round" stroke-miterlimit="10" d="
			M307.7,249.8l9.8,11.6c1.7,2,2.7,4.6,2.7,7.3v50.1l-16.5,4L307.7,249.8z"/>
		
			<path clip-path="url(#XMLID_2_)" fill="#4C9B66" stroke="#FFFFFF" stroke-width="2.1311" stroke-linecap="round" stroke-linejoin="round" stroke-miterlimit="10" d="
			M262.8,282.2v-27.4c0-3.3,2.7-6,5.9-6h35.4c3.3,0,5.9,2.7,5.9,6v58.1l-49.7,17.9l3.7-15.2C264.1,315.6,270.5,299.3,262.8,282.2z"
			/>
		<g clip-path="url(#XMLID_2_)">
			<g>
				
					<rect x="269.7" y="255.5" fill="#FFFFFF" stroke="#4C9B66" stroke-width="2.1311" stroke-linecap="round" stroke-linejoin="round" stroke-miterlimit="10" width="11.9" height="15"/>
				
					<rect x="269.7" y="301.5" fill="#FFFFFF" stroke="#4C9B66" stroke-width="2.1311" stroke-linecap="round" stroke-linejoin="round" stroke-miterlimit="10" width="11.9" height="15"/>
			</g>
			<g>
				
					<rect x="289.2" y="278" fill="#FFFFFF" stroke="#4C9B66" stroke-width="2.1311" stroke-linecap="round" stroke-linejoin="round" stroke-miterlimit="10" width="11.9" height="15"/>
				
					<rect x="289.2" y="255.5" fill="#FFFFFF" stroke="#4C9B66" stroke-width="2.1311" stroke-linecap="round" stroke-linejoin="round" stroke-miterlimit="10" width="11.9" height="15"/>
			</g>
			<g>
				<g>
					
						<rect x="273.8" y="282.3" fill="#FFFFFF" stroke="#4C9B66" stroke-width="2.1311" stroke-linecap="round" stroke-linejoin="round" stroke-miterlimit="10" width="3.7" height="6.9"/>
				</g>
				<g>
					
						<rect x="273.8" y="305.5" fill="#FFFFFF" stroke="#4C9B66" stroke-width="2.1311" stroke-linecap="round" stroke-linejoin="round" stroke-miterlimit="10" width="3.7" height="6.9"/>
					
						<rect x="293.3" y="305.5" fill="#FFFFFF" stroke="#4C9B66" stroke-width="2.1311" stroke-linecap="round" stroke-linejoin="round" stroke-miterlimit="10" width="3.7" height="6.9"/>
				</g>
			</g>
		</g>
		<g clip-path="url(#XMLID_2_)">
			
				<path fill="#4C9B66" stroke="#FFFFFF" stroke-width="1.5983" stroke-linecap="round" stroke-linejoin="round" stroke-miterlimit="10" d="
				M128.8,87.9c0,0,5.3,15,8.5,16.4c-3.2,2.8-3.9,10.7,0.7,15c-3.2,6.8-3.5,18.2-0.4,20.6c-9.2,23.1,6.4,33.5,6.4,33.5l1.1,102.9
				l19.8,18.9V178c0,0,14.2-8.2,6.4-31c5.3-12.5,3.9-18.2,0.7-22.8c5-6.1,1.4-20.6-1.8-23.5c4.3-8.9,3.5-23.5-3.9-27.1
				c-7.4-3.6-10.6-14.2-10.6-14.2L128.8,87.9z"/>
			<g>
				
					<polygon id="XMLID_398_" fill="#4C9B66" stroke="#FFFFFF" stroke-width="1.5983" stroke-linecap="round" stroke-linejoin="round" stroke-miterlimit="10" points="
					148.5,331 160.4,329.1 159.7,83.4 157,69.9 154.3,83.2 153.9,144.6 148.5,149.9 				"/>
				
					<rect x="154.3" y="165.7" fill="#4C9B66" stroke="#FFFFFF" stroke-width="1.5983" stroke-linecap="round" stroke-linejoin="round" stroke-miterlimit="10" width="5.6" height="170.7"/>
				
					<path fill="#4C9B66" stroke="#FFFFFF" stroke-width="1.5983" stroke-linecap="round" stroke-linejoin="round" stroke-miterlimit="10" d="
					M154.3,57.6c0,0-7.6,7.5-7.4,17.8s7.6,15.6,7.6,15.6s7.2-7.6,7-15.4C161.4,64.2,154.9,57.6,154.3,57.6z"/>
				<g>
					<defs>
						<path id="XMLID_397_" d="M166,79.8c0,0-9.8,4.2-13.4,13.9c-3.5,9.7,1.5,17.3,1.5,17.3s9.4-4.4,12.1-11.7
							C170.1,88.6,166.5,80,166,79.8z"/>
					</defs>
					<use xlink:href="#XMLID_397_"  overflow="visible" fill="#4C9B66"/>
					<clipPath id="XMLID_18_">
						<use xlink:href="#XMLID_397_"  overflow="visible"/>
					</clipPath>
					
						<use xlink:href="#XMLID_397_"  overflow="visible" fill="none" stroke="#FFFFFF" stroke-width="1.5983" stroke-linecap="round" stroke-linejoin="round" stroke-miterlimit="10"/>
				</g>
				<g>
					<defs>
						<path id="XMLID_396_" d="M167.3,124.8c0,0-9.8,4.2-13.3,13.8c-3.5,9.7,1.5,17.3,1.5,17.3s9.4-4.4,12.1-11.7
							C171.4,133.6,167.8,125,167.3,124.8z"/>
					</defs>
					<use xlink:href="#XMLID_396_"  overflow="visible" fill="#4C9B66"/>
					<clipPath id="XMLID_19_">
						<use xlink:href="#XMLID_396_"  overflow="visible"/>
					</clipPath>
					
						<use xlink:href="#XMLID_396_"  overflow="visible" fill="none" stroke="#FFFFFF" stroke-width="1.5983" stroke-linecap="round" stroke-linejoin="round" stroke-miterlimit="10"/>
				</g>
				<g>
					<defs>
						<path id="XMLID_395_" d="M142.2,79.8c0,0,9.8,4.2,13.4,13.9c3.5,9.7-1.5,17.3-1.5,17.3s-9.4-4.4-12.1-11.7
							C138,88.6,141.6,80,142.2,79.8z"/>
					</defs>
					<use xlink:href="#XMLID_395_"  overflow="visible" fill="#4C9B66"/>
					<clipPath id="XMLID_20_">
						<use xlink:href="#XMLID_395_"  overflow="visible"/>
					</clipPath>
					
						<use xlink:href="#XMLID_395_"  overflow="visible" fill="none" stroke="#FFFFFF" stroke-width="1.5983" stroke-linecap="round" stroke-linejoin="round" stroke-miterlimit="10"/>
				</g>
				<g>
					<defs>
						<path id="XMLID_394_" d="M142.8,101.9c0,0,9.8,4.2,13.3,13.8c3.5,9.7-1.5,17.3-1.5,17.3s-9.4-4.4-12.1-11.7
							C138.6,110.7,142.2,102.1,142.8,101.9z"/>
					</defs>
					<use xlink:href="#XMLID_394_"  overflow="visible" fill="#4C9B66"/>
					<clipPath id="XMLID_21_">
						<use xlink:href="#XMLID_394_"  overflow="visible"/>
					</clipPath>
					
						<use xlink:href="#XMLID_394_"  overflow="visible" fill="none" stroke="#FFFFFF" stroke-width="1.5983" stroke-linecap="round" stroke-linejoin="round" stroke-miterlimit="10"/>
				</g>
				<g>
					<defs>
						<path id="XMLID_393_" d="M142,122.7c0,0,9.8,4.2,13.3,13.8s-1.5,17.3-1.5,17.3s-9.4-4.4-12.1-11.7
							C137.8,131.5,141.4,122.9,142,122.7z"/>
					</defs>
					<use xlink:href="#XMLID_393_"  overflow="visible" fill="#4C9B66"/>
					<clipPath id="XMLID_22_">
						<use xlink:href="#XMLID_393_"  overflow="visible"/>
					</clipPath>
					
						<use xlink:href="#XMLID_393_"  overflow="visible" fill="none" stroke="#FFFFFF" stroke-width="1.5983" stroke-linecap="round" stroke-linejoin="round" stroke-miterlimit="10"/>
				</g>
				<g>
					<defs>
						<path id="XMLID_392_" d="M141.4,143.2c0,0,9.8,4.2,13.3,13.8c3.5,9.7-1.5,17.3-1.5,17.3s-9.4-4.4-12.1-11.7
							C137.3,152,140.9,143.4,141.4,143.2z"/>
					</defs>
					<use xlink:href="#XMLID_392_"  overflow="visible" fill="#4C9B66"/>
					<clipPath id="XMLID_23_">
						<use xlink:href="#XMLID_392_"  overflow="visible"/>
					</clipPath>
					
						<use xlink:href="#XMLID_392_"  overflow="visible" fill="none" stroke="#FFFFFF" stroke-width="1.5983" stroke-linecap="round" stroke-linejoin="round" stroke-miterlimit="10"/>
				</g>
				<g>
					<defs>
						<path id="XMLID_391_" d="M165.8,101.7c0,0-8.6,5.1-12.1,14.8s1.5,17.3,1.5,17.3s9.4-4.4,12.1-11.7
							C171.1,111.5,165.6,100.2,165.8,101.7z"/>
					</defs>
					<use xlink:href="#XMLID_391_"  overflow="visible" fill="#4C9B66"/>
					<clipPath id="XMLID_24_">
						<use xlink:href="#XMLID_391_"  overflow="visible"/>
					</clipPath>
					
						<use xlink:href="#XMLID_391_"  overflow="visible" fill="none" stroke="#FFFFFF" stroke-width="1.5983" stroke-linecap="round" stroke-linejoin="round" stroke-miterlimit="10"/>
				</g>
				<g>
					<defs>
						<path id="XMLID_390_" d="M166.5,148.3c0,0-9.8,4.2-13.3,13.8c-3.5,9.7,1.5,17.3,1.5,17.3s9.4-4.4,12.1-11.7
							C170.6,157,167,148.5,166.5,148.3z"/>
					</defs>
					<use xlink:href="#XMLID_390_"  overflow="visible" fill="#4C9B66"/>
					<clipPath id="XMLID_25_">
						<use xlink:href="#XMLID_390_"  overflow="visible"/>
					</clipPath>
					
						<use xlink:href="#XMLID_390_"  overflow="visible" fill="none" stroke="#FFFFFF" stroke-width="1.5983" stroke-linecap="round" stroke-linejoin="round" stroke-miterlimit="10"/>
				</g>
			</g>
		</g>
		<g clip-path="url(#XMLID_2_)">
			
				<path fill="#4C9B66" stroke="#FFFFFF" stroke-width="1.5983" stroke-linecap="round" stroke-linejoin="round" stroke-miterlimit="10" d="
				M324.4,112.6c0,0-5.8,16-0.2,26.2c-2.7,4.6-2.7,15.5-0.7,19.2c-3.2,6.8-4.1,14.8-0.4,21.4c-9.2,23.1,5.8,31.9,5.8,31.9v103.2
				l20.9,18.5l-1.4-116.6c0,0,15.6-8.7,7.8-31.5c4.1-11.2,2.7-18.9-0.5-23.5c3.2-5.3,2.7-19.9-0.5-22.8c4.3-8.9,1.6-18-1.9-23.9
				c-1.1-1.8-0.5-1.1-3.4-1.1c1.6-12.3-10.3-23.7-10.3-23.7s-12.2,11.4-10.8,24.9C327.2,113.5,324.4,112.6,324.4,112.6z"/>
			<g>
				
					<polygon id="XMLID_389_" fill="#4C9B66" stroke="#FFFFFF" stroke-width="1.5983" stroke-linecap="round" stroke-linejoin="round" stroke-miterlimit="10" points="
					333.5,368.9 345.4,367 344.6,121.4 342,107.8 339.3,121.1 338.9,182.5 333.5,187.8 				"/>
				
					<rect x="339.3" y="203.6" fill="#4C9B66" stroke="#FFFFFF" stroke-width="1.5983" stroke-linecap="round" stroke-linejoin="round" stroke-miterlimit="10" width="5.6" height="170.7"/>
				<g>
					<defs>
						<path id="XMLID_388_" d="M339.3,95.5c0,0-7.6,7.5-7.4,17.8s7.6,15.6,7.6,15.6s7.2-7.6,7-15.4
							C346.4,102.1,339.9,95.5,339.3,95.5z"/>
					</defs>
					<use xlink:href="#XMLID_388_"  overflow="visible" fill="#4C9B66"/>
					<clipPath id="XMLID_26_">
						<use xlink:href="#XMLID_388_"  overflow="visible"/>
					</clipPath>
					
						<use xlink:href="#XMLID_388_"  overflow="visible" fill="none" stroke="#FFFFFF" stroke-width="1.5983" stroke-linecap="round" stroke-linejoin="round" stroke-miterlimit="10"/>
				</g>
				<g>
					<defs>
						<path id="XMLID_343_" d="M350.9,117.7c0,0-9.8,4.2-13.4,13.9c-3.5,9.7,1.5,17.3,1.5,17.3s9.4-4.4,12.1-11.7
							C355.1,126.5,351.5,118,350.9,117.7z"/>
					</defs>
					<use xlink:href="#XMLID_343_"  overflow="visible" fill="#4C9B66"/>
					<clipPath id="XMLID_27_">
						<use xlink:href="#XMLID_343_"  overflow="visible"/>
					</clipPath>
					
						<use xlink:href="#XMLID_343_"  overflow="visible" fill="none" stroke="#FFFFFF" stroke-width="1.5983" stroke-linecap="round" stroke-linejoin="round" stroke-miterlimit="10"/>
				</g>
				<g>
					<defs>
						<path id="XMLID_342_" d="M352.3,162.7c0,0-9.8,4.2-13.3,13.8c-3.5,9.7,1.5,17.3,1.5,17.3s9.4-4.4,12.1-11.7
							C356.4,171.5,352.8,163,352.3,162.7z"/>
					</defs>
					<use xlink:href="#XMLID_342_"  overflow="visible" fill="#4C9B66"/>
					<clipPath id="XMLID_28_">
						<use xlink:href="#XMLID_342_"  overflow="visible"/>
					</clipPath>
					
						<use xlink:href="#XMLID_342_"  overflow="visible" fill="none" stroke="#FFFFFF" stroke-width="1.5983" stroke-linecap="round" stroke-linejoin="round" stroke-miterlimit="10"/>
				</g>
				<g>
					<defs>
						<path id="XMLID_341_" d="M327.2,117.7c0,0,9.8,4.2,13.4,13.9c3.5,9.7-1.5,17.3-1.5,17.3s-9.4-4.4-12.1-11.7
							C323,126.5,326.6,118,327.2,117.7z"/>
					</defs>
					<use xlink:href="#XMLID_341_"  overflow="visible" fill="#4C9B66"/>
					<clipPath id="XMLID_29_">
						<use xlink:href="#XMLID_341_"  overflow="visible"/>
					</clipPath>
					
						<use xlink:href="#XMLID_341_"  overflow="visible" fill="none" stroke="#FFFFFF" stroke-width="1.5983" stroke-linecap="round" stroke-linejoin="round" stroke-miterlimit="10"/>
				</g>
				<g>
					<defs>
						<path id="XMLID_340_" d="M327.8,139.8c0,0,9.8,4.2,13.3,13.8c3.5,9.7-1.5,17.3-1.5,17.3s-9.4-4.4-12.1-11.7
							C323.6,148.6,327.2,140.1,327.8,139.8z"/>
					</defs>
					<use xlink:href="#XMLID_340_"  overflow="visible" fill="#4C9B66"/>
					<clipPath id="XMLID_30_">
						<use xlink:href="#XMLID_340_"  overflow="visible"/>
					</clipPath>
					
						<use xlink:href="#XMLID_340_"  overflow="visible" fill="none" stroke="#FFFFFF" stroke-width="1.5983" stroke-linecap="round" stroke-linejoin="round" stroke-miterlimit="10"/>
				</g>
				<g>
					<defs>
						<path id="XMLID_339_" d="M327,160.6c0,0,9.8,4.2,13.3,13.8c3.5,9.7-1.5,17.3-1.5,17.3s-9.4-4.4-12.1-11.7
							C322.8,169.4,326.4,160.8,327,160.6z"/>
					</defs>
					<use xlink:href="#XMLID_339_"  overflow="visible" fill="#4C9B66"/>
					<clipPath id="XMLID_31_">
						<use xlink:href="#XMLID_339_"  overflow="visible"/>
					</clipPath>
					
						<use xlink:href="#XMLID_339_"  overflow="visible" fill="none" stroke="#FFFFFF" stroke-width="1.5983" stroke-linecap="round" stroke-linejoin="round" stroke-miterlimit="10"/>
				</g>
				<g>
					<defs>
						<path id="XMLID_338_" d="M326.4,181.1c0,0,9.8,4.2,13.3,13.8c3.5,9.7-1.5,17.3-1.5,17.3s-9.4-4.4-12.1-11.7
							C322.3,189.9,325.9,181.3,326.4,181.1z"/>
					</defs>
					<use xlink:href="#XMLID_338_"  overflow="visible" fill="#4C9B66"/>
					<clipPath id="XMLID_32_">
						<use xlink:href="#XMLID_338_"  overflow="visible"/>
					</clipPath>
					
						<use xlink:href="#XMLID_338_"  overflow="visible" fill="none" stroke="#FFFFFF" stroke-width="1.5983" stroke-linecap="round" stroke-linejoin="round" stroke-miterlimit="10"/>
				</g>
				<g>
					<defs>
						<path id="XMLID_337_" d="M350.8,139.7c0,0-8.6,5.1-12.1,14.8s1.5,17.3,1.5,17.3s9.4-4.4,12.1-11.7
							C356.1,149.4,350.6,138.2,350.8,139.7z"/>
					</defs>
					<use xlink:href="#XMLID_337_"  overflow="visible" fill="#4C9B66"/>
					<clipPath id="XMLID_33_">
						<use xlink:href="#XMLID_337_"  overflow="visible"/>
					</clipPath>
					
						<use xlink:href="#XMLID_337_"  overflow="visible" fill="none" stroke="#FFFFFF" stroke-width="1.5983" stroke-linecap="round" stroke-linejoin="round" stroke-miterlimit="10"/>
				</g>
				<g>
					<defs>
						<path id="XMLID_336_" d="M351.5,186.2c0,0-9.8,4.2-13.3,13.8s1.5,17.3,1.5,17.3s9.4-4.4,12.1-11.7
							C355.6,194.9,352,186.4,351.5,186.2z"/>
					</defs>
					<use xlink:href="#XMLID_336_"  overflow="visible" fill="#4C9B66"/>
					<clipPath id="XMLID_34_">
						<use xlink:href="#XMLID_336_"  overflow="visible"/>
					</clipPath>
					
						<use xlink:href="#XMLID_336_"  overflow="visible" fill="none" stroke="#FFFFFF" stroke-width="1.5983" stroke-linecap="round" stroke-linejoin="round" stroke-miterlimit="10"/>
				</g>
			</g>
		</g>
		<g clip-path="url(#XMLID_2_)">
			<defs>
				<path id="XMLID_333_" d="M186.3,268.5c-15.3,21.4-11,50.8,9.6,65.8s49.8,9.8,65.2-11.6c15.3-21.4,11-50.8-9.6-65.8
					S201.7,247.1,186.3,268.5z"/>
			</defs>
			<use xlink:href="#XMLID_333_"  overflow="visible" fill="#FFFFFF"/>
			<clipPath id="XMLID_35_">
				<use xlink:href="#XMLID_333_"  overflow="visible"/>
			</clipPath>
			
				<use xlink:href="#XMLID_333_"  overflow="visible" fill="none" stroke="#4C9B66" stroke-width="2.1311" stroke-linecap="round" stroke-linejoin="round" stroke-miterlimit="10"/>
		</g>
		<g clip-path="url(#XMLID_2_)">
			<defs>
				<path id="XMLID_301_" d="M231.1,291c-11.4,15.8-8.2,37.7,7.1,48.8c15.3,11.1,37,7.3,48.3-8.6c11.4-15.8,8.2-37.7-7.1-48.8
					C264.1,271.3,242.4,275.1,231.1,291z"/>
			</defs>
			<use xlink:href="#XMLID_301_"  overflow="visible" fill="#FFFFFF"/>
			<clipPath id="XMLID_36_">
				<use xlink:href="#XMLID_301_"  overflow="visible"/>
			</clipPath>
			
				<use xlink:href="#XMLID_301_"  overflow="visible" fill="none" stroke="#4C9B66" stroke-width="2.1311" stroke-linecap="round" stroke-linejoin="round" stroke-miterlimit="10"/>
		</g>
		<g clip-path="url(#XMLID_2_)">
			
				<path fill="#4C9B66" stroke="#FFFFFF" stroke-width="2.1311" stroke-linecap="round" stroke-linejoin="round" stroke-miterlimit="10" d="
				M231.8,333.3l-9.1-4.9c-0.5-0.3-0.8-0.8-0.8-1.3l0-38.8c0-5.1-4.1-9.3-9.2-9.3H102.8c-0.8,0-1.5-0.7-1.5-1.5v-8.7
				c0-0.8,0.7-1.5,1.5-1.5h112.5c10.7,0,19.4,8.8,19.3,19.6L234,332C234,333.1,232.8,333.8,231.8,333.3z"/>
			
				<path fill="#4C9B66" stroke="#FFFFFF" stroke-width="2.1311" stroke-linecap="round" stroke-linejoin="round" stroke-miterlimit="10" d="
				M270,359.6l-12.1-6.5l0-41.2c0-4.3-3.5-7.8-7.8-7.8H137.3v-11.7h113.5c11,0,19.9,9.1,19.8,20.1L270,359.6z"/>
		</g>
		
			<path clip-path="url(#XMLID_2_)" fill="#FFFFFF" stroke="#4C9B66" stroke-width="2.1311" stroke-linecap="round" stroke-linejoin="round" stroke-miterlimit="10" d="
			M195.5,307.7h-75.5v-63.4h59c9.1,0,16.5,7.4,16.5,16.5V307.7z"/>
		
			<path clip-path="url(#XMLID_2_)" fill="#FFFFFF" stroke="#4C9B66" stroke-width="2.1311" stroke-linecap="round" stroke-linejoin="round" stroke-miterlimit="10" d="
			M190.6,312h-75.5v-63.4h62.3c7.3,0,13.1,5.9,13.1,13.1V312z"/>
		<g clip-path="url(#XMLID_2_)">
			<g display="none">
				
					<rect x="213" y="152.3" display="inline" fill="#FFFFFF" stroke="#A3A3A3" stroke-linecap="round" stroke-linejoin="round" stroke-miterlimit="10" width="5.6" height="7"/>
				
					<rect x="213" y="162.9" display="inline" fill="#FFFFFF" stroke="#A3A3A3" stroke-linecap="round" stroke-linejoin="round" stroke-miterlimit="10" width="5.6" height="7"/>
				
					<rect x="213" y="173.8" display="inline" fill="#FFFFFF" stroke="#A3A3A3" stroke-linecap="round" stroke-linejoin="round" stroke-miterlimit="10" width="5.6" height="7"/>
			</g>
			<g>
				
					<rect x="168.4" y="279.2" fill="#FFFFFF" stroke="#4C9B66" stroke-width="2.1311" stroke-linecap="round" stroke-linejoin="round" stroke-miterlimit="10" width="11.9" height="15"/>
				
					<rect x="168.4" y="302.7" fill="#FFFFFF" stroke="#A3A3A3" stroke-width="2.1311" stroke-linecap="round" stroke-linejoin="round" stroke-miterlimit="10" width="11.9" height="15"/>
				
					<rect x="168.4" y="256.8" fill="#FFFFFF" stroke="#4C9B66" stroke-width="2.1311" stroke-linecap="round" stroke-linejoin="round" stroke-miterlimit="10" width="11.9" height="15"/>
			</g>
			<g>
				<g>
					
						<rect x="214.9" y="154.2" display="none" fill="#FFFFFF" stroke="#A3A3A3" stroke-linecap="round" stroke-linejoin="round" stroke-miterlimit="10" width="1.8" height="3.3"/>
				</g>
				<g>
					
						<rect x="214.9" y="164.8" display="none" fill="#FFFFFF" stroke="#A3A3A3" stroke-linecap="round" stroke-linejoin="round" stroke-miterlimit="10" width="1.8" height="3.3"/>
				</g>
				<g>
					
						<rect x="152.9" y="306.8" display="none" fill="#FFFFFF" stroke="#A3A3A3" stroke-width="2.1311" stroke-linecap="round" stroke-linejoin="round" stroke-miterlimit="10" width="3.7" height="6.9"/>
					
						<rect x="172.4" y="306.8" fill="#FFFFFF" stroke="#A3A3A3" stroke-width="2.1311" stroke-linecap="round" stroke-linejoin="round" stroke-miterlimit="10" width="3.7" height="6.9"/>
				</g>
			</g>
		</g>
		<g clip-path="url(#XMLID_2_)">
			<polygon fill="#FFFFFF" points="225.9,170.6 184.6,170.6 185.3,162.1 224.8,161.7 			"/>
			<polygon fill="#FFFFFF" points="227.8,191.9 181.2,191.5 181.9,182.9 226.8,183 			"/>
			<polygon fill="#FFFFFF" points="279.7,192.2 250,191.7 250.7,183.2 278.6,183.3 			"/>
			<polygon fill="#FFFFFF" points="231.3,224.2 178.2,223.8 178.9,215.2 230.2,215.3 			"/>
		</g>
		
			<use xlink:href="#XMLID_264_"  overflow="visible" fill="none" stroke="#4C9B66" stroke-width="4.2622" stroke-linecap="round" stroke-linejoin="round" stroke-miterlimit="10"/>
	</g>
</g>
</svg>
