<?xml version="1.0" encoding="utf-8"?>
<!-- Generator: Adobe Illustrator 19.0.0, SVG Export Plug-In . SVG Version: 6.00 Build 0)  -->
<svg version="1.1" id="Layer_1" xmlns="http://www.w3.org/2000/svg" xmlns:xlink="http://www.w3.org/1999/xlink" x="0px" y="0px"
	 viewBox="-384 146 510 510" style="enable-background:new -384 146 510 510;" xml:space="preserve">
<style type="text/css">
	.st0{fill:#FFFFFF;}
	.st1{fill:#A3A3A3;}
	.st2{fill:#A3A3A3;stroke:#A3A3A3;stroke-width:2.0676;stroke-miterlimit:10;}
	.st3{clip-path:url(#SVGID_2_);}
	.st4{fill:#FFFFFF;stroke:#A3A3A3;stroke-width:2.0676;stroke-miterlimit:10;}
	.st5{clip-path:url(#SVGID_4_);}
	.st6{fill:#A3A3A3;stroke:#FFFFFF;stroke-width:1.0338;stroke-miterlimit:10;}
	.st7{clip-path:url(#SVGID_6_);}
	.st8{fill:#A3A3A3;stroke:#A3A3A3;stroke-width:4.275;stroke-miterlimit:10;}
	.st9{fill:#FFFFFF;stroke:#A3A3A3;stroke-width:4.275;stroke-miterlimit:10;}
	.st10{clip-path:url(#SVGID_8_);}
	.st11{display:none;clip-path:url(#SVGID_10_);}
	.st12{display:inline;fill:#FFFFFF;stroke:#A3A3A3;stroke-width:2.0852;stroke-miterlimit:10;}
	.st13{fill:none;stroke:#A3A3A3;stroke-width:4.2898;stroke-miterlimit:10;}
</style>
<g>
	<g>
		<g>
			<path class="st0" d="M44.6,394.2C3.7,528.1-129,650.6-129,650.6s-132.5-132.7-173.4-256.4c-6.4-18.8-10.2-38.9-10.2-60
				c0-101.3,82.1-183.6,183.6-183.6S54.5,232.9,54.5,334.1C54.8,355.2,51,375.3,44.6,394.2z"/>
			<path class="st1" d="M-129.1,653.5l-1.4-1.4c-0.3-0.3-33.6-33.8-71.5-82c-35-44.5-81.2-111-102.4-175.2
				c-6.8-20.1-10.3-40.5-10.3-60.6c0-102.5,83.3-185.8,185.7-185.8c102.3,0,185.6,83.2,185.6,185.6c0.3,19.9-3.1,40.3-10,60.8
				c-21.2,69.4-67.5,135.7-102.5,179c-37.9,46.9-71.3,77.9-71.7,78.2L-129.1,653.5z M-129,152.7c-100.1,0-181.5,81.4-181.5,181.5
				c0,19.7,3.4,39.7,10.1,59.3c21,63.6,66.9,129.7,101.7,173.9c33.3,42.4,63.1,73.4,69.8,80.2c6.8-6.5,36.6-35.3,69.8-76.4
				c34.8-43.1,80.7-108.8,101.7-177.7c6.8-20.1,10.1-40,9.8-59.5C52.4,234.1-29,152.7-129,152.7z"/>
		</g>
	</g>
	<g>
		<ellipse id="XMLID_176_" class="st2" cx="-127.7" cy="346.2" rx="132.4" ry="133.1"/>
		<g>
			<g>
				<ellipse id="XMLID_137_" class="st0" cx="-127.7" cy="329.5" rx="132.4" ry="133.1"/>
			</g>
			<g>
				<defs>
					<ellipse id="SVGID_1_" cx="-127.7" cy="329.5" rx="132.4" ry="133.1"/>
				</defs>
				<clipPath id="SVGID_2_">
					<use xlink:href="#SVGID_1_"  style="overflow:visible;"/>
				</clipPath>
				<g class="st3">
					<ellipse class="st4" cx="-151.7" cy="443.2" rx="120" ry="112.1"/>
					<ellipse class="st4" cx="-151.7" cy="443.2" rx="112.4" ry="105"/>
					<ellipse class="st4" cx="-151.7" cy="443.2" rx="103.3" ry="96.5"/>
					<ellipse class="st4" cx="-151.7" cy="443.2" rx="95.9" ry="89.7"/>
					<ellipse class="st4" cx="-151.7" cy="443.2" rx="87.3" ry="81.6"/>
					<ellipse class="st4" cx="-151.7" cy="443.2" rx="78.7" ry="73.6"/>
					<ellipse class="st4" cx="-151.7" cy="443.2" rx="70.1" ry="65.5"/>
					<ellipse class="st4" cx="-151.7" cy="443.2" rx="55.6" ry="52"/>
					<ellipse class="st4" cx="-151.7" cy="443.2" rx="41.4" ry="38.6"/>
				</g>
			</g>
			<g>
				<defs>
					<ellipse id="SVGID_3_" cx="-127.7" cy="329.5" rx="132.4" ry="133.1"/>
				</defs>
				<clipPath id="SVGID_4_">
					<use xlink:href="#SVGID_3_"  style="overflow:visible;"/>
				</clipPath>
				<g class="st5">
					<ellipse class="st6" cx="-177.3" cy="241.6" rx="88.9" ry="83.1"/>
					<ellipse class="st6" cx="-177.3" cy="241.6" rx="83.3" ry="77.8"/>
					<ellipse class="st6" cx="-177.3" cy="241.6" rx="76.5" ry="71.5"/>
					<ellipse class="st6" cx="-177.3" cy="241.6" rx="71.1" ry="66.4"/>
					<ellipse class="st6" cx="-177.3" cy="241.6" rx="64.7" ry="60.5"/>
					<ellipse class="st6" cx="-177.3" cy="241.6" rx="58.3" ry="54.5"/>
					<ellipse class="st6" cx="-177.3" cy="241.6" rx="52" ry="48.6"/>
					<g>
						<path class="st1" d="M-129.6,433.1c-27.4,0-53.2-10.5-72.5-29.6c-20.8-20.5-32-48.4-31.6-78.7c0.3-22.2,7-43.9,19.3-62.7
							c0.9-1.3,2.3-2.1,3.9-2.1c0.9,0,1.8,0.3,2.6,0.8c2.2,1.4,2.7,4.4,1.3,6.5c-11.3,17.3-17.5,37.2-17.8,57.6
							c-0.4,27.6,9.8,53.1,28.8,71.8c17.6,17.4,41,26.9,65.9,26.9c1.1,0,2.3,0,3.4-0.1c14.9-0.5,29.9-4.5,43.4-11.6l-2.3-3.8
							l18.4-0.5l-8.7,16.3l-2.4-3.9c-14.9,7.9-31.5,12.4-48,13C-127.2,433.1-128.4,433.1-129.6,433.1L-129.6,433.1z"/>
						<path class="st0" d="M-210.4,260.5c0.8,0,1.6,0.2,2.3,0.7c1.9,1.3,2.4,3.9,1.2,5.8c-11.4,17.4-17.6,37.4-17.9,57.9
							c-0.4,27.8,9.9,53.4,28.9,72.2c17.8,17.5,41.2,27.1,66.3,27.1c1.1,0,2.3,0,3.4-0.1c15.2-0.5,30.4-4.6,44.1-11.9l-2.1-3.5
							l16.6-0.5l-7.9,14.7l-2.2-3.6c-14.9,8-31.6,12.6-48.2,13.1c-1.2,0-2.4,0.1-3.6,0.1l0,0c-27.3,0-52.8-10.4-72.2-29.5
							c-20.7-20.4-31.8-48.2-31.4-78.3c0.3-22.1,7-43.7,19.2-62.4C-213.1,261.2-211.8,260.5-210.4,260.5 M-210.4,259.5
							c-1.8,0-3.4,0.9-4.3,2.3c-12.4,18.9-19.1,40.6-19.4,63c-0.4,30.4,10.8,58.4,31.7,79c19.5,19.2,45.3,29.8,72.9,29.8
							c1.2,0,2.4,0,3.7-0.1c16.4-0.5,32.9-5,47.8-12.8l1.7,2.7l0.9,1.5l0.9-1.6l7.9-14.7l0.9-1.6l-1.8,0.1l-16.6,0.5l-1.8,0.1
							l0.9,1.5l1.6,2.5c-13.4,6.9-28.1,10.8-42.7,11.3c-1.1,0-2.2,0.1-3.4,0.1c-24.8,0-48.1-9.5-65.6-26.8
							c-18.8-18.6-29-44-28.6-71.4c0.3-20.3,6.4-40.2,17.7-57.4c1.6-2.4,0.9-5.6-1.5-7.2C-208.4,259.8-209.4,259.5-210.4,259.5
							L-210.4,259.5z"/>
					</g>
					<ellipse class="st6" cx="-177.3" cy="241.6" rx="41.2" ry="38.5"/>
				</g>
			</g>
			<g>
				<defs>
					<ellipse id="SVGID_5_" cx="-127.7" cy="329.5" rx="132.4" ry="133.1"/>
				</defs>
				<clipPath id="SVGID_6_">
					<use xlink:href="#SVGID_5_"  style="overflow:visible;"/>
				</clipPath>
				<g class="st7">
					<path class="st8" d="M-129.2,229c-0.1,0-0.1,0-0.2,0h-0.4c-44.2,0.8-80,38.5-80,83.9c0,44.7,35.4,81,78.8,81c0.5,0,1,0,1.5,0
						c44.2-0.8,80-38.5,80-83.9C-49.5,265.1-85.3,228.5-129.2,229z M-65.2,343.8l-25.8,0.5c2-9.2,3.2-19.3,3.4-30l30-0.5
						C-58.1,324.5-60.8,334.7-65.2,343.8z M-201.7,316.3l30-0.5c0.2,10.7,1.5,20.9,3.6,30.1l-25.8,0.5
						C-198.4,337.3-201.2,327.1-201.7,316.3z M-194.1,279.3c0.1,0,0.2,0,0.3,0h0.1l25.4-0.5c-2,9-3.1,18.8-3.4,29.2l-30,0.6
						C-201.1,298.1-198.4,288.2-194.1,279.3z M-57.6,305.9l-30,0.6c-0.3-10.4-1.5-20.2-3.5-29.1l25.8-0.5
						C-60.9,285.6-58.2,295.5-57.6,305.9z M-95.6,306.6l-28.4,0.5v-29.2l24.7-0.5C-97.2,286.4-95.9,296.2-95.6,306.6z M-124.1,269.9
						v-31.8c9.2,3.3,17.3,15.1,22.5,31.4L-124.1,269.9z M-132.1,237.3V270l-25.7,0.5C-152,252.1-142.6,239.3-132.1,237.3z
						 M-132.1,278.1v29.2l-31.6,0.6c0.3-10.4,1.6-20.3,3.7-29.2L-132.1,278.1z M-163.7,315.6l31.6-0.5v30.1l-27.8,0.5
						C-162,336.5-163.4,326.3-163.7,315.6z M-132,353.6v32.1c-10.4-1.4-19.7-13.7-25.5-31.6L-132,353.6z M-123.9,384.7v-31.3
						l22.3-0.5C-106.8,369.2-114.8,381-123.9,384.7z M-124,345v-30.1l28.4-0.5c-0.2,10.7-1.6,20.9-3.8,30.1L-124,345z M-69.9,268.8
						l-23.3,0.4c-3.6-12.1-8.7-22.1-14.9-29.2C-92.4,244.9-79,255.2-69.9,268.8z M-151.5,241c-6.1,7.2-11.2,17.5-14.7,29.7
						l-23.3,0.4C-180.5,257.2-167.1,246.4-151.5,241z M-188.9,354.8l23-0.5c3.6,11.8,8.6,21.6,14.7,28.5
						C-166.6,378.1-179.8,368.1-188.9,354.8z M-107.7,382c6-7.2,11-17.2,14.6-29.2l23.1-0.5C-79,366-92.2,376.6-107.7,382z"/>
					<path class="st9" d="M-121.8,229c-0.1,0-0.1,0-0.2,0h-0.4c-44.2,0.8-80,38.5-80,83.9c0,44.7,35.4,81,78.8,81c0.5,0,1,0,1.5,0
						c44.2-0.8,80-38.5,80-83.9C-42.2,265.1-78,228.5-121.8,229z M-57.9,343.8l-25.8,0.5c2-9.2,3.2-19.3,3.4-30l30-0.5
						C-50.7,324.5-53.4,334.7-57.9,343.8z M-194.3,316.3l30-0.5c0.2,10.7,1.5,20.9,3.6,30.1l-25.8,0.5
						C-191.1,337.3-193.9,327.1-194.3,316.3z M-186.7,279.3c0.1,0,0.2,0,0.3,0h0.1l25.4-0.5c-2,9-3.1,18.8-3.4,29.2l-30,0.6
						C-193.7,298.1-191,288.2-186.7,279.3z M-50.2,305.9l-30,0.6c-0.3-10.4-1.5-20.2-3.5-29.1l25.8-0.5
						C-53.5,285.6-50.8,295.5-50.2,305.9z M-88.3,306.6l-28.4,0.5v-29.2l24.7-0.5C-89.9,286.4-88.5,296.2-88.3,306.6z M-116.7,269.9
						v-31.8c9.2,3.3,17.3,15.1,22.5,31.4L-116.7,269.9z M-124.7,237.3V270l-25.7,0.5C-144.6,252.1-135.3,239.3-124.7,237.3z
						 M-124.7,278.1v29.2l-31.6,0.6c0.3-10.4,1.6-20.3,3.7-29.2L-124.7,278.1z M-156.3,315.6l31.6-0.5v30.1l-27.8,0.5
						C-154.7,336.5-156.1,326.3-156.3,315.6z M-124.6,353.6v32.1c-10.4-1.4-19.7-13.7-25.5-31.6L-124.6,353.6z M-116.6,384.7v-31.3
						l22.3-0.5C-99.5,369.2-107.5,381-116.6,384.7z M-116.6,345v-30.1l28.4-0.5c-0.2,10.7-1.6,20.9-3.8,30.1L-116.6,345z
						 M-62.5,268.8l-23.3,0.4c-3.6-12.1-8.7-22.1-14.9-29.2C-85,244.9-71.6,255.2-62.5,268.8z M-144.2,241
						c-6.1,7.2-11.2,17.5-14.7,29.7l-23.3,0.4C-173.1,257.2-159.8,246.4-144.2,241z M-181.5,354.8l23-0.5
						c3.6,11.8,8.6,21.6,14.7,28.5C-159.2,378.1-172.4,368.1-181.5,354.8z M-100.4,382c6-7.2,11-17.2,14.6-29.2l23.1-0.5
						C-71.7,366-84.9,376.6-100.4,382z"/>
				</g>
			</g>
			<g>
				<defs>
					<ellipse id="SVGID_7_" cx="-127.7" cy="329.5" rx="132.4" ry="133.1"/>
				</defs>
				<clipPath id="SVGID_8_">
					<use xlink:href="#SVGID_7_"  style="overflow:visible;"/>
				</clipPath>
				<g class="st10">
					<path class="st0" d="M-40,385.1c-1.1,0-2.1-0.3-2.9-0.9c-2.4-1.6-3-4.9-1.3-7.3c12-17.6,18.6-38,18.9-59.1
						c0.4-27.5-9.8-52.8-28.6-71.4c-17.6-17.3-40.9-26.8-65.7-26.8c-1.1,0-2.2,0-3.3,0.1c-15.3,0.5-30.6,4.7-44.5,12.3l2.6,4
						l-20.2,1l9.2-18l2.7,4.2c15.4-8.5,32.6-13.3,49.8-13.9c1.2,0,2.4-0.1,3.6-0.1c27.6,0,53.5,10.6,73,29.8
						c20.9,20.6,32.2,48.7,31.7,79c-0.3,23.1-7.5,45.5-20.7,64.8C-36.6,384.2-38.2,385.1-40,385.1z"/>
					<g>
						<path class="st1" d="M-119.7,210.2c27.4,0,52.9,10.4,72.3,29.5c20.7,20.4,31.8,48.2,31.4,78.3c-0.3,22.9-7.4,45.1-20.5,64.3
							c-0.8,1.2-2.1,1.8-3.4,1.8c-0.8,0-1.6-0.2-2.4-0.7c-1.9-1.3-2.4-3.9-1.1-5.8c12.2-17.8,18.8-38.4,19.1-59.6
							c0.4-27.8-9.9-53.4-28.9-72.2c-17.8-17.7-41.3-27.2-66.4-27.2c-1.1,0-2.2,0-3.3,0.1c-15.9,0.5-31.7,5-45.9,12.9l2.2,3.5
							l-16.6,0.8l7.6-14.8l2.2,3.5c15.5-8.7,32.8-13.7,50.2-14.2C-122,210.2-120.9,210.2-119.7,210.2 M-119.7,208.1
							c-1.2,0-2.4,0-3.6,0.1c-17,0.6-34,5.2-49.4,13.5l-1.2-1.9l-2-3.1l-1.7,3.2l-7.6,14.8l-1.6,3.2l3.6-0.2l16.6-0.8l3.6-0.2
							l-1.9-3l-1-1.6c13.5-7.1,28.3-11.1,43.1-11.6c1.1,0,2.2-0.1,3.2-0.1c24.6,0,47.6,9.4,64.9,26.5c18.6,18.4,28.7,43.5,28.3,70.7
							c-0.3,20.8-6.8,41.1-18.7,58.5c-1.9,2.8-1.2,6.8,1.6,8.7c1,0.7,2.3,1.1,3.5,1.1c2.1,0,4-1,5.2-2.7
							c13.3-19.5,20.5-42.1,20.9-65.4c0.4-30.6-10.9-59-32-79.8C-65.6,218.8-91.8,208.1-119.7,208.1L-119.7,208.1z"/>
					</g>
				</g>
			</g>
			<g>
				<defs>
					<ellipse id="SVGID_9_" cx="-127.7" cy="329.5" rx="132.4" ry="133.1"/>
				</defs>
				<clipPath id="SVGID_10_">
					<use xlink:href="#SVGID_9_"  style="overflow:visible;"/>
				</clipPath>
				<g class="st11">
					<ellipse class="st12" cx="-24.6" cy="380.3" rx="39.2" ry="39.5"/>
					<ellipse class="st12" cx="-24.5" cy="380.1" rx="32.8" ry="33"/>
					<ellipse class="st12" cx="-24.5" cy="380.1" rx="26.2" ry="26.3"/>
					<ellipse class="st12" cx="-24.5" cy="380.1" rx="18.7" ry="18.8"/>
					<ellipse class="st12" cx="-24.5" cy="380.1" rx="12.3" ry="12.4"/>
				</g>
			</g>
			<g>
				<defs>
					<ellipse id="SVGID_11_" cx="-127.7" cy="329.5" rx="132.4" ry="133.1"/>
				</defs>
				<clipPath id="SVGID_12_">
					<use xlink:href="#SVGID_11_"  style="overflow:visible;"/>
				</clipPath>
			</g>
		</g>
	</g>
	<g>
		<g>
			<defs>
				<ellipse id="SVGID_13_" cx="-127.7" cy="332.9" rx="133.8" ry="134.6"/>
			</defs>
			<clipPath id="SVGID_14_">
				<use xlink:href="#SVGID_13_"  style="overflow:visible;"/>
			</clipPath>
			<use xlink:href="#SVGID_13_"  style="overflow:visible;fill:none;stroke:#B0BA50;stroke-miterlimit:10;"/>
		</g>
		<g>
			<defs>
				<ellipse id="SVGID_15_" cx="-127.7" cy="332.9" rx="133.8" ry="134.6"/>
			</defs>
			<clipPath id="SVGID_16_">
				<use xlink:href="#SVGID_15_"  style="overflow:visible;"/>
			</clipPath>
			<use xlink:href="#SVGID_15_"  style="overflow:visible;fill:none;stroke:#B0BA50;stroke-miterlimit:10;"/>
		</g>
		<g>
			<defs>
				<ellipse id="SVGID_17_" cx="-127.7" cy="332.9" rx="133.8" ry="134.6"/>
			</defs>
			<clipPath id="SVGID_18_">
				<use xlink:href="#SVGID_17_"  style="overflow:visible;"/>
			</clipPath>
			<use xlink:href="#SVGID_17_"  style="overflow:visible;fill:none;stroke:#B0BA50;stroke-miterlimit:10;"/>
		</g>
		<g>
			<defs>
				<ellipse id="SVGID_19_" cx="-127.7" cy="332.9" rx="133.8" ry="134.6"/>
			</defs>
			<clipPath id="SVGID_20_">
				<use xlink:href="#SVGID_19_"  style="overflow:visible;"/>
			</clipPath>
			<use xlink:href="#SVGID_19_"  style="overflow:visible;fill:none;stroke:#B0BA50;stroke-miterlimit:10;"/>
		</g>
		<g>
			<defs>
				<ellipse id="SVGID_21_" cx="-127.7" cy="332.9" rx="133.8" ry="134.6"/>
			</defs>
			<clipPath id="SVGID_22_">
				<use xlink:href="#SVGID_21_"  style="overflow:visible;"/>
			</clipPath>
			<use xlink:href="#SVGID_21_"  style="overflow:visible;fill:none;stroke:#B0BA50;stroke-miterlimit:10;"/>
		</g>
		<g>
			<defs>
				<ellipse id="SVGID_23_" cx="-127.7" cy="332.9" rx="133.8" ry="134.6"/>
			</defs>
			<clipPath id="SVGID_24_">
				<use xlink:href="#SVGID_23_"  style="overflow:visible;"/>
			</clipPath>
			<use xlink:href="#SVGID_23_"  style="overflow:visible;fill:none;stroke:#B0BA50;stroke-miterlimit:10;"/>
		</g>
		<g>
			<defs>
				<ellipse id="SVGID_25_" cx="-127.7" cy="332.9" rx="133.8" ry="134.6"/>
			</defs>
			<clipPath id="SVGID_26_">
				<use xlink:href="#SVGID_25_"  style="overflow:visible;"/>
			</clipPath>
			<use xlink:href="#SVGID_25_"  style="overflow:visible;fill:none;stroke:#B0BA50;stroke-miterlimit:10;"/>
		</g>
		<g>
			<defs>
				<ellipse id="SVGID_27_" cx="-127.7" cy="332.9" rx="133.8" ry="134.6"/>
			</defs>
			<clipPath id="SVGID_28_">
				<use xlink:href="#SVGID_27_"  style="overflow:visible;"/>
			</clipPath>
			<use xlink:href="#SVGID_27_"  style="overflow:visible;fill:none;stroke:#B0BA50;stroke-miterlimit:10;"/>
		</g>
		<g>
			<defs>
				<ellipse id="SVGID_29_" cx="-127.7" cy="332.9" rx="133.8" ry="134.6"/>
			</defs>
			<clipPath id="SVGID_30_">
				<use xlink:href="#SVGID_29_"  style="overflow:visible;"/>
			</clipPath>
			<use xlink:href="#SVGID_29_"  style="overflow:visible;fill:none;stroke:#B0BA50;stroke-miterlimit:10;"/>
		</g>
		<g>
			<defs>
				<ellipse id="SVGID_31_" cx="-127.7" cy="332.9" rx="133.8" ry="134.6"/>
			</defs>
			<clipPath id="SVGID_32_">
				<use xlink:href="#SVGID_31_"  style="overflow:visible;"/>
			</clipPath>
			<use xlink:href="#SVGID_31_"  style="overflow:visible;fill:none;stroke:#B0BA50;stroke-miterlimit:10;"/>
		</g>
		<g>
			<defs>
				<ellipse id="SVGID_33_" cx="-127.7" cy="332.9" rx="133.8" ry="134.6"/>
			</defs>
			<clipPath id="SVGID_34_">
				<use xlink:href="#SVGID_33_"  style="overflow:visible;"/>
			</clipPath>
			<use xlink:href="#SVGID_33_"  style="overflow:visible;fill:none;stroke:#B0BA50;stroke-miterlimit:10;"/>
		</g>
		<g>
			<defs>
				<ellipse id="SVGID_35_" cx="-127.7" cy="332.9" rx="133.8" ry="134.6"/>
			</defs>
			<clipPath id="SVGID_36_">
				<use xlink:href="#SVGID_35_"  style="overflow:visible;"/>
			</clipPath>
			<use xlink:href="#SVGID_35_"  style="overflow:visible;fill:none;stroke:#B0BA50;stroke-miterlimit:10;"/>
		</g>
		<g>
			<ellipse id="XMLID_1_" class="st13" cx="-127.7" cy="332.9" rx="133.8" ry="134.6"/>
		</g>
	</g>
</g>
</svg>
