<?xml version="1.0" encoding="utf-8"?>
<!-- Generator: Adobe Illustrator 19.0.0, SVG Export Plug-In . SVG Version: 6.00 Build 0)  -->
<svg version="1.1" id="Layer_1" xmlns="http://www.w3.org/2000/svg" xmlns:xlink="http://www.w3.org/1999/xlink" x="0px" y="0px"
	 viewBox="-384 146 510 510" height="510" width="510" style="enable-background:new -384 146 510 510;" xml:space="preserve">
<style type="text/css">
	.st0{fill:#FFFFFF;}
	.st1{fill:#EA7933;}
	.st2{fill:#EA7933;stroke:#EA7933;stroke-width:2.1023;stroke-miterlimit:10;}
	.st3{clip-path:url(#SVGID_2_);}
	.st4{fill:#FFFFFF;stroke:#EA7933;stroke-width:2.1023;stroke-miterlimit:10;}
	.st5{fill:#EA7933;stroke:#FFFFFF;stroke-width:2.1023;stroke-miterlimit:10;}
	.st6{clip-path:url(#SVGID_4_);}
	.st7{fill:#EA7933;stroke:#FFFFFF;stroke-width:1.5767;stroke-miterlimit:10;}
	.st8{clip-path:url(#SVGID_6_);}
	.st9{fill:#F9A346;stroke:#EA7933;stroke-width:1.5767;stroke-linecap:round;stroke-linejoin:round;stroke-miterlimit:10;}
	.st10{clip-path:url(#SVGID_12_);}
	.st11{clip-path:url(#SVGID_13_);}
	.st12{clip-path:url(#SVGID_14_);}
	.st13{clip-path:url(#SVGID_15_);}
	.st14{clip-path:url(#SVGID_16_);}
	.st15{fill:none;stroke:#EA7933;stroke-width:2.1023;stroke-miterlimit:10;}
	.st16{clip-path:url(#SVGID_18_);}
	.st17{clip-path:url(#SVGID_61_);}
	.st18{clip-path:url(#SVGID_62_);}
	.st19{clip-path:url(#SVGID_63_);}
	.st20{clip-path:url(#SVGID_64_);}
	.st21{clip-path:url(#SVGID_65_);}
	.st22{clip-path:url(#SVGID_66_);}
	.st23{clip-path:url(#SVGID_67_);}
	.st24{clip-path:url(#SVGID_68_);}
	.st25{clip-path:url(#SVGID_69_);}
	.st26{clip-path:url(#SVGID_70_);}
	.st27{clip-path:url(#SVGID_71_);}
	.st28{clip-path:url(#SVGID_72_);}
	.st29{clip-path:url(#SVGID_73_);}
	.st30{clip-path:url(#SVGID_74_);}
	.st31{clip-path:url(#SVGID_75_);}
	.st32{clip-path:url(#SVGID_76_);}
	.st33{clip-path:url(#SVGID_77_);}
	.st34{clip-path:url(#SVGID_78_);}
	.st35{clip-path:url(#SVGID_79_);}
	.st36{clip-path:url(#SVGID_80_);}
	.st37{clip-path:url(#SVGID_81_);}
	.st38{clip-path:url(#SVGID_82_);}
	.st39{clip-path:url(#SVGID_83_);}
	.st40{clip-path:url(#SVGID_84_);}
	.st41{clip-path:url(#SVGID_85_);}
	.st42{clip-path:url(#SVGID_86_);}
	.st43{clip-path:url(#SVGID_87_);}
	.st44{clip-path:url(#SVGID_88_);}
	.st45{clip-path:url(#SVGID_89_);}
	.st46{clip-path:url(#SVGID_90_);}
	.st47{clip-path:url(#SVGID_91_);}
	.st48{clip-path:url(#SVGID_92_);}
	.st49{clip-path:url(#SVGID_93_);}
	.st50{clip-path:url(#SVGID_94_);}
	.st51{clip-path:url(#SVGID_95_);}
	.st52{clip-path:url(#SVGID_96_);}
	.st53{clip-path:url(#SVGID_97_);}
	.st54{clip-path:url(#SVGID_98_);}
	.st55{clip-path:url(#SVGID_99_);}
	.st56{clip-path:url(#SVGID_100_);}
	.st57{clip-path:url(#SVGID_101_);}
	.st58{clip-path:url(#SVGID_102_);fill:#FFFFFF;stroke:#EA7933;stroke-width:2.1023;stroke-miterlimit:10;}
	.st59{clip-path:url(#SVGID_102_);}
	.st60{fill:none;stroke:#EA7933;stroke-width:4.2047;stroke-miterlimit:10;}
	.st61{fill:none;stroke:#EA7933;stroke-width:4.2076;stroke-miterlimit:10;}
</style>
<g>
	<g>
		<path class="st0" d="M44.6,394.2C3.7,528.1-129,650.6-129,650.6s-132.5-132.7-173.4-256.4c-6.4-18.8-10.2-38.9-10.2-60
			c0-101.3,82.1-183.6,183.6-183.6S54.5,232.9,54.5,334.1C54.8,355.2,51,375.3,44.6,394.2z"/>
		<path class="st1" d="M-129.1,653.5l-1.4-1.4c-0.3-0.3-33.6-33.8-71.5-82c-35-44.5-81.2-111-102.4-175.2
			c-6.8-20.1-10.3-40.5-10.3-60.6c0-102.5,83.3-185.8,185.7-185.8c102.3,0,185.6,83.2,185.6,185.6c0.3,19.9-3.1,40.3-10,60.8
			c-21.2,69.4-67.5,135.7-102.5,179c-37.9,46.9-71.3,77.9-71.7,78.2L-129.1,653.5z M-129,152.7c-100.1,0-181.5,81.4-181.5,181.5
			c0,19.7,3.4,39.7,10.1,59.3c21,63.6,66.9,129.7,101.7,173.9c33.3,42.4,63.1,73.4,69.8,80.2c6.8-6.5,36.6-35.3,69.8-76.4
			c34.8-43.1,80.7-108.8,101.7-177.7c6.8-20.1,10.1-40,9.8-59.5C52.4,234.1-29,152.7-129,152.7z"/>
	</g>
	<g>
		<ellipse id="XMLID_235_" class="st2" cx="-126.6" cy="347.5" rx="133.5" ry="134.2"/>
		<g>
			<g>
				<ellipse id="XMLID_231_" class="st0" cx="-126.6" cy="330.6" rx="133.5" ry="134.2"/>
			</g>
			<g>
				<g>
					<g>
						<defs>
							<ellipse id="SVGID_1_" cx="-126.6" cy="330.6" rx="133.5" ry="134.2"/>
						</defs>
						<clipPath id="SVGID_2_">
							<use xlink:href="#SVGID_1_"  style="overflow:visible;"/>
						</clipPath>
						<g class="st3">
							<ellipse class="st4" cx="-16.3" cy="293.7" rx="57.9" ry="58.3"/>
							<ellipse class="st4" cx="-16.2" cy="293.4" rx="48.5" ry="48.8"/>
							<ellipse class="st4" cx="-16.2" cy="293.4" rx="38.6" ry="38.8"/>
							<ellipse class="st4" cx="-16.2" cy="293.4" rx="27.6" ry="27.7"/>
							<ellipse class="st5" cx="-16.2" cy="293.4" rx="18.2" ry="18.3"/>
						</g>
					</g>
				</g>
			</g>
			<g>
				<g>
					<g>
						<defs>
							<ellipse id="SVGID_3_" cx="-126.6" cy="330.6" rx="133.5" ry="134.2"/>
						</defs>
						<clipPath id="SVGID_4_">
							<use xlink:href="#SVGID_3_"  style="overflow:visible;"/>
						</clipPath>
						<g class="st6">
							<ellipse class="st7" cx="-133" cy="419.4" rx="136.1" ry="127.2"/>
							<path class="st7" d="M-5.5,419.4c0,65.8-57.1,119.1-127.5,119.1s-127.5-53.3-127.5-119.1s57.1-119.1,127.5-119.1"/>
							<ellipse class="st7" cx="-133" cy="419.4" rx="117.2" ry="109.5"/>
							<ellipse class="st7" cx="-133" cy="419.4" rx="99.1" ry="92.6"/>
							<ellipse class="st7" cx="-133.5" cy="419.6" rx="84.6" ry="79.1"/>
							<ellipse class="st7" cx="-133" cy="422.6" rx="69.7" ry="65.2"/>
							<ellipse class="st7" cx="-131.7" cy="423.1" rx="53.6" ry="50.1"/>
							<ellipse class="st7" cx="-131.5" cy="422" rx="36.2" ry="33.8"/>
						</g>
					</g>
				</g>
			</g>
			<g>
				<g>
					<g>
						<defs>
							<ellipse id="SVGID_5_" cx="-126.6" cy="330.6" rx="133.5" ry="134.2"/>
						</defs>
						<clipPath id="SVGID_6_">
							<use xlink:href="#SVGID_5_"  style="overflow:visible;"/>
						</clipPath>
						<g class="st8">
							<rect x="-233.8" y="219.5" class="st2" width="87" height="184.5"/>
							<rect x="-224.8" y="219.5" class="st4" width="93.3" height="178.2"/>
							<rect x="-217.8" y="219.5" class="st2" width="113.5" height="171.8"/>
							<path class="st9" d="M-103.2,397.4c0,0,13-42.7,23.6-49.8c10.7-7.1,9.7-2.3,9.7-2.3s-17.7,46.7-16,51.3
								C-84.1,401.2-103.2,397.4-103.2,397.4z"/>
							<path class="st4" d="M-92.5,387.2c0,0,13-42.7,23.6-49.8c10.7-7.1,9.7-2.3,9.7-2.3s-17.7,46.7-16,51.3
								C-73.4,390.9-92.5,387.2-92.5,387.2z"/>
							<g>
								<g>
									<rect id="XMLID_233_" x="-209.4" y="219.5" class="st0" width="121.6" height="166.6"/>
								</g>
								<g>
									<g>
										<g>
											<defs>
												<rect id="SVGID_7_" x="-209.4" y="219.5" width="121.6" height="166.6"/>
											</defs>
											<defs>
												<rect id="SVGID_8_" x="-209.4" y="219.5" width="121.6" height="166.6"/>
											</defs>
											<defs>
												<rect id="SVGID_9_" x="-209.4" y="219.5" width="121.6" height="166.6"/>
											</defs>
											<defs>
												<rect id="SVGID_10_" x="-209.4" y="219.5" width="121.6" height="166.6"/>
											</defs>
											<defs>
												<rect id="SVGID_11_" x="-209.4" y="219.5" width="121.6" height="166.6"/>
											</defs>
											<clipPath id="SVGID_12_">
												<use xlink:href="#SVGID_7_"  style="overflow:visible;"/>
											</clipPath>
											<clipPath id="SVGID_13_" class="st10">
												<use xlink:href="#SVGID_8_"  style="overflow:visible;"/>
											</clipPath>
											<clipPath id="SVGID_14_" class="st11">
												<use xlink:href="#SVGID_9_"  style="overflow:visible;"/>
											</clipPath>
											<clipPath id="SVGID_15_" class="st12">
												<use xlink:href="#SVGID_10_"  style="overflow:visible;"/>
											</clipPath>
											<clipPath id="SVGID_16_" class="st13">
												<use xlink:href="#SVGID_11_"  style="overflow:visible;"/>
											</clipPath>
											<g class="st14">
												<rect x="-189.8" y="236.6" class="st5" width="88.3" height="8"/>
												<rect x="-189.8" y="251" class="st5" width="88.3" height="8"/>
												<rect x="-189.8" y="265.3" class="st5" width="88.3" height="8"/>
												<rect x="-189.8" y="279.7" class="st5" width="88.3" height="8"/>
												<rect x="-189.8" y="294" class="st5" width="88.3" height="8"/>
												<rect x="-189.8" y="308.4" class="st5" width="88.3" height="8"/>
												<rect x="-189.8" y="322.7" class="st5" width="88.3" height="8"/>
												<path class="st5" d="M-148.6,379.5c-3.1-2.1-6-4.6-8.5-7.6c-19.4-22.7-32.6-24.2-32.6-24.2v-9.5h88.3v40.6"/>
											</g>
											<g class="st14">
												<rect id="XMLID_1_" x="-209.4" y="219.5" class="st15" width="121.6" height="166.6"/>
											</g>
										</g>
									</g>
									<g>
										<g>
											<g>
												<defs>
													<ellipse id="SVGID_17_" cx="-126.6" cy="330.6" rx="133.5" ry="134.2"/>
												</defs>
												<clipPath id="SVGID_18_">
													<use xlink:href="#SVGID_17_"  style="overflow:visible;"/>
												</clipPath>
												<g class="st16">
													<g>
														<rect x="-203.8" y="224.9" class="st15" width="111.1" height="153.9"/>
														<g>
															<g>
																<path id="XMLID_232_" class="st0" d="M-231,437.9c2.3-1.5,31.6-32.5,36.1-45.6s8.8-28.4,20.9-33.6
																	s30.2-15.6,47.7-13.4c19.2,2.3,16.2,2.2,31.1-1.9c18.8-5.3,29.4,11.7,4.5,17.8c-11,2.7-8.4,0.6-27.2,9.5
																	c-15,7.1-19.5,10-19.4,10.4c1,6.2,49.2,5.7,54.3,1.6c3-2.4,4.2-7.5,18-21.4c4.8-11.8,10.7-18.7,11.7-19.6
																	c6.4-6.3,18.6-14.3,8.7,8.5s-25.1,52.5-29.4,55c-14.3,8.6-77.3,17.6-79.8,18.3s-32.3,30-32.3,30L-231,437.9z"/>
															</g>
															<g>
																<g>
																	<g>
																		<defs>
																			<path id="SVGID_19_" d="M-231,437.9c2.3-1.5,31.6-32.5,36.1-45.6s8.8-28.4,20.9-33.6s30.2-15.6,47.7-13.4
																				c19.2,2.3,16.2,2.2,31.1-1.9c18.8-5.3,29.4,11.7,4.5,17.8c-11,2.7-8.4,0.6-27.2,9.5c-15,7.1-19.5,10-19.4,10.4
																				c1,6.2,49.2,5.7,54.3,1.6c3-2.4,4.2-7.5,18-21.4c4.8-11.8,10.7-18.7,11.7-19.6c6.4-6.3,18.6-14.3,8.7,8.5
																				s-25.1,52.5-29.4,55c-14.3,8.6-77.3,17.6-79.8,18.3s-32.3,30-32.3,30L-231,437.9z"/>
																		</defs>
																		<defs>
																			<path id="SVGID_20_" d="M-231,437.9c2.3-1.5,31.6-32.5,36.1-45.6s8.8-28.4,20.9-33.6s30.2-15.6,47.7-13.4
																				c19.2,2.3,16.2,2.2,31.1-1.9c18.8-5.3,29.4,11.7,4.5,17.8c-11,2.7-8.4,0.6-27.2,9.5c-15,7.1-19.5,10-19.4,10.4
																				c1,6.2,49.2,5.7,54.3,1.6c3-2.4,4.2-7.5,18-21.4c4.8-11.8,10.7-18.7,11.7-19.6c6.4-6.3,18.6-14.3,8.7,8.5
																				s-25.1,52.5-29.4,55c-14.3,8.6-77.3,17.6-79.8,18.3s-32.3,30-32.3,30L-231,437.9z"/>
																		</defs>
																		<defs>
																			<path id="SVGID_21_" d="M-231,437.9c2.3-1.5,31.6-32.5,36.1-45.6s8.8-28.4,20.9-33.6s30.2-15.6,47.7-13.4
																				c19.2,2.3,16.2,2.2,31.1-1.9c18.8-5.3,29.4,11.7,4.5,17.8c-11,2.7-8.4,0.6-27.2,9.5c-15,7.1-19.5,10-19.4,10.4
																				c1,6.2,49.2,5.7,54.3,1.6c3-2.4,4.2-7.5,18-21.4c4.8-11.8,10.7-18.7,11.7-19.6c6.4-6.3,18.6-14.3,8.7,8.5
																				s-25.1,52.5-29.4,55c-14.3,8.6-77.3,17.6-79.8,18.3s-32.3,30-32.3,30L-231,437.9z"/>
																		</defs>
																		<defs>
																			<path id="SVGID_22_" d="M-231,437.9c2.3-1.5,31.6-32.5,36.1-45.6s8.8-28.4,20.9-33.6s30.2-15.6,47.7-13.4
																				c19.2,2.3,16.2,2.2,31.1-1.9c18.8-5.3,29.4,11.7,4.5,17.8c-11,2.7-8.4,0.6-27.2,9.5c-15,7.1-19.5,10-19.4,10.4
																				c1,6.2,49.2,5.7,54.3,1.6c3-2.4,4.2-7.5,18-21.4c4.8-11.8,10.7-18.7,11.7-19.6c6.4-6.3,18.6-14.3,8.7,8.5
																				s-25.1,52.5-29.4,55c-14.3,8.6-77.3,17.6-79.8,18.3s-32.3,30-32.3,30L-231,437.9z"/>
																		</defs>
																		<defs>
																			<path id="SVGID_23_" d="M-231,437.9c2.3-1.5,31.6-32.5,36.1-45.6s8.8-28.4,20.9-33.6s30.2-15.6,47.7-13.4
																				c19.2,2.3,16.2,2.2,31.1-1.9c18.8-5.3,29.4,11.7,4.5,17.8c-11,2.7-8.4,0.6-27.2,9.5c-15,7.1-19.5,10-19.4,10.4
																				c1,6.2,49.2,5.7,54.3,1.6c3-2.4,4.2-7.5,18-21.4c4.8-11.8,10.7-18.7,11.7-19.6c6.4-6.3,18.6-14.3,8.7,8.5
																				s-25.1,52.5-29.4,55c-14.3,8.6-77.3,17.6-79.8,18.3s-32.3,30-32.3,30L-231,437.9z"/>
																		</defs>
																		<defs>
																			<path id="SVGID_24_" d="M-231,437.9c2.3-1.5,31.6-32.5,36.1-45.6s8.8-28.4,20.9-33.6s30.2-15.6,47.7-13.4
																				c19.2,2.3,16.2,2.2,31.1-1.9c18.8-5.3,29.4,11.7,4.5,17.8c-11,2.7-8.4,0.6-27.2,9.5c-15,7.1-19.5,10-19.4,10.4
																				c1,6.2,49.2,5.7,54.3,1.6c3-2.4,4.2-7.5,18-21.4c4.8-11.8,10.7-18.7,11.7-19.6c6.4-6.3,18.6-14.3,8.7,8.5
																				s-25.1,52.5-29.4,55c-14.3,8.6-77.3,17.6-79.8,18.3s-32.3,30-32.3,30L-231,437.9z"/>
																		</defs>
																		<defs>
																			<path id="SVGID_25_" d="M-231,437.9c2.3-1.5,31.6-32.5,36.1-45.6s8.8-28.4,20.9-33.6s30.2-15.6,47.7-13.4
																				c19.2,2.3,16.2,2.2,31.1-1.9c18.8-5.3,29.4,11.7,4.5,17.8c-11,2.7-8.4,0.6-27.2,9.5c-15,7.1-19.5,10-19.4,10.4
																				c1,6.2,49.2,5.7,54.3,1.6c3-2.4,4.2-7.5,18-21.4c4.8-11.8,10.7-18.7,11.7-19.6c6.4-6.3,18.6-14.3,8.7,8.5
																				s-25.1,52.5-29.4,55c-14.3,8.6-77.3,17.6-79.8,18.3s-32.3,30-32.3,30L-231,437.9z"/>
																		</defs>
																		<defs>
																			<path id="SVGID_26_" d="M-231,437.9c2.3-1.5,31.6-32.5,36.1-45.6s8.8-28.4,20.9-33.6s30.2-15.6,47.7-13.4
																				c19.2,2.3,16.2,2.2,31.1-1.9c18.8-5.3,29.4,11.7,4.5,17.8c-11,2.7-8.4,0.6-27.2,9.5c-15,7.1-19.5,10-19.4,10.4
																				c1,6.2,49.2,5.7,54.3,1.6c3-2.4,4.2-7.5,18-21.4c4.8-11.8,10.7-18.7,11.7-19.6c6.4-6.3,18.6-14.3,8.7,8.5
																				s-25.1,52.5-29.4,55c-14.3,8.6-77.3,17.6-79.8,18.3s-32.3,30-32.3,30L-231,437.9z"/>
																		</defs>
																		<defs>
																			<path id="SVGID_27_" d="M-231,437.9c2.3-1.5,31.6-32.5,36.1-45.6s8.8-28.4,20.9-33.6s30.2-15.6,47.7-13.4
																				c19.2,2.3,16.2,2.2,31.1-1.9c18.8-5.3,29.4,11.7,4.5,17.8c-11,2.7-8.4,0.6-27.2,9.5c-15,7.1-19.5,10-19.4,10.4
																				c1,6.2,49.2,5.7,54.3,1.6c3-2.4,4.2-7.5,18-21.4c4.8-11.8,10.7-18.7,11.7-19.6c6.4-6.3,18.6-14.3,8.7,8.5
																				s-25.1,52.5-29.4,55c-14.3,8.6-77.3,17.6-79.8,18.3s-32.3,30-32.3,30L-231,437.9z"/>
																		</defs>
																		<defs>
																			<path id="SVGID_28_" d="M-231,437.9c2.3-1.5,31.6-32.5,36.1-45.6s8.8-28.4,20.9-33.6s30.2-15.6,47.7-13.4
																				c19.2,2.3,16.2,2.2,31.1-1.9c18.8-5.3,29.4,11.7,4.5,17.8c-11,2.7-8.4,0.6-27.2,9.5c-15,7.1-19.5,10-19.4,10.4
																				c1,6.2,49.2,5.7,54.3,1.6c3-2.4,4.2-7.5,18-21.4c4.8-11.8,10.7-18.7,11.7-19.6c6.4-6.3,18.6-14.3,8.7,8.5
																				s-25.1,52.5-29.4,55c-14.3,8.6-77.3,17.6-79.8,18.3s-32.3,30-32.3,30L-231,437.9z"/>
																		</defs>
																		<defs>
																			<path id="SVGID_29_" d="M-231,437.9c2.3-1.5,31.6-32.5,36.1-45.6s8.8-28.4,20.9-33.6s30.2-15.6,47.7-13.4
																				c19.2,2.3,16.2,2.2,31.1-1.9c18.8-5.3,29.4,11.7,4.5,17.8c-11,2.7-8.4,0.6-27.2,9.5c-15,7.1-19.5,10-19.4,10.4
																				c1,6.2,49.2,5.7,54.3,1.6c3-2.4,4.2-7.5,18-21.4c4.8-11.8,10.7-18.7,11.7-19.6c6.4-6.3,18.6-14.3,8.7,8.5
																				s-25.1,52.5-29.4,55c-14.3,8.6-77.3,17.6-79.8,18.3s-32.3,30-32.3,30L-231,437.9z"/>
																		</defs>
																		<defs>
																			<path id="SVGID_30_" d="M-231,437.9c2.3-1.5,31.6-32.5,36.1-45.6s8.8-28.4,20.9-33.6s30.2-15.6,47.7-13.4
																				c19.2,2.3,16.2,2.2,31.1-1.9c18.8-5.3,29.4,11.7,4.5,17.8c-11,2.7-8.4,0.6-27.2,9.5c-15,7.1-19.5,10-19.4,10.4
																				c1,6.2,49.2,5.7,54.3,1.6c3-2.4,4.2-7.5,18-21.4c4.8-11.8,10.7-18.7,11.7-19.6c6.4-6.3,18.6-14.3,8.7,8.5
																				s-25.1,52.5-29.4,55c-14.3,8.6-77.3,17.6-79.8,18.3s-32.3,30-32.3,30L-231,437.9z"/>
																		</defs>
																		<defs>
																			<path id="SVGID_31_" d="M-231,437.9c2.3-1.5,31.6-32.5,36.1-45.6s8.8-28.4,20.9-33.6s30.2-15.6,47.7-13.4
																				c19.2,2.3,16.2,2.2,31.1-1.9c18.8-5.3,29.4,11.7,4.5,17.8c-11,2.7-8.4,0.6-27.2,9.5c-15,7.1-19.5,10-19.4,10.4
																				c1,6.2,49.2,5.7,54.3,1.6c3-2.4,4.2-7.5,18-21.4c4.8-11.8,10.7-18.7,11.7-19.6c6.4-6.3,18.6-14.3,8.7,8.5
																				s-25.1,52.5-29.4,55c-14.3,8.6-77.3,17.6-79.8,18.3s-32.3,30-32.3,30L-231,437.9z"/>
																		</defs>
																		<defs>
																			<path id="SVGID_32_" d="M-231,437.9c2.3-1.5,31.6-32.5,36.1-45.6s8.8-28.4,20.9-33.6s30.2-15.6,47.7-13.4
																				c19.2,2.3,16.2,2.2,31.1-1.9c18.8-5.3,29.4,11.7,4.5,17.8c-11,2.7-8.4,0.6-27.2,9.5c-15,7.1-19.5,10-19.4,10.4
																				c1,6.2,49.2,5.7,54.3,1.6c3-2.4,4.2-7.5,18-21.4c4.8-11.8,10.7-18.7,11.7-19.6c6.4-6.3,18.6-14.3,8.7,8.5
																				s-25.1,52.5-29.4,55c-14.3,8.6-77.3,17.6-79.8,18.3s-32.3,30-32.3,30L-231,437.9z"/>
																		</defs>
																		<defs>
																			<path id="SVGID_33_" d="M-231,437.9c2.3-1.5,31.6-32.5,36.1-45.6s8.8-28.4,20.9-33.6s30.2-15.6,47.7-13.4
																				c19.2,2.3,16.2,2.2,31.1-1.9c18.8-5.3,29.4,11.7,4.5,17.8c-11,2.7-8.4,0.6-27.2,9.5c-15,7.1-19.5,10-19.4,10.4
																				c1,6.2,49.2,5.7,54.3,1.6c3-2.4,4.2-7.5,18-21.4c4.8-11.8,10.7-18.7,11.7-19.6c6.4-6.3,18.6-14.3,8.7,8.5
																				s-25.1,52.5-29.4,55c-14.3,8.6-77.3,17.6-79.8,18.3s-32.3,30-32.3,30L-231,437.9z"/>
																		</defs>
																		<defs>
																			<path id="SVGID_34_" d="M-231,437.9c2.3-1.5,31.6-32.5,36.1-45.6s8.8-28.4,20.9-33.6s30.2-15.6,47.7-13.4
																				c19.2,2.3,16.2,2.2,31.1-1.9c18.8-5.3,29.4,11.7,4.5,17.8c-11,2.7-8.4,0.6-27.2,9.5c-15,7.1-19.5,10-19.4,10.4
																				c1,6.2,49.2,5.7,54.3,1.6c3-2.4,4.2-7.5,18-21.4c4.8-11.8,10.7-18.7,11.7-19.6c6.4-6.3,18.6-14.3,8.7,8.5
																				s-25.1,52.5-29.4,55c-14.3,8.6-77.3,17.6-79.8,18.3s-32.3,30-32.3,30L-231,437.9z"/>
																		</defs>
																		<defs>
																			<path id="SVGID_35_" d="M-231,437.9c2.3-1.5,31.6-32.5,36.1-45.6s8.8-28.4,20.9-33.6s30.2-15.6,47.7-13.4
																				c19.2,2.3,16.2,2.2,31.1-1.9c18.8-5.3,29.4,11.7,4.5,17.8c-11,2.7-8.4,0.6-27.2,9.5c-15,7.1-19.5,10-19.4,10.4
																				c1,6.2,49.2,5.7,54.3,1.6c3-2.4,4.2-7.5,18-21.4c4.8-11.8,10.7-18.7,11.7-19.6c6.4-6.3,18.6-14.3,8.7,8.5
																				s-25.1,52.5-29.4,55c-14.3,8.6-77.3,17.6-79.8,18.3s-32.3,30-32.3,30L-231,437.9z"/>
																		</defs>
																		<defs>
																			<path id="SVGID_36_" d="M-231,437.9c2.3-1.5,31.6-32.5,36.1-45.6s8.8-28.4,20.9-33.6s30.2-15.6,47.7-13.4
																				c19.2,2.3,16.2,2.2,31.1-1.9c18.8-5.3,29.4,11.7,4.5,17.8c-11,2.7-8.4,0.6-27.2,9.5c-15,7.1-19.5,10-19.4,10.4
																				c1,6.2,49.2,5.7,54.3,1.6c3-2.4,4.2-7.5,18-21.4c4.8-11.8,10.7-18.7,11.7-19.6c6.4-6.3,18.6-14.3,8.7,8.5
																				s-25.1,52.5-29.4,55c-14.3,8.6-77.3,17.6-79.8,18.3s-32.3,30-32.3,30L-231,437.9z"/>
																		</defs>
																		<defs>
																			<path id="SVGID_37_" d="M-231,437.9c2.3-1.5,31.6-32.5,36.1-45.6s8.8-28.4,20.9-33.6s30.2-15.6,47.7-13.4
																				c19.2,2.3,16.2,2.2,31.1-1.9c18.8-5.3,29.4,11.7,4.5,17.8c-11,2.7-8.4,0.6-27.2,9.5c-15,7.1-19.5,10-19.4,10.4
																				c1,6.2,49.2,5.7,54.3,1.6c3-2.4,4.2-7.5,18-21.4c4.8-11.8,10.7-18.7,11.7-19.6c6.4-6.3,18.6-14.3,8.7,8.5
																				s-25.1,52.5-29.4,55c-14.3,8.6-77.3,17.6-79.8,18.3s-32.3,30-32.3,30L-231,437.9z"/>
																		</defs>
																		<defs>
																			<path id="SVGID_38_" d="M-231,437.9c2.3-1.5,31.6-32.5,36.1-45.6s8.8-28.4,20.9-33.6s30.2-15.6,47.7-13.4
																				c19.2,2.3,16.2,2.2,31.1-1.9c18.8-5.3,29.4,11.7,4.5,17.8c-11,2.7-8.4,0.6-27.2,9.5c-15,7.1-19.5,10-19.4,10.4
																				c1,6.2,49.2,5.7,54.3,1.6c3-2.4,4.2-7.5,18-21.4c4.8-11.8,10.7-18.7,11.7-19.6c6.4-6.3,18.6-14.3,8.7,8.5
																				s-25.1,52.5-29.4,55c-14.3,8.6-77.3,17.6-79.8,18.3s-32.3,30-32.3,30L-231,437.9z"/>
																		</defs>
																		<defs>
																			<path id="SVGID_39_" d="M-231,437.9c2.3-1.5,31.6-32.5,36.1-45.6s8.8-28.4,20.9-33.6s30.2-15.6,47.7-13.4
																				c19.2,2.3,16.2,2.2,31.1-1.9c18.8-5.3,29.4,11.7,4.5,17.8c-11,2.7-8.4,0.6-27.2,9.5c-15,7.1-19.5,10-19.4,10.4
																				c1,6.2,49.2,5.7,54.3,1.6c3-2.4,4.2-7.5,18-21.4c4.8-11.8,10.7-18.7,11.7-19.6c6.4-6.3,18.6-14.3,8.7,8.5
																				s-25.1,52.5-29.4,55c-14.3,8.6-77.3,17.6-79.8,18.3s-32.3,30-32.3,30L-231,437.9z"/>
																		</defs>
																		<defs>
																			<path id="SVGID_40_" d="M-231,437.9c2.3-1.5,31.6-32.5,36.1-45.6s8.8-28.4,20.9-33.6s30.2-15.6,47.7-13.4
																				c19.2,2.3,16.2,2.2,31.1-1.9c18.8-5.3,29.4,11.7,4.5,17.8c-11,2.7-8.4,0.6-27.2,9.5c-15,7.1-19.5,10-19.4,10.4
																				c1,6.2,49.2,5.7,54.3,1.6c3-2.4,4.2-7.5,18-21.4c4.8-11.8,10.7-18.7,11.7-19.6c6.4-6.3,18.6-14.3,8.7,8.5
																				s-25.1,52.5-29.4,55c-14.3,8.6-77.3,17.6-79.8,18.3s-32.3,30-32.3,30L-231,437.9z"/>
																		</defs>
																		<defs>
																			<path id="SVGID_41_" d="M-231,437.9c2.3-1.5,31.6-32.5,36.1-45.6s8.8-28.4,20.9-33.6s30.2-15.6,47.7-13.4
																				c19.2,2.3,16.2,2.2,31.1-1.9c18.8-5.3,29.4,11.7,4.5,17.8c-11,2.7-8.4,0.6-27.2,9.5c-15,7.1-19.5,10-19.4,10.4
																				c1,6.2,49.2,5.7,54.3,1.6c3-2.4,4.2-7.5,18-21.4c4.8-11.8,10.7-18.7,11.7-19.6c6.4-6.3,18.6-14.3,8.7,8.5
																				s-25.1,52.5-29.4,55c-14.3,8.6-77.3,17.6-79.8,18.3s-32.3,30-32.3,30L-231,437.9z"/>
																		</defs>
																		<defs>
																			<path id="SVGID_42_" d="M-231,437.9c2.3-1.5,31.6-32.5,36.1-45.6s8.8-28.4,20.9-33.6s30.2-15.6,47.7-13.4
																				c19.2,2.3,16.2,2.2,31.1-1.9c18.8-5.3,29.4,11.7,4.5,17.8c-11,2.7-8.4,0.6-27.2,9.5c-15,7.1-19.5,10-19.4,10.4
																				c1,6.2,49.2,5.7,54.3,1.6c3-2.4,4.2-7.5,18-21.4c4.8-11.8,10.7-18.7,11.7-19.6c6.4-6.3,18.6-14.3,8.7,8.5
																				s-25.1,52.5-29.4,55c-14.3,8.6-77.3,17.6-79.8,18.3s-32.3,30-32.3,30L-231,437.9z"/>
																		</defs>
																		<defs>
																			<path id="SVGID_43_" d="M-231,437.9c2.3-1.5,31.6-32.5,36.1-45.6s8.8-28.4,20.9-33.6s30.2-15.6,47.7-13.4
																				c19.2,2.3,16.2,2.2,31.1-1.9c18.8-5.3,29.4,11.7,4.5,17.8c-11,2.7-8.4,0.6-27.2,9.5c-15,7.1-19.5,10-19.4,10.4
																				c1,6.2,49.2,5.7,54.3,1.6c3-2.4,4.2-7.5,18-21.4c4.8-11.8,10.7-18.7,11.7-19.6c6.4-6.3,18.6-14.3,8.7,8.5
																				s-25.1,52.5-29.4,55c-14.3,8.6-77.3,17.6-79.8,18.3s-32.3,30-32.3,30L-231,437.9z"/>
																		</defs>
																		<defs>
																			<path id="SVGID_44_" d="M-231,437.9c2.3-1.5,31.6-32.5,36.1-45.6s8.8-28.4,20.9-33.6s30.2-15.6,47.7-13.4
																				c19.2,2.3,16.2,2.2,31.1-1.9c18.8-5.3,29.4,11.7,4.5,17.8c-11,2.7-8.4,0.6-27.2,9.5c-15,7.1-19.5,10-19.4,10.4
																				c1,6.2,49.2,5.7,54.3,1.6c3-2.4,4.2-7.5,18-21.4c4.8-11.8,10.7-18.7,11.7-19.6c6.4-6.3,18.6-14.3,8.7,8.5
																				s-25.1,52.5-29.4,55c-14.3,8.6-77.3,17.6-79.8,18.3s-32.3,30-32.3,30L-231,437.9z"/>
																		</defs>
																		<defs>
																			<path id="SVGID_45_" d="M-231,437.9c2.3-1.5,31.6-32.5,36.1-45.6s8.8-28.4,20.9-33.6s30.2-15.6,47.7-13.4
																				c19.2,2.3,16.2,2.2,31.1-1.9c18.8-5.3,29.4,11.7,4.5,17.8c-11,2.7-8.4,0.6-27.2,9.5c-15,7.1-19.5,10-19.4,10.4
																				c1,6.2,49.2,5.7,54.3,1.6c3-2.4,4.2-7.5,18-21.4c4.8-11.8,10.7-18.7,11.7-19.6c6.4-6.3,18.6-14.3,8.7,8.5
																				s-25.1,52.5-29.4,55c-14.3,8.6-77.3,17.6-79.8,18.3s-32.3,30-32.3,30L-231,437.9z"/>
																		</defs>
																		<defs>
																			<path id="SVGID_46_" d="M-231,437.9c2.3-1.5,31.6-32.5,36.1-45.6s8.8-28.4,20.9-33.6s30.2-15.6,47.7-13.4
																				c19.2,2.3,16.2,2.2,31.1-1.9c18.8-5.3,29.4,11.7,4.5,17.8c-11,2.7-8.4,0.6-27.2,9.5c-15,7.1-19.5,10-19.4,10.4
																				c1,6.2,49.2,5.7,54.3,1.6c3-2.4,4.2-7.5,18-21.4c4.8-11.8,10.7-18.7,11.7-19.6c6.4-6.3,18.6-14.3,8.7,8.5
																				s-25.1,52.5-29.4,55c-14.3,8.6-77.3,17.6-79.8,18.3s-32.3,30-32.3,30L-231,437.9z"/>
																		</defs>
																		<defs>
																			<path id="SVGID_47_" d="M-231,437.9c2.3-1.5,31.6-32.5,36.1-45.6s8.8-28.4,20.9-33.6s30.2-15.6,47.7-13.4
																				c19.2,2.3,16.2,2.2,31.1-1.9c18.8-5.3,29.4,11.7,4.5,17.8c-11,2.7-8.4,0.6-27.2,9.5c-15,7.1-19.5,10-19.4,10.4
																				c1,6.2,49.2,5.7,54.3,1.6c3-2.4,4.2-7.5,18-21.4c4.8-11.8,10.7-18.7,11.7-19.6c6.4-6.3,18.6-14.3,8.7,8.5
																				s-25.1,52.5-29.4,55c-14.3,8.6-77.3,17.6-79.8,18.3s-32.3,30-32.3,30L-231,437.9z"/>
																		</defs>
																		<defs>
																			<path id="SVGID_48_" d="M-231,437.9c2.3-1.5,31.6-32.5,36.1-45.6s8.8-28.4,20.9-33.6s30.2-15.6,47.7-13.4
																				c19.2,2.3,16.2,2.2,31.1-1.9c18.8-5.3,29.4,11.7,4.5,17.8c-11,2.7-8.4,0.6-27.2,9.5c-15,7.1-19.5,10-19.4,10.4
																				c1,6.2,49.2,5.7,54.3,1.6c3-2.4,4.2-7.5,18-21.4c4.8-11.8,10.7-18.7,11.7-19.6c6.4-6.3,18.6-14.3,8.7,8.5
																				s-25.1,52.5-29.4,55c-14.3,8.6-77.3,17.6-79.8,18.3s-32.3,30-32.3,30L-231,437.9z"/>
																		</defs>
																		<defs>
																			<path id="SVGID_49_" d="M-231,437.9c2.3-1.5,31.6-32.5,36.1-45.6s8.8-28.4,20.9-33.6s30.2-15.6,47.7-13.4
																				c19.2,2.3,16.2,2.2,31.1-1.9c18.8-5.3,29.4,11.7,4.5,17.8c-11,2.7-8.4,0.6-27.2,9.5c-15,7.1-19.5,10-19.4,10.4
																				c1,6.2,49.2,5.7,54.3,1.6c3-2.4,4.2-7.5,18-21.4c4.8-11.8,10.7-18.7,11.7-19.6c6.4-6.3,18.6-14.3,8.7,8.5
																				s-25.1,52.5-29.4,55c-14.3,8.6-77.3,17.6-79.8,18.3s-32.3,30-32.3,30L-231,437.9z"/>
																		</defs>
																		<defs>
																			<path id="SVGID_50_" d="M-231,437.9c2.3-1.5,31.6-32.5,36.1-45.6s8.8-28.4,20.9-33.6s30.2-15.6,47.7-13.4
																				c19.2,2.3,16.2,2.2,31.1-1.9c18.8-5.3,29.4,11.7,4.5,17.8c-11,2.7-8.4,0.6-27.2,9.5c-15,7.1-19.5,10-19.4,10.4
																				c1,6.2,49.2,5.7,54.3,1.6c3-2.4,4.2-7.5,18-21.4c4.8-11.8,10.7-18.7,11.7-19.6c6.4-6.3,18.6-14.3,8.7,8.5
																				s-25.1,52.5-29.4,55c-14.3,8.6-77.3,17.6-79.8,18.3s-32.3,30-32.3,30L-231,437.9z"/>
																		</defs>
																		<defs>
																			<path id="SVGID_51_" d="M-231,437.9c2.3-1.5,31.6-32.5,36.1-45.6s8.8-28.4,20.9-33.6s30.2-15.6,47.7-13.4
																				c19.2,2.3,16.2,2.2,31.1-1.9c18.8-5.3,29.4,11.7,4.5,17.8c-11,2.7-8.4,0.6-27.2,9.5c-15,7.1-19.5,10-19.4,10.4
																				c1,6.2,49.2,5.7,54.3,1.6c3-2.4,4.2-7.5,18-21.4c4.8-11.8,10.7-18.7,11.7-19.6c6.4-6.3,18.6-14.3,8.7,8.5
																				s-25.1,52.5-29.4,55c-14.3,8.6-77.3,17.6-79.8,18.3s-32.3,30-32.3,30L-231,437.9z"/>
																		</defs>
																		<defs>
																			<path id="SVGID_52_" d="M-231,437.9c2.3-1.5,31.6-32.5,36.1-45.6s8.8-28.4,20.9-33.6s30.2-15.6,47.7-13.4
																				c19.2,2.3,16.2,2.2,31.1-1.9c18.8-5.3,29.4,11.7,4.5,17.8c-11,2.7-8.4,0.6-27.2,9.5c-15,7.1-19.5,10-19.4,10.4
																				c1,6.2,49.2,5.7,54.3,1.6c3-2.4,4.2-7.5,18-21.4c4.8-11.8,10.7-18.7,11.7-19.6c6.4-6.3,18.6-14.3,8.7,8.5
																				s-25.1,52.5-29.4,55c-14.3,8.6-77.3,17.6-79.8,18.3s-32.3,30-32.3,30L-231,437.9z"/>
																		</defs>
																		<defs>
																			<path id="SVGID_53_" d="M-231,437.9c2.3-1.5,31.6-32.5,36.1-45.6s8.8-28.4,20.9-33.6s30.2-15.6,47.7-13.4
																				c19.2,2.3,16.2,2.2,31.1-1.9c18.8-5.3,29.4,11.7,4.5,17.8c-11,2.7-8.4,0.6-27.2,9.5c-15,7.1-19.5,10-19.4,10.4
																				c1,6.2,49.2,5.7,54.3,1.6c3-2.4,4.2-7.5,18-21.4c4.8-11.8,10.7-18.7,11.7-19.6c6.4-6.3,18.6-14.3,8.7,8.5
																				s-25.1,52.5-29.4,55c-14.3,8.6-77.3,17.6-79.8,18.3s-32.3,30-32.3,30L-231,437.9z"/>
																		</defs>
																		<defs>
																			<path id="SVGID_54_" d="M-231,437.9c2.3-1.5,31.6-32.5,36.1-45.6s8.8-28.4,20.9-33.6s30.2-15.6,47.7-13.4
																				c19.2,2.3,16.2,2.2,31.1-1.9c18.8-5.3,29.4,11.7,4.5,17.8c-11,2.7-8.4,0.6-27.2,9.5c-15,7.1-19.5,10-19.4,10.4
																				c1,6.2,49.2,5.7,54.3,1.6c3-2.4,4.2-7.5,18-21.4c4.8-11.8,10.7-18.7,11.7-19.6c6.4-6.3,18.6-14.3,8.7,8.5
																				s-25.1,52.5-29.4,55c-14.3,8.6-77.3,17.6-79.8,18.3s-32.3,30-32.3,30L-231,437.9z"/>
																		</defs>
																		<defs>
																			<path id="SVGID_55_" d="M-231,437.9c2.3-1.5,31.6-32.5,36.1-45.6s8.8-28.4,20.9-33.6s30.2-15.6,47.7-13.4
																				c19.2,2.3,16.2,2.2,31.1-1.9c18.8-5.3,29.4,11.7,4.5,17.8c-11,2.7-8.4,0.6-27.2,9.5c-15,7.1-19.5,10-19.4,10.4
																				c1,6.2,49.2,5.7,54.3,1.6c3-2.4,4.2-7.5,18-21.4c4.8-11.8,10.7-18.7,11.7-19.6c6.4-6.3,18.6-14.3,8.7,8.5
																				s-25.1,52.5-29.4,55c-14.3,8.6-77.3,17.6-79.8,18.3s-32.3,30-32.3,30L-231,437.9z"/>
																		</defs>
																		<defs>
																			<path id="SVGID_56_" d="M-231,437.9c2.3-1.5,31.6-32.5,36.1-45.6s8.8-28.4,20.9-33.6s30.2-15.6,47.7-13.4
																				c19.2,2.3,16.2,2.2,31.1-1.9c18.8-5.3,29.4,11.7,4.5,17.8c-11,2.7-8.4,0.6-27.2,9.5c-15,7.1-19.5,10-19.4,10.4
																				c1,6.2,49.2,5.7,54.3,1.6c3-2.4,4.2-7.5,18-21.4c4.8-11.8,10.7-18.7,11.7-19.6c6.4-6.3,18.6-14.3,8.7,8.5
																				s-25.1,52.5-29.4,55c-14.3,8.6-77.3,17.6-79.8,18.3s-32.3,30-32.3,30L-231,437.9z"/>
																		</defs>
																		<defs>
																			<path id="SVGID_57_" d="M-231,437.9c2.3-1.5,31.6-32.5,36.1-45.6s8.8-28.4,20.9-33.6s30.2-15.6,47.7-13.4
																				c19.2,2.3,16.2,2.2,31.1-1.9c18.8-5.3,29.4,11.7,4.5,17.8c-11,2.7-8.4,0.6-27.2,9.5c-15,7.1-19.5,10-19.4,10.4
																				c1,6.2,49.2,5.7,54.3,1.6c3-2.4,4.2-7.5,18-21.4c4.8-11.8,10.7-18.7,11.7-19.6c6.4-6.3,18.6-14.3,8.7,8.5
																				s-25.1,52.5-29.4,55c-14.3,8.6-77.3,17.6-79.8,18.3s-32.3,30-32.3,30L-231,437.9z"/>
																		</defs>
																		<defs>
																			<path id="SVGID_58_" d="M-231,437.9c2.3-1.5,31.6-32.5,36.1-45.6s8.8-28.4,20.9-33.6s30.2-15.6,47.7-13.4
																				c19.2,2.3,16.2,2.2,31.1-1.9c18.8-5.3,29.4,11.7,4.5,17.8c-11,2.7-8.4,0.6-27.2,9.5c-15,7.1-19.5,10-19.4,10.4
																				c1,6.2,49.2,5.7,54.3,1.6c3-2.4,4.2-7.5,18-21.4c4.8-11.8,10.7-18.7,11.7-19.6c6.4-6.3,18.6-14.3,8.7,8.5
																				s-25.1,52.5-29.4,55c-14.3,8.6-77.3,17.6-79.8,18.3s-32.3,30-32.3,30L-231,437.9z"/>
																		</defs>
																		<defs>
																			<path id="SVGID_59_" d="M-231,437.9c2.3-1.5,31.6-32.5,36.1-45.6s8.8-28.4,20.9-33.6s30.2-15.6,47.7-13.4
																				c19.2,2.3,16.2,2.2,31.1-1.9c18.8-5.3,29.4,11.7,4.5,17.8c-11,2.7-8.4,0.6-27.2,9.5c-15,7.1-19.5,10-19.4,10.4
																				c1,6.2,49.2,5.7,54.3,1.6c3-2.4,4.2-7.5,18-21.4c4.8-11.8,10.7-18.7,11.7-19.6c6.4-6.3,18.6-14.3,8.7,8.5
																				s-25.1,52.5-29.4,55c-14.3,8.6-77.3,17.6-79.8,18.3s-32.3,30-32.3,30L-231,437.9z"/>
																		</defs>
																		<defs>
																			<path id="SVGID_60_" d="M-231,437.9c2.3-1.5,31.6-32.5,36.1-45.6s8.8-28.4,20.9-33.6s30.2-15.6,47.7-13.4
																				c19.2,2.3,16.2,2.2,31.1-1.9c18.8-5.3,29.4,11.7,4.5,17.8c-11,2.7-8.4,0.6-27.2,9.5c-15,7.1-19.5,10-19.4,10.4
																				c1,6.2,49.2,5.7,54.3,1.6c3-2.4,4.2-7.5,18-21.4c4.8-11.8,10.7-18.7,11.7-19.6c6.4-6.3,18.6-14.3,8.7,8.5
																				s-25.1,52.5-29.4,55c-14.3,8.6-77.3,17.6-79.8,18.3s-32.3,30-32.3,30L-231,437.9z"/>
																		</defs>
																		<clipPath id="SVGID_61_">
																			<use xlink:href="#SVGID_19_"  style="overflow:visible;"/>
																		</clipPath>
																		<clipPath id="SVGID_62_" class="st17">
																			<use xlink:href="#SVGID_20_"  style="overflow:visible;"/>
																		</clipPath>
																		<clipPath id="SVGID_63_" class="st18">
																			<use xlink:href="#SVGID_21_"  style="overflow:visible;"/>
																		</clipPath>
																		<clipPath id="SVGID_64_" class="st19">
																			<use xlink:href="#SVGID_22_"  style="overflow:visible;"/>
																		</clipPath>
																		<clipPath id="SVGID_65_" class="st20">
																			<use xlink:href="#SVGID_23_"  style="overflow:visible;"/>
																		</clipPath>
																		<clipPath id="SVGID_66_" class="st21">
																			<use xlink:href="#SVGID_24_"  style="overflow:visible;"/>
																		</clipPath>
																		<clipPath id="SVGID_67_" class="st22">
																			<use xlink:href="#SVGID_25_"  style="overflow:visible;"/>
																		</clipPath>
																		<clipPath id="SVGID_68_" class="st23">
																			<use xlink:href="#SVGID_26_"  style="overflow:visible;"/>
																		</clipPath>
																		<clipPath id="SVGID_69_" class="st24">
																			<use xlink:href="#SVGID_27_"  style="overflow:visible;"/>
																		</clipPath>
																		<clipPath id="SVGID_70_" class="st25">
																			<use xlink:href="#SVGID_28_"  style="overflow:visible;"/>
																		</clipPath>
																		<clipPath id="SVGID_71_" class="st26">
																			<use xlink:href="#SVGID_29_"  style="overflow:visible;"/>
																		</clipPath>
																		<clipPath id="SVGID_72_" class="st27">
																			<use xlink:href="#SVGID_30_"  style="overflow:visible;"/>
																		</clipPath>
																		<clipPath id="SVGID_73_" class="st28">
																			<use xlink:href="#SVGID_31_"  style="overflow:visible;"/>
																		</clipPath>
																		<clipPath id="SVGID_74_" class="st29">
																			<use xlink:href="#SVGID_32_"  style="overflow:visible;"/>
																		</clipPath>
																		<clipPath id="SVGID_75_" class="st30">
																			<use xlink:href="#SVGID_33_"  style="overflow:visible;"/>
																		</clipPath>
																		<clipPath id="SVGID_76_" class="st31">
																			<use xlink:href="#SVGID_34_"  style="overflow:visible;"/>
																		</clipPath>
																		<clipPath id="SVGID_77_" class="st32">
																			<use xlink:href="#SVGID_35_"  style="overflow:visible;"/>
																		</clipPath>
																		<clipPath id="SVGID_78_" class="st33">
																			<use xlink:href="#SVGID_36_"  style="overflow:visible;"/>
																		</clipPath>
																		<clipPath id="SVGID_79_" class="st34">
																			<use xlink:href="#SVGID_37_"  style="overflow:visible;"/>
																		</clipPath>
																		<clipPath id="SVGID_80_" class="st35">
																			<use xlink:href="#SVGID_38_"  style="overflow:visible;"/>
																		</clipPath>
																		<clipPath id="SVGID_81_" class="st36">
																			<use xlink:href="#SVGID_39_"  style="overflow:visible;"/>
																		</clipPath>
																		<clipPath id="SVGID_82_" class="st37">
																			<use xlink:href="#SVGID_40_"  style="overflow:visible;"/>
																		</clipPath>
																		<clipPath id="SVGID_83_" class="st38">
																			<use xlink:href="#SVGID_41_"  style="overflow:visible;"/>
																		</clipPath>
																		<clipPath id="SVGID_84_" class="st39">
																			<use xlink:href="#SVGID_42_"  style="overflow:visible;"/>
																		</clipPath>
																		<clipPath id="SVGID_85_" class="st40">
																			<use xlink:href="#SVGID_43_"  style="overflow:visible;"/>
																		</clipPath>
																		<clipPath id="SVGID_86_" class="st41">
																			<use xlink:href="#SVGID_44_"  style="overflow:visible;"/>
																		</clipPath>
																		<clipPath id="SVGID_87_" class="st42">
																			<use xlink:href="#SVGID_45_"  style="overflow:visible;"/>
																		</clipPath>
																		<clipPath id="SVGID_88_" class="st43">
																			<use xlink:href="#SVGID_46_"  style="overflow:visible;"/>
																		</clipPath>
																		<clipPath id="SVGID_89_" class="st44">
																			<use xlink:href="#SVGID_47_"  style="overflow:visible;"/>
																		</clipPath>
																		<clipPath id="SVGID_90_" class="st45">
																			<use xlink:href="#SVGID_48_"  style="overflow:visible;"/>
																		</clipPath>
																		<clipPath id="SVGID_91_" class="st46">
																			<use xlink:href="#SVGID_49_"  style="overflow:visible;"/>
																		</clipPath>
																		<clipPath id="SVGID_92_" class="st47">
																			<use xlink:href="#SVGID_50_"  style="overflow:visible;"/>
																		</clipPath>
																		<clipPath id="SVGID_93_" class="st48">
																			<use xlink:href="#SVGID_51_"  style="overflow:visible;"/>
																		</clipPath>
																		<clipPath id="SVGID_94_" class="st49">
																			<use xlink:href="#SVGID_52_"  style="overflow:visible;"/>
																		</clipPath>
																		<clipPath id="SVGID_95_" class="st50">
																			<use xlink:href="#SVGID_53_"  style="overflow:visible;"/>
																		</clipPath>
																		<clipPath id="SVGID_96_" class="st51">
																			<use xlink:href="#SVGID_54_"  style="overflow:visible;"/>
																		</clipPath>
																		<clipPath id="SVGID_97_" class="st52">
																			<use xlink:href="#SVGID_55_"  style="overflow:visible;"/>
																		</clipPath>
																		<clipPath id="SVGID_98_" class="st53">
																			<use xlink:href="#SVGID_56_"  style="overflow:visible;"/>
																		</clipPath>
																		<clipPath id="SVGID_99_" class="st54">
																			<use xlink:href="#SVGID_57_"  style="overflow:visible;"/>
																		</clipPath>
																		<clipPath id="SVGID_100_" class="st55">
																			<use xlink:href="#SVGID_58_"  style="overflow:visible;"/>
																		</clipPath>
																		<clipPath id="SVGID_101_" class="st56">
																			<use xlink:href="#SVGID_59_"  style="overflow:visible;"/>
																		</clipPath>
																		<clipPath id="SVGID_102_" class="st57">
																			<use xlink:href="#SVGID_60_"  style="overflow:visible;"/>
																		</clipPath>
																		<path class="st58" d="M-76.8,342.8c-2.8-0.4-8,1.6-11,2.6c-4.5,1.6-6.9,3.8-3.9,8.8c3.5,5.9,17.4,0.3,21.7-3.4"/>
																		<path class="st58" d="M-134.3,379c-7,5.6-15.6,1.1-23.6,5.6c-3.8,2.2-7.3,8.8-0.7,8.4c5.7-0.4,6.4-5.6,6.3-9.9"/>
																		<g class="st59">
																			<path id="XMLID_2_" class="st15" d="M-231,437.9c2.3-1.5,31.6-32.5,36.1-45.6s8.8-28.4,20.9-33.6
																				s30.2-15.6,47.7-13.4c19.2,2.3,16.2,2.2,31.1-1.9c18.8-5.3,29.4,11.7,4.5,17.8c-11,2.7-8.4,0.6-27.2,9.5
																				c-15,7.1-19.5,10-19.4,10.4c1,6.2,49.2,5.7,54.3,1.6c3-2.4,4.2-7.5,18-21.4c4.8-11.8,10.7-18.7,11.7-19.6
																				c6.4-6.3,18.6-14.3,8.7,8.5s-25.1,52.5-29.4,55c-14.3,8.6-77.3,17.6-79.8,18.3s-32.3,30-32.3,30L-231,437.9z"/>
																		</g>
																	</g>
																</g>
																<path class="st4" d="M-270.2,464.2c-4.7,0,53.8-51.3,53.8-51.3l58.7,30.2c0,0-55.9,87.8-58,87.8
																	C-217.8,531-267.4,464.2-270.2,464.2z"/>
															</g>
															<g>
																<ellipse id="XMLID_3_" class="st60" cx="-126.6" cy="330.6" rx="133.5" ry="134.2"/>
															</g>
														</g>
													</g>
												</g>
											</g>
										</g>
									</g>
								</g>
							</g>
						</g>
					</g>
				</g>
			</g>
		</g>
	</g>
</g>
<g>
	<ellipse id="XMLID_4_" class="st61" cx="-127" cy="330.6" rx="133.6" ry="134.3"/>
</g>
</svg>
