<svg xmlns="http://www.w3.org/2000/svg" width="19.969" height="19.969" viewBox="0 0 19.969 19.969">
  <defs>
    <style>
      .cls-1 {
        fill: #515d68;
        fill-rule: evenodd;
      }
    </style>
  </defs>
  <path id="х" class="cls-1" d="M735.648,529.648A7.92,7.92,0,1,0,730,532.016,8,8,0,0,0,735.648,529.648Zm1.43-12.726A10.073,10.073,0,1,1,730,514.016,9.927,9.927,0,0,1,737.078,516.922Zm-3.094,4.5L731.406,524l2.578,2.578-1.406,1.406L730,525.406l-2.578,2.578-1.406-1.406L728.594,524l-2.578-2.578,1.406-1.406L730,522.594l2.578-2.578Z" transform="translate(-720.031 -514.031)"/>
</svg>
