<?xml version="1.0" encoding="utf-8"?>
<!-- Generator: Adobe Illustrator 18.0.0, SVG Export Plug-In . SVG Version: 6.00 Build 0)  -->
<!DOCTYPE svg PUBLIC "-//W3C//DTD SVG 1.1//EN" "http://www.w3.org/Graphics/SVG/1.1/DTD/svg11.dtd" [
	<!ENTITY ns_extend "http://ns.adobe.com/Extensibility/1.0/">
	<!ENTITY ns_ai "http://ns.adobe.com/AdobeIllustrator/10.0/">
	<!ENTITY ns_graphs "http://ns.adobe.com/Graphs/1.0/">
	<!ENTITY ns_vars "http://ns.adobe.com/Variables/1.0/">
	<!ENTITY ns_imrep "http://ns.adobe.com/ImageReplacement/1.0/">
	<!ENTITY ns_sfw "http://ns.adobe.com/SaveForWeb/1.0/">
	<!ENTITY ns_custom "http://ns.adobe.com/GenericCustomNamespace/1.0/">
	<!ENTITY ns_adobe_xpath "http://ns.adobe.com/XPath/1.0/">
]>
<svg version="1.1" id="Layer_1" xmlns:x="&ns_extend;" xmlns:i="&ns_ai;" xmlns:graph="&ns_graphs;"
	 xmlns="http://www.w3.org/2000/svg" xmlns:xlink="http://www.w3.org/1999/xlink" x="0px" y="0px" viewBox="-5 -5 510 510"
	 enable-background="new -5 -5 510 510" height="510" width="510" xml:space="preserve">
<metadata>
	<sfw  xmlns="&ns_sfw;">
		<slices></slices>
		<sliceSourceBounds  width="371.3" height="504.1" x="64.2" y="-2.1" bottomLeftOrigin="true"></sliceSourceBounds>
	</sfw>
</metadata>
<g>
	<path fill="#FFFFFF" d="M423.5,243.6C382.6,377.5,249.9,500,249.9,500S117.4,367.3,76.5,243.6c-6.4-18.8-10.2-38.9-10.2-60
		C66.3,82.3,148.4,0,249.9,0s183.5,82.3,183.5,183.5C433.7,204.6,429.9,224.7,423.5,243.6z"/>
	<path fill="#D03E36" d="M249.9,502.1c-0.5,0-1.1-0.2-1.5-0.6c-0.3-0.3-33.6-33.8-71.5-82c-35-44.5-81.2-111-102.4-175.2
		c-6.8-20.1-10.3-40.5-10.3-60.6C64.2,81.2,147.5-2.1,249.9-2.1c102.3,0,185.6,83.2,185.6,185.6c0.3,19.9-3.1,40.3-10,60.8
		C404.3,313.7,358,380,323,423.3c-37.9,46.9-71.3,77.9-71.7,78.2C250.9,501.9,250.4,502.1,249.9,502.1z M249.9,2.1
		C149.8,2.1,68.4,83.5,68.4,183.6c0,19.7,3.4,39.7,10.1,59.3c21,63.6,66.9,129.7,101.7,173.9c33.3,42.4,63.1,73.4,69.8,80.2
		c6.8-6.5,36.6-35.3,69.8-76.5c34.8-43.1,80.7-108.8,101.7-177.7c6.8-20.1,10.1-40,9.8-59.5C431.3,83.5,349.9,2.1,249.9,2.1z"/>
</g>
<g>
	
		<ellipse id="XMLID_294_" fill="#D03E36" stroke="#D03E36" stroke-width="2.067" stroke-linecap="round" stroke-linejoin="round" stroke-miterlimit="10" cx="250.6" cy="196.8" rx="131.9" ry="132.4"/>
	<g>
		<g>
			<defs>
				<ellipse id="XMLID_133_" cx="250.6" cy="178.1" rx="131.9" ry="132.4"/>
			</defs>
			<use xlink:href="#XMLID_133_"  overflow="visible" fill="#FFFFFF"/>
			<clipPath id="XMLID_2_">
				<use xlink:href="#XMLID_133_"  overflow="visible"/>
			</clipPath>
			<g clip-path="url(#XMLID_2_)">
				
					<ellipse fill="#FFFFFF" stroke="#D03E36" stroke-width="2.067" stroke-linecap="round" stroke-linejoin="round" stroke-miterlimit="10" cx="223.5" cy="176.5" rx="130.4" ry="131.3"/>
				
					<ellipse fill="#FFFFFF" stroke="#D03E36" stroke-width="2.067" stroke-linecap="round" stroke-linejoin="round" stroke-miterlimit="10" cx="213.8" cy="175.8" rx="130.4" ry="126.2"/>
				
					<ellipse fill="#FFFFFF" stroke="#D03E36" stroke-width="2.067" stroke-linecap="round" stroke-linejoin="round" stroke-miterlimit="10" cx="213.8" cy="175.8" rx="120.9" ry="117"/>
				
					<ellipse fill="#FFFFFF" stroke="#D03E36" stroke-width="2.067" stroke-linecap="round" stroke-linejoin="round" stroke-miterlimit="10" cx="214.5" cy="175.5" rx="110.5" ry="106.9"/>
				
					<ellipse fill="#FFFFFF" stroke="#D03E36" stroke-width="2.067" stroke-linecap="round" stroke-linejoin="round" stroke-miterlimit="10" cx="213.8" cy="175.8" rx="101" ry="97.8"/>
				
					<ellipse fill="#FFFFFF" stroke="#D03E36" stroke-width="2.067" stroke-linecap="round" stroke-linejoin="round" stroke-miterlimit="10" cx="213.8" cy="175.8" rx="91.4" ry="88.4"/>
			</g>
			<g clip-path="url(#XMLID_2_)">
				<path fill="#D03E36" d="M245.3,260.5c-3.3,0-6.6-1.3-9.7-3.7c-2.9,0.8-5.5,1.2-7.7,1.2c-5.9,0-9.6-2.6-12.1-8.6
					c-5.8-0.6-12.1-1.8-15.7-6.3c-2.4-3-3.3-7.2-2.8-12.5c-3.3-0.8-5.6-2.3-6.9-4.5c-1.7-2.6-1.9-6.3-0.8-10.9
					c-0.3-0.3-0.9-0.8-1.3-1.1c-0.7-0.5-1.2-1-1.6-1.3c-2.1,3.7-7.7,10.6-20,10.6c-5.7,0-22.9-8-38.1-15.1c-8-3.7-15-7-18.2-8.1
					c-4.7-1.6-7.8-7.4-9-16.9c-3.5-27.7,10.1-78.3,40.1-97.6c0.2-0.1,0.4-0.2,0.6-0.2c0.2,0,0.3,0,0.4,0.1
					c17.7,8.5,36.6,19.4,51.8,28.2c12.6,7.3,23.5,13.6,29.7,16.1c1.6,0,8.7-2.6,15-4.9c10.1-3.6,16.8-6,19.3-6
					c10.9,0,15.3,2.8,18.2,5.6c2.8,2.7,13.9,9.3,16.1,10.6l85.7-23.6c0.1,0,0.2,0,0.3,0c0.1,0,0.1,0,0.2,0
					c30.1,5.6,20.3,106.8,19.8,111.1c-0.1,0.5-0.5,0.9-1,0.9c-0.6,0-58.1,2.6-83.9,4c-1.8,5.4-8.5,8.3-12.9,8.3c0,0,0,0,0,0
					c-1.2,0-2.1-0.2-2.9-0.6c-1.3,2.7-4.7,9.4-11.9,9.4c-0.6,0-1.1,0-1.7-0.1c-1.7,5.2-7,8.4-14.3,8.4c-3.1,0-6.3-0.6-9-1.7
					c0,0.1-0.1,0.1-0.1,0.2C258.6,253.8,253,260.5,245.3,260.5z"/>
				<g>
					<path fill="#D03E36" d="M142,86.4c32.5,15.5,67.9,38.7,81.6,44.4c0.1,0,0.2,0,0.3,0c3.6,0,29.7-10.9,34.3-10.9
						c9.8,0,14.3,2.2,17.5,5.4c3.3,3.1,16.6,10.9,16.6,10.9l86.2-23.7c29.6,5.5,19,110,19,110s-58.9,2.6-84.7,4.1
						c-1.3,5.3-7.9,8.2-12.1,8.2c-1.5,0-2.6-0.4-3.2-1.1c0,0,0,0,0,0c-0.4,0-3.2,10-11.6,10c-0.8,0-1.6-0.1-2.5-0.3
						c-1.4,6-7.3,8.5-13.6,8.5c-3.3,0-6.6-0.7-9.3-1.9c-1.1,1.1-7.1,9.5-15.3,9.5c-2.9,0-6.1-1.1-9.5-3.8c-3.1,0.8-5.7,1.3-7.9,1.3
						c-6,0-9.2-3-11.3-8.5c-9.6-0.9-20.1-3.3-18-18.6c-4.9-1-10.7-3.8-7.7-14.8c0-0.3-4.3-3.5-4.3-4c-1.9,4.1-7.4,11.4-19.8,11.4
						c-8.5,0-46.7-20-56-23.1C92.5,193.1,102.1,112.2,142,86.4 M142,84.4c-0.4,0-0.8,0.1-1.1,0.3c-30.3,19.6-44.1,70.6-40.6,98.6
						c1.2,9.9,4.6,16.1,9.7,17.8c3.2,1.1,10.1,4.3,18.1,8c18.5,8.6,33.1,15.2,38.6,15.2c11.7,0,17.7-6.1,20.3-10.1
						c0.2,0.2,0.4,0.4,0.7,0.6c0.3,0.2,0.6,0.5,0.9,0.7c-1,4.6-0.7,8.3,1.1,11.1c1.4,2.2,3.6,3.8,6.7,4.7c-0.4,5.2,0.6,9.3,3.1,12.4
						c3.7,4.6,9.9,6,15.8,6.6c2.6,5.9,6.7,8.6,12.8,8.6c2.2,0,4.6-0.3,7.4-1.1c3.2,2.4,6.5,3.7,9.9,3.7c7.8,0,13.4-6.3,15.9-9.1
						c2.7,1,5.7,1.5,8.7,1.5c7.4,0,12.9-3.1,15-8.3c0.3,0,0.7,0,1,0c7.2,0,10.9-5.9,12.5-9.1c0.7,0.2,1.5,0.3,2.3,0.3
						c4.5,0,11.3-2.9,13.6-8.3c26.1-1.4,82.7-4,83.2-4c1,0,1.9-0.8,2-1.9c0-0.3,2.6-26.6,1.6-53.2c-1.4-36.7-8.9-56.5-22.3-59
						c-0.1,0-0.3,0-0.4,0c-0.2,0-0.4,0-0.5,0.1L292.6,134c-4.1-2.4-13.1-7.9-15.5-10.2c-4.4-4.2-10-5.9-19-5.9
						c-2.6,0-9.2,2.3-19.6,6.1c-5.4,1.9-12.6,4.6-14.4,4.8c-6.2-2.6-16.9-8.8-29.3-16c-15.2-8.8-34.1-19.7-51.9-28.2
						C142.6,84.4,142.3,84.4,142,84.4L142,84.4z"/>
				</g>
			</g>
			<g clip-path="url(#XMLID_2_)">
				
					<path fill="#D03E36" stroke="#FFFFFF" stroke-width="2.067" stroke-linecap="round" stroke-linejoin="round" stroke-miterlimit="10" d="
					M119.7,78.7c3.6,1.8,105.2,58,105.2,58l-40.6,72.4c-4.8,8.8-15.6,12.5-24.8,8.5L77,181.8L119.7,78.7z"/>
				<g>
					<defs>
						<path id="XMLID_293_" d="M284,141.9c0,0,14.9,82.2,16.2,82.2c1.2,0,90.6-4.8,111.6-7.4c4.7-0.6,8-4.8,7.5-9.5l-16.1-87.1
							c-0.5-5.1-5.3-8.6-10.3-7.5L284,141.9z"/>
					</defs>
					<use xlink:href="#XMLID_293_"  overflow="visible" fill="#D03E36"/>
					<clipPath id="XMLID_3_">
						<use xlink:href="#XMLID_293_"  overflow="visible"/>
					</clipPath>
					
						<use xlink:href="#XMLID_293_"  overflow="visible" fill="none" stroke="#FFFFFF" stroke-width="2.067" stroke-linecap="round" stroke-linejoin="round" stroke-miterlimit="10"/>
				</g>
				<g>
					<defs>
						<path id="XMLID_292_" d="M197.5,132.9l17.4,10.3l-35.1,53.1c-3.3,8.5-11.8,12.6-19.4,9.3l-24.6-10.7l39.9-58
							C179,129.9,191.8,128.5,197.5,132.9z"/>
					</defs>
					<defs>
						<path id="XMLID_291_" d="M196.2,136.4l13,8.5l-31.4,49c-2.9,7.9-10.6,11.6-17.4,8.6l-19.5-8.9l35.7-53.6
							C179.6,133.7,191.1,132.4,196.2,136.4z"/>
					</defs>
					<use xlink:href="#XMLID_292_"  overflow="visible" fill="#FFFFFF"/>
					<use xlink:href="#XMLID_291_"  display="none" overflow="visible" fill="#FFFFFF"/>
					<clipPath id="XMLID_4_">
						<use xlink:href="#XMLID_292_"  overflow="visible"/>
					</clipPath>
					<clipPath id="XMLID_5_" clip-path="url(#XMLID_4_)">
						<use xlink:href="#XMLID_291_"  display="none" overflow="visible"/>
					</clipPath>
					
						<ellipse clip-path="url(#XMLID_5_)" fill="#FFFFFF" stroke="#D03E36" stroke-width="2.067" stroke-linecap="round" stroke-linejoin="round" stroke-miterlimit="10" cx="191.9" cy="174.1" rx="37.8" ry="35.4"/>
					
						<ellipse clip-path="url(#XMLID_5_)" fill="#FFFFFF" stroke="#D03E36" stroke-width="2.067" stroke-linecap="round" stroke-linejoin="round" stroke-miterlimit="10" cx="192.5" cy="173.6" rx="30" ry="26.6"/>
					
						<use xlink:href="#XMLID_292_"  overflow="visible" fill="none" stroke="#D03E36" stroke-width="2.067" stroke-linecap="round" stroke-linejoin="round" stroke-miterlimit="10"/>
					
						<use xlink:href="#XMLID_291_"  display="none" overflow="visible" fill="none" stroke="#D03E36" stroke-width="2.067" stroke-linecap="round" stroke-linejoin="round" stroke-miterlimit="10"/>
				</g>
				
					<path fill="#FFFFFF" stroke="#D03E36" stroke-width="2.067" stroke-linecap="round" stroke-linejoin="round" stroke-miterlimit="10" d="
					M328,140.1l-28.4,5.3l14.5,70.8l3.7-0.4c11.8-1.2,20.2-12.1,18.4-23.9L328,140.1z"/>
				<g>
					<defs>
						<path id="XMLID_290_" d="M317.8,203.9c-1.9-6.1-9.4-18.9-12.7-24.4c-3.8-6.2-3.1-3.8-8.2-9c-6.5-6.6-14.4-10-22.2-14.7
							c-3.9-2.4-7.5-5.3-10.7-8.4c-3.6-3.5-6-8.1-10.4-10.6c-6-3.4-13.4-5.1-20.4-3.8c-8.6,1.6-18.4,6.8-27.9,7.2
							c-7.3,0.3-15.1,3.6-20,9c-14.1,15.3-19.6,33.8-11.9,46.9c1.6,2.8,5.2,3.8,7.6,6c8.2,7.6,16.8,15.4,26.4,21
							c7.2,4.2,35.4,18.2,44.9,21.5c3.3,1.2,11.2,2.7,14.8,3c5.4,0.5,12.6,0.5,14.6-7.3c7.7,2.1,12.8-5.8,13.7-11.2
							c8.8,5.7,16.2-4.7,14.8-10.4C310,217.7,322.4,218.8,317.8,203.9z"/>
					</defs>
					<use xlink:href="#XMLID_290_"  overflow="visible" fill="#FFFFFF"/>
					<clipPath id="XMLID_6_">
						<use xlink:href="#XMLID_290_"  overflow="visible"/>
					</clipPath>
					
						<path clip-path="url(#XMLID_6_)" fill="#FFFFFF" stroke="#D03E36" stroke-width="1.0335" stroke-linecap="round" stroke-linejoin="round" stroke-miterlimit="10" d="
						M167.4,177.4c0,0,63.4,50.3,76.7,53c11.9,2.4,16.8-4.5,16.8-5.5c0-1,11.9,3.6,15.6-10.2c11-0.7,12.5-6.9,12.9-11
						c15.8-0.3,18.5-6.4,13.7-15.4c-3.9-7.3,36.5,17.8,36.5,17.8l-25.4,48.7c0,0-45,18.6-46.4,18.3s-60.2-4.1-63.9-6.9
						c-3.8-2.8-33-36.9-34.7-38.7c-1.7-1.7-3.8-53.9-5.2-54.5"/>
					
						<path display="none" clip-path="url(#XMLID_6_)" fill="#FFFFFF" stroke="#D03E36" stroke-width="2.067" stroke-linecap="round" stroke-linejoin="round" stroke-miterlimit="10" d="
						M161.6,184.7c0,0,87,48.7,89.4,48.6c5.8-0.2,15.8-1.7,14.9-10.2c3.8,5.8,18.9,0.8,14.4-9.9c6.3,4.6,17.4-1,15.9-9.4
						c8.8,0,17.9-4.8,1.3-23.3c37.5-5.3,50.4,30.1,41.8,42.2c-8.6,12.1-77.6,47.5-77.6,47.5l-113-84.7"/>
					
						<line clip-path="url(#XMLID_6_)" fill="#FFFFFF" stroke="#D03E36" stroke-width="2.067" stroke-linecap="round" stroke-linejoin="round" stroke-miterlimit="10" x1="260.9" y1="224.8" x2="281.9" y2="240.8"/>
					
						<line clip-path="url(#XMLID_6_)" fill="#FFFFFF" stroke="#D03E36" stroke-width="2.067" stroke-linecap="round" stroke-linejoin="round" stroke-miterlimit="10" x1="295.5" y1="229.4" x2="277.1" y2="214.7"/>
					
						<line clip-path="url(#XMLID_6_)" fill="#FFFFFF" stroke="#D03E36" stroke-width="2.067" stroke-linecap="round" stroke-linejoin="round" stroke-miterlimit="10" x1="310.4" y1="219" x2="289.7" y2="203.6"/>
					
						<path clip-path="url(#XMLID_6_)" fill="#FFFFFF" stroke="#D03E36" stroke-width="2.067" stroke-linecap="round" stroke-linejoin="round" stroke-miterlimit="10" d="
						M208,138.8c0,0-23,9-30.9,32.8c-7.9,23.8,0.7,31.1,2.7,33.1s-17.5-4.5-17.5-5.5c0-1,7.2-60.4,44-63.9S208,138.8,208,138.8z"/>
					
						<use xlink:href="#XMLID_290_"  overflow="visible" fill="none" stroke="#D03E36" stroke-width="2.067" stroke-linecap="round" stroke-linejoin="round" stroke-miterlimit="10"/>
				</g>
				
					<path fill="#FFFFFF" stroke="#D03E36" stroke-width="2.067" stroke-linecap="round" stroke-linejoin="round" stroke-miterlimit="10" d="
					M205.5,202.1c-1.1,0.4-11.7,7.1-12.5,15.8c-0.8,8.7,9.8,9.9,9.8,9.9l11.2-17.7C214.1,210.1,212.8,199.6,205.5,202.1z"/>
				<g>
					<defs>
						<path id="XMLID_281_" d="M227.5,211.6c0.5-4.2-7.4-11.4-13-3.9c-10.3,13.7-16.2,22.4-12,29.6s13.8,9.4,19.9,2.8
							c3.2-3.5-0.5-9.1,1.4-13.1C227.4,219.6,227.5,211.6,227.5,211.6z"/>
					</defs>
					<use xlink:href="#XMLID_281_"  overflow="visible" fill="#FFFFFF"/>
					<clipPath id="XMLID_7_">
						<use xlink:href="#XMLID_281_"  overflow="visible"/>
					</clipPath>
					
						<use xlink:href="#XMLID_281_"  overflow="visible" fill="none" stroke="#D03E36" stroke-width="2.067" stroke-linecap="round" stroke-linejoin="round" stroke-miterlimit="10"/>
				</g>
				
					<path fill="#FFFFFF" stroke="#D03E36" stroke-width="2.067" stroke-linecap="round" stroke-linejoin="round" stroke-miterlimit="10" d="
					M245.9,222.1c2.9-4.8-7.5-15.9-15.5-6.8c-11.3,12.9-16.2,22.4-12,29.6s15.3,12.4,22.3,1.1C247.5,235,234.2,241.4,245.9,222.1z"
					/>
				<g>
					<defs>
						<path id="XMLID_270_" d="M257.3,229.3c0-4.9-9.3-11.5-13.1-4.6c-8.7,15.6-11.8,18.3-7.6,25.5c4.2,7.2,14.4,7.6,21.3-3.7
							c-0.5-0.5-5.5-1.5-5.1-2.7C256,234.8,257.3,234.2,257.3,229.3z"/>
					</defs>
					<use xlink:href="#XMLID_270_"  overflow="visible" fill="#FFFFFF"/>
					<clipPath id="XMLID_8_">
						<use xlink:href="#XMLID_270_"  overflow="visible"/>
					</clipPath>
					
						<path clip-path="url(#XMLID_8_)" fill="#FFFFFF" stroke="#D03E36" stroke-width="2.067" stroke-linecap="round" stroke-linejoin="round" stroke-miterlimit="10" d="
						M253,242.9c-0.8,2.5-1.3,3.9-2.8,7.4"/>
					
						<path clip-path="url(#XMLID_8_)" fill="#FFFFFF" stroke="#D03E36" stroke-width="1.0335" stroke-linecap="round" stroke-linejoin="round" stroke-miterlimit="10" d="
						M247.1,224.4c0,0-4.3,7-4.4,7.6c-0.4,1.6,5.7,8.5,8.9,4s3.3-6.7,2.8-8.3C253.9,226.2,250.5,222.6,247.1,224.4z"/>
					
						<use xlink:href="#XMLID_270_"  overflow="visible" fill="none" stroke="#D03E36" stroke-width="2.067" stroke-linecap="round" stroke-linejoin="round" stroke-miterlimit="10"/>
				</g>
				<g>
					<defs>
						<path id="XMLID_268_" d="M320.6,157c-1.5-3.8-4.6-8.4-8.2-9.5c-9.3-3-27.7-9.6-36.6-17.7c-10.3-9.3-21.8-4.3-21.8-4.3
							l-15.4,4.3c-1.8,0.4-3.4,1.5-4.5,3.1c-3.2,4.8-10.5,15.3-15.4,19c-6.4,4.9,3.9,10.1,13,10.1s13.2-4.6,17.9-11.8
							c5.7-0.4,13.3,4.3,13.3,4.3s0.4,18.7,34.4,27.3c14.1,15.7,21,24.8,21,24.8s9.9-7,8.8-21.8S320.6,157,320.6,157z"/>
					</defs>
					<use xlink:href="#XMLID_268_"  overflow="visible" fill="#FFFFFF"/>
					<clipPath id="XMLID_9_">
						<use xlink:href="#XMLID_268_"  overflow="visible"/>
					</clipPath>
					<g clip-path="url(#XMLID_9_)">
						<defs>
							<path id="XMLID_269_" d="M249.7,150.2l4.9-7.2l10.8,5.1c0,0,1.4,3.5,22.3,16.9c21,13.5,49.5-3.5,50.5-3.5
								c0,0,8.2,18.6,5.5,33.5c-2.7,14.8-28.5,38-28.5,38l-45-41.1l-20.6-41.6"/>
						</defs>
						<use xlink:href="#XMLID_269_"  overflow="visible" fill="#FFFFFF"/>
						<clipPath id="XMLID_10_">
							<use xlink:href="#XMLID_269_"  overflow="visible"/>
						</clipPath>
						
							<path clip-path="url(#XMLID_10_)" fill="#FFFFFF" stroke="#D03E36" stroke-width="2.067" stroke-linecap="round" stroke-linejoin="round" stroke-miterlimit="10" d="
							M317.8,177.2c-3.1,2.6-10.6,6.1-20.5,4.7"/>
						
							<path clip-path="url(#XMLID_10_)" fill="#FFFFFF" stroke="#D03E36" stroke-width="2.067" stroke-linecap="round" stroke-linejoin="round" stroke-miterlimit="10" d="
							M312.2,180.5c0,0,5.7-9.8,7.2-5.7C320.9,179,317.6,180.5,312.2,180.5z"/>
						
							<use xlink:href="#XMLID_269_"  overflow="visible" fill="none" stroke="#D03E36" stroke-width="2.067" stroke-linecap="round" stroke-linejoin="round" stroke-miterlimit="10"/>
					</g>
					
						<use xlink:href="#XMLID_268_"  overflow="visible" fill="none" stroke="#D03E36" stroke-width="2.067" stroke-linecap="round" stroke-linejoin="round" stroke-miterlimit="10"/>
				</g>
				<g>
					
						<path fill="#FFFFFF" stroke="#D03E36" stroke-width="1.0335" stroke-linecap="round" stroke-linejoin="round" stroke-miterlimit="10" d="
						M218.5,152.1c0.5,0,7.4-0.6,10.6,1.9c3.1,2.5,7.4-7,7.1-7.1c-0.4-0.1-7.7-4.4-10.3-2.7C223.2,146,218.5,152.1,218.5,152.1z"/>
					
						<path fill="#FFFFFF" stroke="#D03E36" stroke-width="1.0335" stroke-linecap="round" stroke-linejoin="round" stroke-miterlimit="10" d="
						M206.6,204c-0.3,0.1-5.9,3.6-6.1,5.5c-0.3,1.9,5.2,5.5,6.3,4.6c1.1-0.9,4.5-3.9,4.5-6.4C211.3,205.4,208.9,202.8,206.6,204z"/>
					
						<path fill="#FFFFFF" stroke="#D03E36" stroke-width="1.0335" stroke-linecap="round" stroke-linejoin="round" stroke-miterlimit="10" d="
						M218.6,207.1c-1.2,0.8-6.2,6.3-6.2,8.5c-0.1,2.8,5.3,7.1,8.2,4.8c2.9-2.3,5.1-7.4,4.4-9.9C224.4,208.4,221,205.5,218.6,207.1z"
						/>
					
						<path fill="#FFFFFF" stroke="#D03E36" stroke-width="1.0335" stroke-linecap="round" stroke-linejoin="round" stroke-miterlimit="10" d="
						M234.7,215c-1.3,0.8-6.5,7.2-6.1,9.1c0.6,3,5.1,6.2,8.3,4.8c3.7-1.6,5.9-6.7,5.4-10.5C242.1,217,238.8,212.6,234.7,215z"/>
				</g>
				<g>
					<g>
						
							<ellipse fill="#FFFFFF" stroke="#D03E36" stroke-width="2.067" stroke-linecap="round" stroke-linejoin="round" stroke-miterlimit="10" cx="138.6" cy="166.4" rx="7.1" ry="7.1"/>
					</g>
					
						<ellipse fill="#FFFFFF" stroke="#D03E36" stroke-width="2.067" stroke-linecap="round" stroke-linejoin="round" stroke-miterlimit="10" cx="121.7" cy="163.3" rx="5.3" ry="5.4"/>
				</g>
			</g>
			
				<use xlink:href="#XMLID_133_"  overflow="visible" fill="none" stroke="#D03E36" stroke-width="4.1339" stroke-linecap="round" stroke-linejoin="round" stroke-miterlimit="10"/>
		</g>
	</g>
</g>
</svg>
